<svg width="64" height="64" viewBox="0 0 64 64" fill="none" xmlns="http://www.w3.org/2000/svg">
<g clip-path="url(#clip0_239_765)">
<rect width="64" height="64" rx="12" fill="#FF3300"/>
<path d="M61.7465 0H2.25352C1.00894 0 0 1.04576 0 2.33577V61.6642C0 62.9542 1.00894 64 2.25352 64H61.7465C62.9911 64 64 62.9542 64 61.6642V2.33577C64 1.04576 62.9911 0 61.7465 0Z" fill="#FF3300"/>
<path d="M25.0933 32.0023L51.5151 25.7011V12H37.814L25.0933 32.0023Z" fill="white"/>
<path d="M12 31.7624C12 33.4015 12.1998 34.9926 12.5772 36.5169L25.0944 32.0029L12.4736 27.4481C12.1664 28.8356 12 30.2787 12 31.7587V31.7624Z" fill="white"/>
<path d="M16.6547 19.023L25.0908 32.0027L28.9795 12.1965C24.0548 12.8884 19.7146 15.3971 16.6547 19.023Z" fill="white"/>
<path d="M25.0933 32.0015L51.5151 38.2989V52H37.814L25.0933 32.0015Z" fill="white"/>
<path d="M16.6542 44.979L25.0902 31.9994L28.9752 51.8019C24.0505 51.11 19.7104 48.6014 16.6505 44.9753L16.6542 44.979Z" fill="white"/>
</g>
<defs>
<clipPath id="clip0_239_765">
<rect width="64" height="64" rx="12" fill="white"/>
</clipPath>
</defs>
</svg>
