<svg width="64" height="64" viewBox="0 0 64 64" fill="none" xmlns="http://www.w3.org/2000/svg">
<g clip-path="url(#clip0_284_1543)">
<rect width="64" height="64" rx="12" fill="#FF3300"/>
<path d="M61.7465 0H2.25352C1.00894 0 0 1.04576 0 2.33577V61.6642C0 62.9542 1.00894 64 2.25352 64H61.7465C62.9911 64 64 62.9542 64 61.6642V2.33577C64 1.04576 62.9911 0 61.7465 0Z" fill="#FF3300"/>
<path d="M25.0933 32.0023L51.5151 25.7011V12H37.8139L25.0933 32.0023Z" fill="white"/>
<path d="M12 31.7624C12 33.4014 12.1998 34.9925 12.5772 36.5169L25.0944 32.0029L12.4736 27.4481C12.1665 28.8356 12 30.2787 12 31.7587V31.7624Z" fill="white"/>
<path d="M16.6547 19.0231L25.0907 32.0027L28.9794 12.1965C24.0547 12.8885 19.7146 15.3971 16.6547 19.0231Z" fill="white"/>
<path d="M25.0933 32.0015L51.5151 38.2989V52H37.8139L25.0933 32.0015Z" fill="white"/>
<path d="M16.6542 44.979L25.0902 31.9994L28.9753 51.8019C24.0506 51.11 19.7104 48.6014 16.6505 44.9754L16.6542 44.979Z" fill="white"/>
<g clip-path="url(#clip1_284_1543)">
<rect width="64" height="64" fill="#2CA01C"/>
<path d="M32 64C49.6731 64 64 49.6731 64 32C64 14.3269 49.6731 0 32 0C14.3269 0 0 14.3269 0 32C0 49.6731 14.3269 64 32 64Z" fill="#2CA01C"/>
<path d="M7.71329 31.9898C7.71585 39.2244 13.5501 45.1073 20.7847 45.1712H22.6355V40.3354H20.7847C16.2995 41.5591 11.6736 38.9146 10.4525 34.4295C10.4423 34.3937 10.4346 34.3578 10.4243 34.322C9.16737 29.778 11.7991 25.0701 16.3277 23.762H17.2519C18.4115 23.5085 19.6122 23.5085 20.7719 23.762H25.2672V49.4362C25.2442 52.1524 27.4279 54.3744 30.144 54.4V18.6778H20.8128C13.5271 18.7162 7.65441 24.6528 7.69281 31.9386V31.9412L7.71329 31.9898ZM43.2333 18.6829H41.3824V23.7748H43.2333C47.7082 22.5536 52.3239 25.1904 53.545 29.6628C53.5552 29.696 53.5629 29.7319 53.5731 29.7652C54.8224 34.2938 52.1984 38.9837 47.6877 40.2893H46.7635C45.6039 40.5428 44.4032 40.5428 43.2435 40.2893H38.7482V14.6176C38.7712 11.9015 36.5875 9.67941 33.8714 9.65381V45.4272H43.2026C50.5523 45.312 56.4173 39.2628 56.3047 31.913C56.192 24.7245 50.3936 18.9236 43.2026 18.8109L43.2333 18.6829Z" fill="white"/>
</g>
</g>
<defs>
<clipPath id="clip0_284_1543">
<rect width="64" height="64" rx="12" fill="white"/>
</clipPath>
<clipPath id="clip1_284_1543">
<rect width="64" height="64" fill="white"/>
</clipPath>
</defs>
</svg>
