<svg width="64" height="64" viewBox="0 0 64 64" fill="none" xmlns="http://www.w3.org/2000/svg">
<rect x="-0.076416" y="-0.0360107" width="63.9954" height="63.9954" fill="#1AB4D7"/>
<mask id="mask0_284_1517" style="mask-type:luminance" maskUnits="userSpaceOnUse" x="-1" y="-1" width="65" height="65">
<path d="M-0.0859375 -0.040657H63.9015V63.9468H-0.0859375V-0.040657Z" fill="white"/>
</mask>
<g mask="url(#mask0_284_1517)">
<path d="M31.8878 54.1016C44.1026 54.1016 54.0046 44.1996 54.0046 31.9847C54.0046 19.77 44.1026 9.86798 31.8878 9.86798C19.673 9.86798 9.771 19.77 9.771 31.9847C9.771 44.1996 19.673 54.1016 31.8878 54.1016Z" fill="#1AB4D7"/>
<path d="M20.358 31.9208L24.1325 28.1371C24.2576 28.0095 24.3274 27.8407 24.3274 27.6616C24.3274 27.2884 24.024 26.9853 23.6508 26.9853C23.469 26.9853 23.2986 27.0565 23.1701 27.1866C23.1697 27.1874 19.399 30.9559 19.399 30.9559L15.6112 27.181C15.4832 27.0548 15.3136 26.9853 15.1337 26.9853C14.761 26.9853 14.4575 27.2882 14.4575 27.6611C14.4575 27.8429 14.5301 28.0136 14.6605 28.1422L18.4343 31.9155L14.6624 35.6945C14.5298 35.8251 14.4575 35.9961 14.4575 36.1788C14.4575 36.5519 14.761 36.8547 15.1337 36.8547C15.3139 36.8547 15.4836 36.7848 15.6112 36.6571L19.3932 32.8802L23.1608 36.6434C23.2945 36.7815 23.4668 36.8551 23.6508 36.8551C24.0236 36.8551 24.327 36.5519 24.327 36.1788C24.327 35.9987 24.2573 35.8296 24.1303 35.7021L20.358 31.9208Z" fill="white"/>
<path d="M42.7961 31.9197C42.7961 32.5973 43.3472 33.1486 44.0256 33.1486C44.7025 33.1486 45.2538 32.5973 45.2538 31.9197C45.2538 31.2419 44.7025 30.6907 44.0256 30.6907C43.3472 30.6907 42.7961 31.2419 42.7961 31.9197Z" fill="white"/>
<path d="M40.4654 31.9203C40.4654 29.9579 42.0618 28.3612 44.0244 28.3612C45.986 28.3612 47.5828 29.9579 47.5828 31.9203C47.5828 33.8822 45.986 35.4782 44.0244 35.4782C42.0618 35.4782 40.4654 33.8822 40.4654 31.9203ZM39.0654 31.9203C39.0654 34.6542 41.29 36.8785 44.0244 36.8785C46.7587 36.8785 48.9845 34.6542 48.9845 31.9203C48.9845 29.186 46.7587 26.9611 44.0244 26.9611C41.29 26.9611 39.0654 29.186 39.0654 31.9203Z" fill="white"/>
<path d="M38.7134 27.0459L38.5053 27.0453C37.8807 27.0453 37.2783 27.2423 36.7752 27.63C36.7089 27.3267 36.4377 27.0984 36.1147 27.0984C35.7429 27.0984 35.445 27.3963 35.4441 27.7688C35.4441 27.7701 35.4463 36.1209 35.4463 36.1209C35.4473 36.4928 35.7506 36.795 36.1226 36.795C36.4946 36.795 36.7978 36.4928 36.7988 36.1201C36.7988 36.1184 36.7991 30.9846 36.7991 30.9846C36.7991 29.2729 36.9556 28.5817 38.4218 28.3984C38.5573 28.3816 38.7047 28.3842 38.7053 28.3842C39.1065 28.3704 39.3916 28.0948 39.3916 27.7221C39.3916 27.3493 39.0873 27.0459 38.7134 27.0459Z" fill="white"/>
<path d="M25.7282 31.1039C25.7282 31.0854 25.7297 31.0661 25.7306 31.0471C26.1232 29.495 27.5288 28.3465 29.2029 28.3465C30.8972 28.3465 32.3157 29.5232 32.6882 31.1039H25.7282ZM34.0731 30.9762C33.7816 29.5964 33.0263 28.4631 31.876 27.7352C30.1946 26.6678 27.9743 26.7268 26.3502 27.8817C25.0255 28.8242 24.2607 30.3659 24.2607 31.954C24.2607 32.3522 24.3087 32.7541 24.4087 33.1498C24.9089 35.1176 26.6005 36.6072 28.6174 36.854C29.2159 36.9265 29.7984 36.8918 30.4017 36.7356C30.92 36.6095 31.4216 36.3993 31.8838 36.1031C32.3634 35.7948 32.7642 35.3881 33.1523 34.9014C33.1601 34.8924 33.168 34.8845 33.1759 34.8751C33.4452 34.541 33.3953 34.0659 33.0993 33.8391C32.8496 33.6478 32.4305 33.5702 32.1007 33.9926C32.0298 34.0936 31.9507 34.1975 31.8637 34.3014C31.6014 34.5911 31.2761 34.8719 30.8862 35.0896C30.3902 35.3546 29.8248 35.5061 29.2239 35.5095C27.2568 35.4876 26.2042 34.1145 25.8298 33.1345C25.7644 32.9515 25.714 32.7616 25.6789 32.5662C25.6743 32.5296 25.6709 32.4943 25.6695 32.4618C26.0762 32.4618 32.7284 32.4607 32.7284 32.4607C33.6961 32.4404 34.2169 31.7573 34.0731 30.9762Z" fill="white"/>
</g>
</svg>
