<svg width="128" height="79" viewBox="0 0 128 79" fill="none" xmlns="http://www.w3.org/2000/svg">
<rect width="128" height="79" rx="10" fill="black"/>
<path d="M38.4348 27.1023C37.5089 28.1771 36.0275 29.0248 34.5461 28.9037C34.3609 27.4505 35.0862 25.9064 35.9349 24.9528C36.8608 23.8477 38.4811 23.0606 39.7928 23C39.9471 24.5138 39.3452 25.9973 38.4348 27.1023ZM39.7773 29.1913C37.6324 29.0702 35.796 30.3872 34.7775 30.3872C33.7436 30.3872 32.1851 29.2519 30.4876 29.2821C28.2809 29.3124 26.2285 30.5386 25.102 32.4913C22.7873 36.3969 24.5002 42.1795 26.7377 45.3584C27.8334 46.9327 29.1451 48.6584 30.8734 48.5979C32.5091 48.5373 33.1572 47.5533 35.1325 47.5533C37.1231 47.5533 37.6941 48.5979 39.4224 48.5676C41.2125 48.5373 42.339 46.9933 43.4346 45.4189C44.6845 43.6327 45.1938 41.8919 45.2246 41.801C45.1938 41.7707 41.768 40.484 41.7371 36.6088C41.7063 33.3693 44.4376 31.8253 44.5611 31.7345C43.0179 29.4941 40.6106 29.2519 39.7773 29.1913ZM52.1688 24.8014V48.4011H55.9032V40.3327H61.0727C65.7948 40.3327 69.1125 37.1537 69.1125 32.5519C69.1125 27.95 65.8565 24.8014 61.1962 24.8014H52.1688ZM55.9032 27.8895H60.2086C63.4492 27.8895 65.301 29.5849 65.301 32.567C65.301 35.5492 63.4492 37.2597 60.1931 37.2597H55.9032V27.8895ZM75.9332 48.5827C78.2788 48.5827 80.4546 47.4171 81.4423 45.5703H81.5194V48.4011H84.9761V36.6542C84.9761 33.2482 82.1984 31.0533 77.9239 31.0533C73.958 31.0533 71.026 33.2785 70.918 36.3363H74.2821C74.5598 34.8831 75.9332 33.9294 77.8159 33.9294C80.0997 33.9294 81.3805 34.9739 81.3805 36.8964V38.1983L76.7202 38.4707C72.384 38.7281 70.0384 40.4689 70.0384 43.4964C70.0384 46.5543 72.4612 48.5827 75.9332 48.5827ZM76.9363 45.7822C74.9456 45.7822 73.6802 44.8437 73.6802 43.4056C73.6802 41.9221 74.8993 41.0593 77.2295 40.923L81.3805 40.6657V41.9978C81.3805 44.2079 79.467 45.7822 76.9363 45.7822ZM89.5901 54.8194C93.2319 54.8194 94.9448 53.4571 96.4416 49.3245L103 31.2803H99.2039L94.8059 45.2221H94.7287L90.3308 31.2803H86.4266L92.7535 48.4616L92.414 49.5061C91.8431 51.2772 90.9172 51.9584 89.266 51.9584C88.9728 51.9584 88.4018 51.9281 88.1704 51.8979V54.7286C88.3864 54.7892 89.3123 54.8194 89.5901 54.8194Z" fill="white"/>
</svg>
