<svg width="128" height="79" viewBox="0 0 128 79" fill="none" xmlns="http://www.w3.org/2000/svg">
<rect width="128" height="79" rx="10" fill="#F4F4F4"/>
<path d="M61.8128 38.1951V47.3089H58.8137V24.7692H66.6113C68.5107 24.7692 70.3102 25.4552 71.7098 26.7292C73.1094 27.9052 73.8091 29.6692 73.8091 31.5311C73.8091 33.3931 73.1094 35.0591 71.7098 36.3331C70.3102 37.6071 68.6107 38.2931 66.6113 38.2931L61.8128 38.1951ZM61.8128 27.5132V35.3531H66.8113C67.9109 35.3531 69.0106 34.9611 69.7104 34.1771C71.3099 32.7071 71.3099 30.2572 69.8104 28.7872L69.7104 28.6892C68.9106 27.9052 67.9109 27.4152 66.8113 27.5132H61.8128Z" fill="#5F6368"/>
<path d="M80.7071 31.4331C82.9064 31.4331 84.6059 32.0211 85.9055 33.1971C87.2051 34.3731 87.8049 35.9411 87.8049 37.901V47.3089H85.0058V45.1529H84.9058C83.7061 46.9169 82.0067 47.7989 80.0073 47.7989C78.3078 47.7989 76.8082 47.3089 75.6086 46.3289C74.5089 45.3489 73.8091 43.977 73.8091 42.507C73.8091 40.939 74.409 39.665 75.6086 38.685C76.8082 37.705 78.5077 37.3131 80.5071 37.3131C82.3066 37.3131 83.7061 37.607 84.8058 38.293V37.607C84.8058 36.6271 84.4059 35.6471 83.6062 35.0591C82.8064 34.3731 81.8067 33.9811 80.7071 33.9811C79.0076 33.9811 77.708 34.6671 76.8082 36.0391L74.209 34.4711C75.8085 32.4131 77.9079 31.4331 80.7071 31.4331ZM76.9082 42.605C76.9082 43.389 77.3081 44.075 77.9079 44.467C78.6077 44.957 79.4074 45.2509 80.2072 45.2509C81.4068 45.2509 82.6065 44.761 83.5062 43.879C84.5059 42.997 85.0058 41.919 85.0058 40.743C84.106 40.057 82.8064 39.665 81.1069 39.665C79.9073 39.665 78.9076 39.959 78.1078 40.547C77.3081 41.037 76.9082 41.723 76.9082 42.605Z" fill="#5F6368"/>
<path d="M104 31.9231L94.103 54.1688H91.1039L94.8028 46.4269L88.3048 32.0211H91.5038L96.2024 43.095H96.3023L100.901 32.0211H104V31.9231Z" fill="#5F6368"/>
<path d="M49.9148 36.2351C49.9148 35.3531 49.8148 34.4711 49.7149 33.5891H37.2187V38.587H44.3165C44.0166 40.155 43.1169 41.625 41.7173 42.507V45.741H46.016C48.5152 43.487 49.9148 40.155 49.9148 36.2351Z" fill="#4285F4"/>
<path d="M37.2179 48.8769C40.8168 48.8769 43.8167 47.7009 46.016 45.741L41.7173 42.507C40.5177 43.291 39.0173 43.781 37.2179 43.781C33.8189 43.781 30.8198 41.527 29.8201 38.3911H25.4214V41.723C27.7207 46.133 32.2194 48.8769 37.2179 48.8769Z" fill="#34A853"/>
<path d="M29.8232 38.3911C29.2234 36.8231 29.2234 35.0591 29.8232 33.3931V30.0612H25.4246C23.5251 33.6871 23.5251 37.9991 25.4246 41.723L29.8232 38.3911Z" fill="#FBBC04"/>
<path d="M37.2194 28.1012C39.1189 28.1012 40.9183 28.7872 42.3179 30.0612L46.1167 26.3372C43.7175 24.1813 40.5184 22.9073 37.3194 23.0053C32.3209 23.0053 27.7223 25.7492 25.523 30.1592L29.9216 33.4911C30.8214 30.3552 33.8205 28.1012 37.2194 28.1012Z" fill="#EA4335"/>
</svg>
