<svg width="148" height="18" viewBox="0 0 148 18" fill="none" xmlns="http://www.w3.org/2000/svg">
<rect x="107.45" y="0.45" width="39.6" height="17.1" rx="4.05" fill="#5F00E7"/>
<rect x="107.45" y="0.45" width="39.6" height="17.1" rx="4.05" stroke="#AF80F3" stroke-width="0.9"/>
<path d="M139.769 10.5516C139.769 10.4203 139.749 10.3032 139.708 10.2C139.671 10.0938 139.6 9.99847 139.497 9.9141C139.397 9.8266 139.255 9.74222 139.071 9.66097C138.889 9.5766 138.655 9.4891 138.367 9.39847C138.049 9.29847 137.752 9.18597 137.477 9.06097C137.202 8.93597 136.96 8.79066 136.75 8.62504C136.544 8.45941 136.383 8.26879 136.267 8.05316C136.152 7.83441 136.094 7.58129 136.094 7.29379C136.094 7.01254 136.153 6.75629 136.272 6.52504C136.394 6.29379 136.566 6.09535 136.788 5.92972C137.01 5.76097 137.271 5.63129 137.571 5.54066C137.874 5.45004 138.208 5.40472 138.574 5.40472C139.08 5.40472 139.517 5.49691 139.886 5.68129C140.258 5.86566 140.546 6.11566 140.749 6.43129C140.952 6.74691 141.053 7.1016 141.053 7.49535H139.769C139.769 7.28285 139.724 7.09535 139.633 6.93285C139.546 6.77035 139.411 6.64222 139.23 6.54847C139.052 6.45472 138.827 6.40785 138.555 6.40785C138.292 6.40785 138.074 6.44691 137.899 6.52504C137.727 6.60316 137.597 6.70941 137.51 6.84379C137.425 6.97816 137.383 7.12816 137.383 7.29379C137.383 7.41879 137.413 7.53129 137.472 7.63129C137.531 7.72816 137.621 7.82035 137.739 7.90785C137.858 7.99222 138.005 8.07191 138.18 8.14691C138.358 8.21879 138.564 8.29066 138.799 8.36254C139.174 8.47504 139.502 8.60004 139.783 8.73754C140.067 8.87504 140.303 9.03129 140.491 9.20629C140.681 9.38129 140.824 9.57816 140.917 9.79691C141.014 10.0157 141.063 10.2641 141.063 10.5422C141.063 10.836 141.005 11.0985 140.889 11.3297C140.774 11.561 140.608 11.7578 140.392 11.9203C140.177 12.0828 139.917 12.2063 139.614 12.2907C139.314 12.375 138.978 12.4172 138.606 12.4172C138.275 12.4172 137.947 12.3735 137.622 12.286C137.3 12.1953 137.008 12.061 136.746 11.8828C136.483 11.7016 136.274 11.4735 136.117 11.1985C135.961 10.9203 135.883 10.5953 135.883 10.2235H137.177C137.177 10.4391 137.211 10.6235 137.28 10.7766C137.352 10.9266 137.452 11.05 137.58 11.1469C137.711 11.2407 137.864 11.3094 138.039 11.3532C138.214 11.3969 138.403 11.4188 138.606 11.4188C138.869 11.4188 139.085 11.3828 139.253 11.311C139.425 11.236 139.553 11.1328 139.638 11.0016C139.725 10.8703 139.769 10.7203 139.769 10.5516Z" fill="white"/>
<path d="M132.662 10.0782H133.951C133.916 10.5344 133.79 10.9391 133.571 11.2922C133.352 11.6422 133.048 11.9172 132.657 12.1172C132.266 12.3172 131.793 12.4172 131.237 12.4172C130.808 12.4172 130.423 12.3422 130.079 12.1922C129.738 12.0391 129.446 11.8219 129.202 11.5406C128.962 11.2563 128.777 10.9157 128.649 10.5188C128.521 10.1188 128.457 9.67034 128.457 9.17346V8.65315C128.457 8.15627 128.523 7.70784 128.654 7.30784C128.785 6.90784 128.973 6.56721 129.216 6.28596C129.463 6.00159 129.758 5.78284 130.102 5.62971C130.449 5.47659 130.837 5.40002 131.265 5.40002C131.821 5.40002 132.291 5.50315 132.676 5.7094C133.06 5.91252 133.358 6.19221 133.571 6.54846C133.783 6.90471 133.912 7.31409 133.955 7.77659H132.666C132.641 7.48909 132.579 7.24534 132.479 7.04534C132.382 6.84534 132.235 6.69377 132.038 6.59065C131.844 6.4844 131.587 6.43127 131.265 6.43127C131.015 6.43127 130.794 6.47815 130.604 6.5719C130.416 6.66565 130.26 6.80627 130.135 6.99377C130.01 7.17815 129.916 7.4094 129.854 7.68752C129.791 7.96252 129.76 8.28127 129.76 8.64377V9.17346C129.76 9.52034 129.788 9.83128 129.844 10.1063C129.901 10.3813 129.988 10.6141 130.107 10.8047C130.226 10.9953 130.379 11.1407 130.566 11.2407C130.754 11.3407 130.977 11.3907 131.237 11.3907C131.552 11.3907 131.808 11.3407 132.005 11.2407C132.205 11.1407 132.357 10.9938 132.46 10.8C132.566 10.6063 132.633 10.3657 132.662 10.0782Z" fill="white"/>
<path d="M126.328 8.73754V9.0891C126.328 9.60472 126.259 10.0688 126.121 10.4813C125.984 10.8907 125.788 11.2391 125.535 11.5266C125.282 11.8141 124.981 12.0344 124.631 12.1875C124.281 12.3407 123.892 12.4172 123.463 12.4172C123.042 12.4172 122.654 12.3407 122.301 12.1875C121.951 12.0344 121.648 11.8141 121.392 11.5266C121.135 11.2391 120.937 10.8907 120.796 10.4813C120.656 10.0688 120.585 9.60472 120.585 9.0891V8.73754C120.585 8.21879 120.656 7.75472 120.796 7.34535C120.937 6.93597 121.134 6.58754 121.387 6.30004C121.64 6.00941 121.942 5.78754 122.292 5.63441C122.645 5.48129 123.032 5.40472 123.454 5.40472C123.882 5.40472 124.271 5.48129 124.621 5.63441C124.971 5.78754 125.273 6.00941 125.526 6.30004C125.782 6.58754 125.979 6.93597 126.117 7.34535C126.257 7.75472 126.328 8.21879 126.328 8.73754ZM125.024 9.0891V8.72816C125.024 8.35629 124.99 8.02972 124.921 7.74847C124.853 7.4641 124.751 7.22504 124.617 7.03129C124.482 6.83754 124.317 6.69222 124.12 6.59535C123.923 6.49535 123.701 6.44535 123.454 6.44535C123.204 6.44535 122.982 6.49535 122.788 6.59535C122.598 6.69222 122.435 6.83754 122.301 7.03129C122.167 7.22504 122.063 7.4641 121.992 7.74847C121.923 8.02972 121.888 8.35629 121.888 8.72816V9.0891C121.888 9.45785 121.923 9.78441 121.992 10.0688C122.063 10.3532 122.167 10.5938 122.301 10.7907C122.438 10.9844 122.604 11.1313 122.798 11.2313C122.992 11.3313 123.213 11.3813 123.463 11.3813C123.713 11.3813 123.935 11.3313 124.129 11.2313C124.323 11.1313 124.485 10.9844 124.617 10.7907C124.751 10.5938 124.853 10.3532 124.921 10.0688C124.99 9.78441 125.024 9.45785 125.024 9.0891Z" fill="white"/>
<path d="M115.339 12.3234H113.867L113.876 11.3109H115.339C115.736 11.3109 116.069 11.2234 116.337 11.0484C116.606 10.8703 116.809 10.6156 116.947 10.2844C117.084 9.95001 117.153 9.55001 117.153 9.08438V8.73282C117.153 8.37344 117.114 8.05626 117.036 7.78126C116.958 7.50626 116.842 7.27501 116.689 7.08751C116.539 6.90001 116.353 6.75782 116.131 6.66094C115.909 6.56407 115.655 6.51563 115.367 6.51563H113.839V5.49844H115.367C115.823 5.49844 116.239 5.57501 116.614 5.72813C116.992 5.88126 117.319 6.10157 117.594 6.38907C117.872 6.67344 118.084 7.01407 118.231 7.41094C118.381 7.80782 118.456 8.25157 118.456 8.74219V9.08438C118.456 9.57188 118.381 10.0156 118.231 10.4156C118.084 10.8125 117.872 11.1531 117.594 11.4375C117.319 11.7219 116.991 11.9406 116.609 12.0938C116.228 12.2469 115.805 12.3234 115.339 12.3234ZM114.589 5.49844V12.3234H113.3V5.49844H114.589Z" fill="white"/>
<path d="M18.3558 11.1172C18.3558 6.88135 21.3904 4.20792 25.9032 4.20792C30.4161 4.20792 33.4506 6.88135 33.4506 11.1172C33.4506 15.3531 30.4161 18 25.9032 18C21.3904 18 18.3558 15.3 18.3558 11.1172ZM29.5188 11.1172C29.5188 8.78757 28.5686 7.70315 25.9032 7.70315C23.2379 7.70315 22.2876 8.78905 22.2876 11.1172C22.2876 13.4454 23.2114 14.4797 25.9032 14.4797C28.595 14.4797 29.5188 13.4469 29.5188 11.1172Z" fill="white"/>
<path d="M34.5583 11.1172C34.5583 6.88135 37.5928 4.20792 42.1057 4.20792C46.6185 4.20792 49.6531 6.88135 49.6531 11.1172C49.6531 15.3531 46.6185 18 42.1057 18C37.5928 18 34.5583 15.3 34.5583 11.1172ZM45.7212 11.1172C45.7212 8.78757 44.771 7.70315 42.1057 7.70315C39.4403 7.70315 38.4901 8.78905 38.4901 11.1172C38.4901 13.4454 39.4139 14.4797 42.1057 14.4797C44.7975 14.4797 45.7212 13.4469 45.7212 11.1172Z" fill="white"/>
<path d="M51.862 17.7353C51.531 17.7349 51.264 17.4664 51.264 17.1353V4.80437C51.264 4.62162 51.4117 4.47347 51.5939 4.47347H54.6026C54.7848 4.47347 54.9325 4.62162 54.9325 4.80437V8.38313C54.9325 8.44596 54.9833 8.4969 55.0459 8.4969C55.1024 8.4969 55.1501 8.45522 55.1588 8.39927C55.4996 6.21342 56.8287 4.20937 60.1058 4.20937C63.1171 4.20937 64.6735 6.02846 64.9992 8.43054C65.0084 8.49842 65.0658 8.55001 65.1341 8.55001C65.2012 8.55001 65.258 8.50038 65.2684 8.43385C65.6144 6.22859 66.972 4.20937 70.3185 4.20937C73.7237 4.20937 75.3859 6.45937 75.3859 9.47657V17.405C75.3859 17.5877 75.2382 17.7359 75.056 17.7359H71.7575C71.5753 17.7359 71.4276 17.5877 71.4276 17.405V10.8015C71.4276 8.6046 70.6627 7.78428 68.3931 7.78428C65.991 7.78428 65.3055 8.73739 65.3055 11.0405V17.4065C65.3055 17.5892 65.1579 17.7374 64.9756 17.7374H61.6772C61.495 17.7374 61.3473 17.5892 61.3473 17.4065V10.803C61.3473 8.60608 60.5824 7.78575 58.3127 7.78575C55.9107 7.78575 55.2252 8.73886 55.2252 11.042V17.4079C55.2252 17.5907 55.0775 17.7388 54.8953 17.7388C54.6726 17.7388 52.8344 17.7365 51.862 17.7353Z" fill="white"/>
<path d="M77.9891 17.7341C77.6578 17.7341 77.3892 17.4655 77.3892 17.1341V0.330901C77.3892 0.14815 77.5369 0 77.7191 0H92.0231C92.2053 0 92.353 0.148149 92.353 0.330901V3.24253C92.353 3.42528 92.2053 3.57343 92.0231 3.57343H81.6788C81.4966 3.57343 81.3489 3.72158 81.3489 3.90433V7.2394C81.3489 7.42215 81.4966 7.5703 81.6788 7.5703H91.6275C91.8097 7.5703 91.9574 7.71845 91.9574 7.9012V10.7863C91.9574 10.969 91.8097 11.1172 91.6275 11.1172H81.6788C81.4966 11.1172 81.3489 11.2653 81.3489 11.4481V17.4035C81.3489 17.5862 81.2012 17.7344 81.019 17.7344L77.9891 17.7341Z" fill="white"/>
<path d="M94.3716 3.61474C94.1894 3.61474 94.0417 3.46659 94.0417 3.28384V0.330901C94.0417 0.148149 94.1894 0 94.3716 0H97.6701C97.8523 0 98 0.148149 98 0.330901V3.28384C98 3.46659 97.8523 3.61474 97.6701 3.61474H94.3716ZM94.3716 17.7358C94.1894 17.7358 94.0417 17.5877 94.0417 17.4049L94.0417 5.56859C94.0417 5.38584 94.1894 5.23769 94.3716 5.23769H97.6701C97.8523 5.23769 98 5.38584 98 5.56859L98 17.4049C98 17.5877 97.8523 17.7358 97.6701 17.7358H94.3716Z" fill="white"/>
<path d="M15.6749 9.87403C14.8855 9.13393 13.7203 8.69586 12.1783 8.5603C12.1116 8.55442 12.0598 8.49876 12.0598 8.43172C12.0598 8.36438 12.1128 8.30853 12.1799 8.30287C14.8445 8.07838 16.1763 6.74938 16.1763 4.3149C16.1763 2.9207 15.7016 1.85321 14.7511 1.11193C13.8016 0.370642 12.4207 0 10.6084 0H0.604121C0.270344 0 0 0.271165 0 0.605955V6.73569C0 6.90435 0.136431 7.04119 0.304578 7.04119H3.36193C3.56029 7.04119 3.68866 7.08512 3.80042 7.19521C3.91219 7.30529 3.958 7.44769 3.958 7.59665V9.91695C3.958 10.0947 3.87795 10.1972 3.82308 10.2442C3.7682 10.2911 3.69772 10.3149 3.51749 10.3265H2.27149C2.18843 10.3265 2.08976 10.2931 2.03891 10.2507C1.9936 10.2129 1.96339 10.1129 1.96339 10.0235V8.98833C1.96339 8.82118 1.82797 8.68535 1.66133 8.68535H0.30206C0.135424 8.68535 0 8.82118 0 8.98833V10.0235C0 10.1906 0.135424 10.3265 0.30206 10.3265H1.66133C1.74641 10.333 1.81589 10.3805 1.86271 10.4275C1.91003 10.4749 1.96339 10.5527 1.96339 10.6295V11.6646C1.96339 11.8318 2.09882 11.9676 2.26545 11.9676H3.62473C3.79136 11.9676 3.92679 11.8318 3.92679 11.6646V10.7628C3.92679 10.6502 3.94038 10.5259 4.0164 10.4487C4.09242 10.3714 4.1931 10.3245 4.26006 10.3245H10.6345C11.4441 10.3245 12.0245 10.4744 12.3764 10.7744C12.7283 11.0567 12.904 11.5419 12.904 12.2302C12.904 12.9184 12.7283 13.4391 12.3764 13.739C12.0245 14.0213 11.4441 14.1627 10.6345 14.1627H4.26056C4.09393 14.1627 3.9585 14.2985 3.9585 14.4662V17.4303C3.9585 17.5989 4.09493 17.7363 4.26308 17.7363H11.1098C13.045 17.7363 14.4964 17.304 15.464 16.439C16.4316 15.5745 16.9154 14.3652 16.9154 12.8124C16.9154 11.5949 16.5021 10.6153 15.6749 9.87403ZM11.7164 6.64429C11.3998 6.90889 10.8807 7.04119 10.1593 7.04119H4.44532C4.24949 7.04119 4.10802 7.01645 4.0466 6.96949C3.98518 6.92253 3.9585 6.85739 3.9585 6.76498V3.57311H10.1069C10.846 3.57311 11.3826 3.7145 11.7169 3.99678C12.0512 4.26138 12.2183 4.70271 12.2183 5.32028C12.2183 5.93785 12.0512 6.36151 11.7169 6.64379L11.7164 6.64429Z" fill="white"/>
</svg>
