<svg width="98" height="18" viewBox="0 0 98 18" fill="none" xmlns="http://www.w3.org/2000/svg">
<path d="M18.3558 11.1172C18.3558 6.88135 21.3904 4.20792 25.9032 4.20792C30.4161 4.20792 33.4506 6.88135 33.4506 11.1172C33.4506 15.3531 30.4161 18 25.9032 18C21.3904 18 18.3558 15.3 18.3558 11.1172ZM29.5188 11.1172C29.5188 8.78757 28.5686 7.70315 25.9032 7.70315C23.2379 7.70315 22.2876 8.78905 22.2876 11.1172C22.2876 13.4454 23.2114 14.4797 25.9032 14.4797C28.595 14.4797 29.5188 13.4469 29.5188 11.1172Z" fill="white"/>
<path d="M34.5583 11.1172C34.5583 6.88135 37.5928 4.20792 42.1057 4.20792C46.6185 4.20792 49.6531 6.88135 49.6531 11.1172C49.6531 15.3531 46.6185 18 42.1057 18C37.5928 18 34.5583 15.3 34.5583 11.1172ZM45.7212 11.1172C45.7212 8.78757 44.771 7.70315 42.1057 7.70315C39.4403 7.70315 38.4901 8.78905 38.4901 11.1172C38.4901 13.4454 39.4139 14.4797 42.1057 14.4797C44.7975 14.4797 45.7212 13.4469 45.7212 11.1172Z" fill="white"/>
<path d="M51.862 17.7353C51.531 17.7349 51.264 17.4664 51.264 17.1353V4.80437C51.264 4.62162 51.4117 4.47347 51.5939 4.47347H54.6026C54.7848 4.47347 54.9325 4.62162 54.9325 4.80437V8.38313C54.9325 8.44596 54.9833 8.4969 55.0459 8.4969C55.1024 8.4969 55.1501 8.45522 55.1588 8.39927C55.4996 6.21342 56.8287 4.20937 60.1058 4.20937C63.1171 4.20937 64.6735 6.02846 64.9992 8.43054C65.0084 8.49842 65.0658 8.55001 65.1341 8.55001C65.2012 8.55001 65.258 8.50038 65.2684 8.43385C65.6144 6.22859 66.972 4.20937 70.3185 4.20937C73.7237 4.20937 75.3859 6.45937 75.3859 9.47657V17.405C75.3859 17.5877 75.2382 17.7359 75.056 17.7359H71.7575C71.5753 17.7359 71.4276 17.5877 71.4276 17.405V10.8015C71.4276 8.6046 70.6627 7.78428 68.3931 7.78428C65.991 7.78428 65.3055 8.73739 65.3055 11.0405V17.4065C65.3055 17.5892 65.1579 17.7374 64.9756 17.7374H61.6772C61.495 17.7374 61.3473 17.5892 61.3473 17.4065V10.803C61.3473 8.60608 60.5824 7.78575 58.3127 7.78575C55.9107 7.78575 55.2252 8.73886 55.2252 11.042V17.4079C55.2252 17.5907 55.0775 17.7388 54.8953 17.7388C54.6726 17.7388 52.8344 17.7365 51.862 17.7353Z" fill="white"/>
<path d="M77.9891 17.7341C77.6578 17.7341 77.3892 17.4655 77.3892 17.1341V0.330901C77.3892 0.14815 77.5369 0 77.7191 0H92.0231C92.2053 0 92.353 0.148149 92.353 0.330901V3.24253C92.353 3.42528 92.2053 3.57343 92.0231 3.57343H81.6788C81.4966 3.57343 81.3489 3.72158 81.3489 3.90433V7.2394C81.3489 7.42215 81.4966 7.5703 81.6788 7.5703H91.6275C91.8097 7.5703 91.9574 7.71845 91.9574 7.9012V10.7863C91.9574 10.969 91.8097 11.1172 91.6275 11.1172H81.6788C81.4966 11.1172 81.3489 11.2653 81.3489 11.4481V17.4035C81.3489 17.5862 81.2012 17.7344 81.019 17.7344L77.9891 17.7341Z" fill="white"/>
<path d="M94.3716 3.61474C94.1894 3.61474 94.0417 3.46659 94.0417 3.28384V0.330901C94.0417 0.148149 94.1894 0 94.3716 0H97.6701C97.8523 0 98 0.148149 98 0.330901V3.28384C98 3.46659 97.8523 3.61474 97.6701 3.61474H94.3716ZM94.3716 17.7358C94.1894 17.7358 94.0417 17.5877 94.0417 17.4049L94.0417 5.56859C94.0417 5.38584 94.1894 5.23769 94.3716 5.23769H97.6701C97.8523 5.23769 98 5.38584 98 5.56859L98 17.4049C98 17.5877 97.8523 17.7358 97.6701 17.7358H94.3716Z" fill="white"/>
<path d="M15.6749 9.87403C14.8855 9.13393 13.7203 8.69586 12.1783 8.5603C12.1116 8.55442 12.0598 8.49876 12.0598 8.43172C12.0598 8.36438 12.1128 8.30853 12.1799 8.30287C14.8445 8.07838 16.1763 6.74938 16.1763 4.3149C16.1763 2.9207 15.7016 1.85321 14.7511 1.11193C13.8016 0.370642 12.4207 0 10.6084 0H0.604121C0.270344 0 0 0.271165 0 0.605955V6.73569C0 6.90435 0.136431 7.04119 0.304578 7.04119H3.36193C3.56029 7.04119 3.68866 7.08512 3.80042 7.19521C3.91219 7.30529 3.958 7.44769 3.958 7.59665V9.91695C3.958 10.0947 3.87795 10.1972 3.82308 10.2442C3.7682 10.2911 3.69772 10.3149 3.51749 10.3265H2.27149C2.18843 10.3265 2.08976 10.2931 2.03891 10.2507C1.9936 10.2129 1.96339 10.1129 1.96339 10.0235V8.98833C1.96339 8.82118 1.82797 8.68535 1.66133 8.68535H0.30206C0.135424 8.68535 0 8.82118 0 8.98833V10.0235C0 10.1906 0.135424 10.3265 0.30206 10.3265H1.66133C1.74641 10.333 1.81589 10.3805 1.86271 10.4275C1.91003 10.4749 1.96339 10.5527 1.96339 10.6295V11.6646C1.96339 11.8318 2.09882 11.9676 2.26545 11.9676H3.62473C3.79136 11.9676 3.92679 11.8318 3.92679 11.6646V10.7628C3.92679 10.6502 3.94038 10.5259 4.0164 10.4487C4.09242 10.3714 4.1931 10.3245 4.26006 10.3245H10.6345C11.4441 10.3245 12.0245 10.4744 12.3764 10.7744C12.7283 11.0567 12.904 11.5419 12.904 12.2302C12.904 12.9184 12.7283 13.4391 12.3764 13.739C12.0245 14.0213 11.4441 14.1627 10.6345 14.1627H4.26056C4.09393 14.1627 3.9585 14.2985 3.9585 14.4662V17.4303C3.9585 17.5989 4.09493 17.7363 4.26308 17.7363H11.1098C13.045 17.7363 14.4964 17.304 15.464 16.439C16.4316 15.5745 16.9154 14.3652 16.9154 12.8124C16.9154 11.5949 16.5021 10.6153 15.6749 9.87403ZM11.7164 6.64429C11.3998 6.90889 10.8807 7.04119 10.1593 7.04119H4.44532C4.24949 7.04119 4.10802 7.01645 4.0466 6.96949C3.98518 6.92253 3.9585 6.85739 3.9585 6.76498V3.57311H10.1069C10.846 3.57311 11.3826 3.7145 11.7169 3.99678C12.0512 4.26138 12.2183 4.70271 12.2183 5.32028C12.2183 5.93785 12.0512 6.36151 11.7169 6.64379L11.7164 6.64429Z" fill="white"/>
</svg>
