<svg width="408" height="187" viewBox="0 0 408 187" fill="none" xmlns="http://www.w3.org/2000/svg">
<g clip-path="url(#clip0_3_2152)">
<path d="M0 8C0 3.58172 3.58172 0 8 0H400C404.418 0 408 3.58172 408 8V187H0V8Z" fill="#BD3C3C"/>
<path d="M400 0H8C3.58172 0 0 3.58172 0 8V179C0 183.418 3.58172 187 8 187H400C404.418 187 408 183.418 408 179V8C408 3.58172 404.418 0 400 0Z" fill="#E0D0FF"/>
<path d="M428 -8H-8V396.757H428V-8Z" fill="#E0D0FF"/>
<path d="M225.364 54H163.636C153.896 54 146 61.8856 146 71.6131V133.259C146 142.986 153.896 150.872 163.636 150.872H225.364C235.104 150.872 243 142.986 243 133.259V71.6131C243 61.8856 235.104 54 225.364 54Z" fill="white"/>
<path d="M221.215 125.812V120.619C221.215 115.778 217.905 111.712 213.425 110.559M204.337 79.8259C208.143 81.3684 210.828 85.0987 210.828 89.4589C210.828 93.8169 208.143 97.5494 204.337 99.0896M208.232 125.812C208.232 120.973 208.232 118.551 207.441 116.644C206.387 114.098 204.365 112.077 201.82 111.022C199.911 110.232 197.491 110.232 192.651 110.232H184.861C180.022 110.232 177.602 110.232 175.693 111.022C173.148 112.077 171.126 114.098 170.072 116.644C169.281 118.551 169.281 120.973 169.281 125.812M199.143 89.4589C199.143 95.1946 194.493 99.8442 188.756 99.8442C183.02 99.8442 178.37 95.1946 178.37 89.4589C178.37 83.721 183.02 79.0714 188.756 79.0714C194.493 79.0714 199.143 83.721 199.143 89.4589Z" stroke="url(#paint0_linear_3_2152)" stroke-width="4.45146" stroke-linecap="round" stroke-linejoin="round"/>
<path d="M234.626 57.4735C233.231 59.8894 234.058 62.9784 236.475 64.3736C238.891 65.7687 241.98 64.9407 243.375 62.5247C244.77 60.1088 243.942 57.0198 241.526 55.6246C239.109 54.2295 236.021 55.0576 234.626 57.4735Z" stroke="url(#paint1_linear_3_2152)" stroke-width="3.03073" stroke-linecap="round" stroke-linejoin="round"/>
<path d="M229.359 67.5131C229.061 67.1064 228.647 66.7972 228.174 66.6275C227.698 66.457 227.183 66.4326 226.695 66.5585L226.568 66.5916C226.179 66.6955 225.774 66.7224 225.375 66.6699C224.976 66.6175 224.592 66.4871 224.244 66.2861C223.895 66.085 223.59 65.8174 223.345 65.498C223.1 65.1788 222.921 64.8145 222.817 64.4257C222.712 64.0368 222.687 63.6323 222.738 63.2328C222.791 62.8342 222.922 62.4497 223.123 62.1014C223.324 61.753 223.591 61.4473 223.91 61.2023C224.231 60.9581 224.594 60.7778 224.983 60.6741L225.109 60.6412C225.594 60.5044 226.028 60.2258 226.355 59.8413C226.682 59.4567 226.884 58.9819 226.939 58.4811C226.998 57.992 226.911 57.4959 226.692 57.0553C226.472 56.6147 226.127 56.2469 225.703 55.9997L225.477 55.8694C224.774 55.4633 224.261 54.7951 224.05 54.0098C223.84 53.2258 223.951 52.3908 224.357 51.6876C224.763 50.9845 225.431 50.4708 226.214 50.2606C227 50.0512 227.835 50.1609 228.539 50.567L228.658 50.6357C229.103 50.8789 229.61 50.9825 230.114 50.9331C230.619 50.8839 231.096 50.6837 231.486 50.3597C231.894 50.0619 232.202 49.6487 232.372 49.1733C232.543 48.6987 232.567 48.1838 232.441 47.6945L232.409 47.5697C232.304 47.181 232.277 46.7753 232.33 46.3768C232.381 45.9772 232.512 45.5927 232.713 45.2443C232.914 44.8959 233.182 44.5903 233.502 44.3463C233.821 44.1011 234.186 43.9219 234.575 43.8181C234.962 43.7132 235.367 43.6863 235.766 43.7387C236.165 43.7912 236.549 43.9216 236.897 44.1226C237.247 44.3247 237.552 44.5923 237.797 44.9115C238.042 45.2309 238.222 45.5953 238.324 45.9831L238.359 46.1092C238.494 46.5945 238.773 47.0289 239.158 47.3553C239.544 47.6818 240.017 47.8847 240.519 47.9397C241.008 47.998 241.504 47.9119 241.943 47.6915C242.385 47.4724 242.752 47.1283 243 46.7027L243.13 46.4775C243.536 45.7743 244.205 45.2615 244.989 45.0513C245.773 44.8409 246.61 44.9517 247.311 45.3568C248.015 45.7629 248.529 46.4321 248.739 47.2163C248.949 48.0003 248.839 48.8363 248.433 49.5396L248.364 49.6587C248.12 50.1026 248.018 50.611 248.067 51.1154C248.115 51.6189 248.315 52.0969 248.64 52.4869C248.937 52.8936 249.351 53.2028 249.825 53.3723C250.3 53.543 250.816 53.5672 251.306 53.4425L251.43 53.4084C251.819 53.3043 252.224 53.2776 252.623 53.3299C253.022 53.3825 253.407 53.5127 253.755 53.7137C254.103 53.9148 254.408 54.1826 254.653 54.5018C254.898 54.8212 255.077 55.1854 255.182 55.5743C255.286 55.963 255.314 56.3685 255.261 56.7672C255.208 57.1658 255.077 57.5503 254.876 57.8986C254.675 58.247 254.407 58.5527 254.088 58.7977C253.77 59.0427 253.405 59.222 253.016 59.3259L252.889 59.3589C252.405 59.4956 251.971 59.7741 251.644 60.1587C251.319 60.5442 251.115 61.0181 251.059 61.5189L250.998 61.6249C250.941 62.1151 251.026 62.6101 251.246 63.0507C251.465 63.4913 251.81 63.8591 252.234 64.1063L252.46 64.2366C253.163 64.6428 253.676 65.311 253.887 66.0962C254.097 66.8802 253.986 67.7152 253.58 68.4183C253.174 69.1215 252.507 69.6353 251.723 69.8455C250.937 70.0549 250.102 69.9451 249.399 69.539L249.28 69.4703C248.852 69.2256 248.362 69.1115 247.871 69.1419C247.38 69.1724 246.907 69.3451 246.513 69.6403C246.105 69.9381 245.797 70.3512 245.627 70.8267C245.456 71.3011 245.431 71.8162 245.557 72.3055L245.592 72.4313C245.695 72.819 245.722 73.2245 245.669 73.6232C245.618 74.0228 245.487 74.4073 245.286 74.7557C245.085 75.1041 244.817 75.4097 244.497 75.6537C244.178 75.8987 243.813 76.0779 243.426 76.1827C243.037 76.2868 242.632 76.3137 242.233 76.2612C241.834 76.2088 241.449 76.0784 241.101 75.8774C240.751 75.6753 240.446 75.4077 240.201 75.0883C239.956 74.7691 239.777 74.4047 239.674 74.0168L239.64 73.8908C239.505 73.4053 239.226 72.9711 238.84 72.6445C238.455 72.3181 237.982 72.1151 237.479 72.0603L237.374 71.9997C236.885 71.9414 236.39 72.0275 235.949 72.2467C235.507 72.466 235.14 72.8101 234.892 73.2355L234.762 73.4609C234.356 74.1641 233.689 74.6777 232.903 74.887C232.119 75.0972 231.284 74.9877 230.581 74.5816C229.877 74.1755 229.365 73.5071 229.155 72.7231C228.945 71.9389 229.054 71.1031 229.46 70.3998L229.529 70.2805C229.774 69.853 229.888 69.3635 229.857 68.8714C229.827 68.3794 229.653 67.9074 229.359 67.5131Z" stroke="url(#paint2_linear_3_2152)" stroke-width="3.03073" stroke-linecap="round" stroke-linejoin="round"/>
</g>
<defs>
<linearGradient id="paint0_linear_3_2152" x1="178.184" y1="81.2972" x2="214.909" y2="125.812" gradientUnits="userSpaceOnUse">
<stop stop-color="#01C3FF"/>
<stop offset="1" stop-color="#5D1CF1"/>
</linearGradient>
<linearGradient id="paint1_linear_3_2152" x1="243.375" y1="62.5247" x2="234.626" y2="57.4735" gradientUnits="userSpaceOnUse">
<stop stop-color="#5F00E7"/>
<stop offset="1" stop-color="#00D2FF"/>
</linearGradient>
<linearGradient id="paint2_linear_3_2152" x1="253.58" y1="68.4184" x2="224.418" y2="51.5816" gradientUnits="userSpaceOnUse">
<stop stop-color="#5F00E7"/>
<stop offset="1" stop-color="#00D2FF"/>
</linearGradient>
<clipPath id="clip0_3_2152">
<path d="M0 8C0 3.58172 3.58172 0 8 0H400C404.418 0 408 3.58172 408 8V187H0V8Z" fill="white"/>
</clipPath>
</defs>
</svg>
