<svg width="408" height="187" viewBox="0 0 408 187" fill="none" xmlns="http://www.w3.org/2000/svg">
<g clip-path="url(#clip0_3_2120)">
<path d="M0 8C0 3.58172 3.58172 0 8 0H400C404.418 0 408 3.58172 408 8V187H0V8Z" fill="#BD3C3C"/>
<path d="M400 0H8C3.58172 0 0 3.58172 0 8V179C0 183.418 3.58172 187 8 187H400C404.418 187 408 183.418 408 179V8C408 3.58172 404.418 0 400 0Z" fill="#D4B6FF"/>
<path d="M428 -8H-8V396.757H428V-8Z" fill="#D4B6FF"/>
<path d="M357.403 46H62.7006C60.6568 46 59 48.2859 59 51.1058V88.2388C59 91.0587 60.6568 93.3446 62.7006 93.3446H357.403C359.447 93.3446 361.104 91.0587 361.104 88.2388V51.1058C361.104 48.2859 359.447 46 357.403 46Z" fill="white" stroke="#E7E7E7"/>
<path d="M74.0641 72.0851C73.7247 71.5272 73.542 70.7863 73.542 69.9233C73.542 69.0603 73.7247 68.3194 74.0641 67.7615C74.4905 67.0641 75.1345 66.698 75.9264 66.698C76.7183 66.698 77.3622 67.0729 77.7799 67.7615C78.1193 68.3194 78.302 69.0603 78.302 69.9233C78.302 70.7863 78.1193 71.5272 77.7799 72.0851C77.3622 72.7737 76.7183 73.1485 75.9264 73.1485C75.1345 73.1485 74.4905 72.7824 74.0641 72.0851ZM75.9264 67.4302C74.9517 67.4302 74.3774 68.3804 74.3774 69.9233C74.3774 71.4662 74.9517 72.4163 75.9264 72.4163C76.8923 72.4163 77.4753 71.4574 77.4753 69.9233C77.4753 68.3891 76.8923 67.4302 75.9264 67.4302ZM82.9756 73.0526H82.088L80.8262 71.257L79.5731 73.0526H78.7203L80.3824 70.6729L78.8595 68.4937H79.7558L80.8523 70.0889L81.9661 68.4937H82.8277L81.3048 70.6729L82.9756 73.0526ZM83.7397 73.0526V66.7939H87.821V67.5261H84.5664V69.4526H87.325V70.1848H84.5664V72.3204H87.821V73.0526H83.7397ZM92.2389 72.6778C91.856 72.9829 91.3426 73.1485 90.7596 73.1485C89.5065 73.1485 88.6014 72.4337 88.4187 71.2482L89.228 71.0739C89.3411 71.9194 89.9416 72.4512 90.7509 72.4512C91.5602 72.4512 92.091 71.9805 92.091 71.257C92.091 70.5683 91.5602 70.1499 90.6987 70.1499H90.0286V69.4438H90.7073C91.447 69.4438 91.9169 69.069 91.9169 68.4501C91.9169 67.8138 91.4818 67.4041 90.7596 67.4041C90.0199 67.4041 89.489 67.8835 89.3498 68.6855L88.6014 68.5373C88.6885 67.9881 88.9321 67.5436 89.3237 67.2036C89.7153 66.8637 90.2026 66.698 90.777 66.698C91.9517 66.698 92.7001 67.3692 92.7001 68.4065C92.7001 69.0429 92.2998 69.6007 91.7342 69.7838C92.4652 69.993 92.9003 70.5335 92.9003 71.3005C92.9003 71.8497 92.6653 72.3379 92.2389 72.6778ZM97.2018 72.6778C96.8189 72.9829 96.3055 73.1485 95.7225 73.1485C94.4694 73.1485 93.5643 72.4337 93.3816 71.2482L94.1909 71.0739C94.304 71.9194 94.9045 72.4512 95.7138 72.4512C96.523 72.4512 97.0539 71.9805 97.0539 71.257C97.0539 70.5683 96.523 70.1499 95.6615 70.1499H94.9915V69.4438H95.6702C96.4099 69.4438 96.8798 69.069 96.8798 68.4501C96.8798 67.8138 96.4447 67.4041 95.7225 67.4041C94.9828 67.4041 94.4519 67.8835 94.3127 68.6855L93.5643 68.5373C93.6514 67.9881 93.895 67.5436 94.2866 67.2036C94.6782 66.8637 95.1655 66.698 95.7398 66.698C96.9146 66.698 97.663 67.3692 97.663 68.4065C97.663 69.0429 97.2627 69.6007 96.6971 69.7838C97.4281 69.993 97.8631 70.5335 97.8631 71.3005C97.8631 71.8497 97.6282 72.3379 97.2018 72.6778ZM99.7803 68.2322C99.4758 68.6768 99.3104 69.2608 99.3104 69.9233C99.3104 70.5858 99.4758 71.1698 99.7803 71.6143C100.137 72.1286 100.668 72.4076 101.286 72.4076C102.086 72.4076 102.669 71.9456 102.904 71.1436L103.696 71.4051C103.322 72.5122 102.443 73.1485 101.286 73.1485C100.45 73.1485 99.7107 72.7911 99.1973 72.1635C98.7187 71.5795 98.475 70.795 98.475 69.9233C98.475 69.0516 98.7187 68.2671 99.1973 67.683C99.7107 67.0554 100.45 66.698 101.286 66.698C102.443 66.698 103.322 67.3344 103.696 68.4414L102.904 68.7029C102.669 67.901 102.086 67.439 101.286 67.439C100.668 67.439 100.137 67.7179 99.7803 68.2322ZM107.901 72.6778C107.518 72.9829 107.005 73.1485 106.422 73.1485C105.169 73.1485 104.264 72.4337 104.081 71.2482L104.89 71.0739C105.003 71.9194 105.604 72.4512 106.413 72.4512C107.222 72.4512 107.753 71.9805 107.753 71.257C107.753 70.5683 107.222 70.1499 106.361 70.1499H105.691V69.4438H106.369C107.109 69.4438 107.579 69.069 107.579 68.4501C107.579 67.8138 107.144 67.4041 106.422 67.4041C105.682 67.4041 105.151 67.8835 105.012 68.6855L104.264 68.5373C104.351 67.9881 104.594 67.5436 104.986 67.2036C105.377 66.8637 105.865 66.698 106.439 66.698C107.614 66.698 108.362 67.3692 108.362 68.4065C108.362 69.0429 107.962 69.6007 107.396 69.7838C108.127 69.993 108.562 70.5335 108.562 71.3005C108.562 71.8497 108.327 72.3379 107.901 72.6778ZM111.402 69.6095C110.923 69.6095 110.506 69.8187 110.271 70.1412L109.505 70.0104L109.775 66.7939H113.177V67.5261H110.419L110.253 69.4177C110.567 69.1039 111.01 68.9296 111.498 68.9296C112.089 68.9296 112.594 69.1388 112.968 69.531C113.316 69.9146 113.517 70.4376 113.517 71.0216C113.517 71.6056 113.29 72.1548 112.881 72.547C112.472 72.9306 111.924 73.1485 111.332 73.1485C110.14 73.1485 109.296 72.4599 109.087 71.3005L109.888 71.1349C110.018 71.9456 110.567 72.4512 111.332 72.4512C111.724 72.4512 112.055 72.3204 112.324 72.0502C112.594 71.78 112.733 71.44 112.733 71.039C112.733 70.6293 112.603 70.2894 112.35 70.0192C112.098 69.7489 111.785 69.6095 111.402 69.6095ZM116.618 66.698C117.618 66.698 118.306 67.2036 118.593 68.145L117.906 68.4327C117.705 67.7615 117.253 67.3954 116.592 67.3954C116.061 67.3954 115.573 67.6917 115.269 68.2235C115.017 68.6419 114.886 69.1911 114.886 69.81V69.8971C115.199 69.2957 115.843 68.9121 116.574 68.9121C117.14 68.9121 117.653 69.13 118.036 69.5223C118.41 69.9058 118.61 70.4289 118.61 70.9954C118.61 71.5882 118.393 72.1374 117.984 72.5296C117.592 72.9219 117.035 73.1485 116.444 73.1485C115.713 73.1485 115.138 72.8609 114.729 72.2943C114.32 71.7277 114.12 70.9519 114.12 69.9843C114.12 69.1213 114.32 68.363 114.695 67.7789C115.147 67.0816 115.826 66.698 116.618 66.698ZM116.444 72.4599C116.844 72.4599 117.175 72.3204 117.444 72.0502C117.714 71.78 117.845 71.44 117.845 71.039C117.845 70.6293 117.714 70.2894 117.444 70.0192C117.175 69.7402 116.844 69.6007 116.452 69.6007C116.061 69.6007 115.721 69.7402 115.452 70.0192C115.182 70.2981 115.043 70.638 115.043 71.039C115.043 71.44 115.173 71.78 115.443 72.0502C115.713 72.3204 116.043 72.4599 116.444 72.4599ZM121.403 69.0865C120.576 69.0865 120.037 69.7577 120.037 70.7775C120.037 71.7974 120.576 72.4599 121.403 72.4599C121.986 72.4599 122.395 72.1112 122.534 71.4923L123.23 71.8148C122.995 72.6255 122.299 73.1485 121.403 73.1485C120.767 73.1485 120.202 72.9044 119.819 72.4512C119.445 72.024 119.253 71.44 119.253 70.7775C119.253 70.115 119.445 69.531 119.819 69.1039C120.202 68.6506 120.767 68.4065 121.403 68.4065C122.299 68.4065 122.978 68.9121 123.213 69.7141L122.534 70.054C122.395 69.4351 121.986 69.0865 121.403 69.0865ZM123.731 73.0526V72.364L125.576 70.8298C126.098 70.4027 126.359 70.1586 126.568 69.9146C126.925 69.4961 127.09 69.1126 127.09 68.7029C127.09 67.9271 126.585 67.4128 125.828 67.4128C125.463 67.4128 125.158 67.5348 124.923 67.7876C124.688 68.0317 124.566 68.3368 124.566 68.7029C124.566 68.9208 124.61 69.1475 124.706 69.3828H123.923C123.818 69.1039 123.783 68.8947 123.783 68.6593C123.783 68.1102 124.01 67.6046 124.401 67.2472C124.784 66.8985 125.289 66.698 125.846 66.698C126.464 66.698 126.968 66.8811 127.342 67.2385C127.717 67.5959 127.908 68.0666 127.908 68.6506C127.908 69.0777 127.786 69.4787 127.551 69.8623C127.316 70.2371 126.89 70.6729 126.281 71.1698L124.871 72.3204H128.03V73.0526H123.731ZM130.593 73.1485C129.592 73.1485 128.905 72.6429 128.618 71.7015L129.305 71.4139C129.505 72.0851 129.958 72.4512 130.619 72.4512C131.15 72.4512 131.637 72.1548 131.942 71.6231C132.194 71.2047 132.325 70.6555 132.325 70.0366V69.9494C132.012 70.5509 131.368 70.9344 130.637 70.9344C130.071 70.9344 129.558 70.7165 129.175 70.3243C128.801 69.9407 128.6 69.4177 128.6 68.8511C128.6 68.2583 128.818 67.7092 129.227 67.3169C129.619 66.9247 130.176 66.698 130.767 66.698C131.498 66.698 132.064 66.9857 132.473 67.5523C132.882 68.1189 133.091 68.8947 133.091 69.8623C133.091 70.7252 132.891 71.4836 132.516 72.0676C132.064 72.765 131.385 73.1485 130.593 73.1485ZM130.767 67.3867C130.367 67.3867 130.036 67.5261 129.766 67.7964C129.497 68.0666 129.366 68.4065 129.366 68.8075C129.366 69.2172 129.497 69.5572 129.766 69.8361C130.036 70.1063 130.367 70.2458 130.759 70.2458C131.15 70.2458 131.489 70.1063 131.759 69.8274C132.029 69.5484 132.168 69.2085 132.168 68.8075C132.168 68.4065 132.038 68.0666 131.768 67.7964C131.498 67.5261 131.168 67.3867 130.767 67.3867ZM136.248 66.698C137.249 66.698 137.937 67.2036 138.224 68.145L137.536 68.4327C137.336 67.7615 136.884 67.3954 136.222 67.3954C135.691 67.3954 135.204 67.6917 134.9 68.2235C134.647 68.6419 134.517 69.1911 134.517 69.81V69.8971C134.83 69.2957 135.474 68.9121 136.205 68.9121C136.771 68.9121 137.284 69.13 137.667 69.5223C138.041 69.9058 138.241 70.4289 138.241 70.9954C138.241 71.5882 138.024 72.1374 137.615 72.5296C137.223 72.9219 136.666 73.1485 136.074 73.1485C135.343 73.1485 134.769 72.8609 134.36 72.2943C133.951 71.7277 133.751 70.9519 133.751 69.9843C133.751 69.1213 133.951 68.363 134.325 67.7789C134.778 67.0816 135.457 66.698 136.248 66.698ZM136.074 72.4599C136.475 72.4599 136.805 72.3204 137.075 72.0502C137.345 71.78 137.475 71.44 137.475 71.039C137.475 70.6293 137.345 70.2894 137.075 70.0192C136.805 69.7402 136.475 69.6007 136.083 69.6007C135.692 69.6007 135.352 69.7402 135.082 70.0192C134.813 70.2981 134.673 70.638 134.673 71.039C134.673 71.44 134.804 71.78 135.074 72.0502C135.343 72.3204 135.674 72.4599 136.074 72.4599ZM139.163 68.3717C139.163 67.8748 139.345 67.4738 139.719 67.1687C140.094 66.8549 140.564 66.698 141.147 66.698C141.73 66.698 142.2 66.8549 142.574 67.1687C142.948 67.4738 143.139 67.8748 143.139 68.3717C143.139 68.9993 142.783 69.4874 142.156 69.7315C142.957 69.9756 143.461 70.5858 143.461 71.3267C143.461 71.8671 143.244 72.303 142.817 72.6429C142.391 72.9742 141.834 73.1398 141.147 73.1398C140.468 73.1398 139.911 72.9742 139.485 72.6429C139.058 72.303 138.841 71.8671 138.841 71.3267C138.841 70.5858 139.345 69.9756 140.137 69.7315C139.511 69.4874 139.163 68.9993 139.163 68.3717ZM139.911 68.3804C139.911 68.9993 140.407 69.4003 141.147 69.4003C141.886 69.4003 142.382 68.9993 142.382 68.3804C142.382 67.7615 141.886 67.3605 141.147 67.3605C140.416 67.3605 139.911 67.7789 139.911 68.3804ZM142.652 71.2744C142.652 70.577 142.026 70.0889 141.147 70.0889C140.268 70.0889 139.659 70.577 139.659 71.2744C139.659 71.9805 140.268 72.4773 141.147 72.4773C142.026 72.4773 142.652 71.9805 142.652 71.2744ZM147.265 67.5174H144.419V68.5896H143.688V66.7939H148.152V67.5174C147.447 68.3106 146.934 69.1213 146.629 69.9581C146.325 70.795 146.177 71.8236 146.177 73.0526H145.333C145.333 70.7252 145.942 68.9906 147.265 67.5174ZM150.453 73.1485C149.453 73.1485 148.765 72.6429 148.478 71.7015L149.166 71.4139C149.366 72.0851 149.818 72.4512 150.48 72.4512C151.01 72.4512 151.498 72.1548 151.802 71.6231C152.055 71.2047 152.185 70.6555 152.185 70.0366V69.9494C151.872 70.5509 151.228 70.9344 150.497 70.9344C149.931 70.9344 149.418 70.7165 149.035 70.3243C148.661 69.9407 148.461 69.4177 148.461 68.8511C148.461 68.2583 148.678 67.7092 149.087 67.3169C149.479 66.9247 150.036 66.698 150.627 66.698C151.358 66.698 151.924 66.9857 152.333 67.5523C152.742 68.1189 152.951 68.8947 152.951 69.8623C152.951 70.7252 152.751 71.4836 152.377 72.0676C151.924 72.765 151.245 73.1485 150.453 73.1485ZM150.627 67.3867C150.227 67.3867 149.897 67.5261 149.627 67.7964C149.357 68.0666 149.226 68.4065 149.226 68.8075C149.226 69.2172 149.357 69.5572 149.627 69.8361C149.897 70.1063 150.227 70.2458 150.619 70.2458C151.01 70.2458 151.35 70.1063 151.62 69.8274C151.889 69.5484 152.029 69.2085 152.029 68.8075C152.029 68.4065 151.898 68.0666 151.628 67.7964C151.358 67.5261 151.028 67.3867 150.627 67.3867ZM155.604 73.1485C154.986 73.1485 154.473 72.8957 154.116 72.4163C153.794 71.9892 153.62 71.4051 153.62 70.7775C153.62 70.1412 153.794 69.5659 154.107 69.1388C154.464 68.6593 154.986 68.4065 155.604 68.4065C156.204 68.4065 156.727 68.6942 157.014 69.1562V66.7939H157.797V73.0526H157.014V72.3901C156.735 72.8696 156.204 73.1485 155.604 73.1485ZM157.031 70.9431V70.6206C157.031 69.6792 156.5 69.0952 155.743 69.0952C154.917 69.0952 154.412 69.7577 154.412 70.7775C154.412 71.7974 154.934 72.4599 155.743 72.4599C156.5 72.4599 157.031 71.8758 157.031 70.9431ZM160.91 73.1485C160.275 73.1485 159.718 72.9044 159.335 72.4425C158.978 72.024 158.778 71.44 158.778 70.7775C158.778 70.1412 158.97 69.5484 159.326 69.1213C159.709 68.6593 160.257 68.4065 160.875 68.4065C161.476 68.4065 161.946 68.607 162.294 69.0167C162.642 69.4264 162.816 69.9669 162.816 70.6381V70.8996H159.526C159.57 71.8497 160.109 72.4686 160.91 72.4686C161.51 72.4686 161.954 72.1461 162.094 71.5969L162.781 71.841C162.503 72.6691 161.806 73.1485 160.91 73.1485ZM160.867 69.0777C160.196 69.0777 159.709 69.531 159.57 70.2981H162.024C161.998 69.5572 161.571 69.0777 160.867 69.0777ZM165.688 69.6095C165.209 69.6095 164.792 69.8187 164.557 70.1412L163.791 70.0104L164.061 66.7939H167.463V67.5261H164.705L164.539 69.4177C164.853 69.1039 165.296 68.9296 165.784 68.9296C166.375 68.9296 166.88 69.1388 167.254 69.531C167.602 69.9146 167.803 70.4376 167.803 71.0216C167.803 71.6056 167.576 72.1548 167.167 72.547C166.758 72.9306 166.21 73.1485 165.618 73.1485C164.426 73.1485 163.582 72.4599 163.373 71.3005L164.174 71.1349C164.304 71.9456 164.853 72.4512 165.618 72.4512C166.01 72.4512 166.341 72.3204 166.61 72.0502C166.88 71.78 167.019 71.44 167.019 71.039C167.019 70.6293 166.889 70.2894 166.637 70.0192C166.384 69.7489 166.071 69.6095 165.688 69.6095ZM170.573 73.1485C169.937 73.1485 169.38 72.9044 168.998 72.4425C168.641 72.024 168.441 71.44 168.441 70.7775C168.441 70.1412 168.632 69.5484 168.989 69.1213C169.372 68.6593 169.92 68.4065 170.538 68.4065C171.138 68.4065 171.608 68.607 171.956 69.0167C172.304 69.4264 172.478 69.9669 172.478 70.6381V70.8996H169.189C169.232 71.8497 169.772 72.4686 170.573 72.4686C171.173 72.4686 171.617 72.1461 171.756 71.5969L172.444 71.841C172.165 72.6691 171.469 73.1485 170.573 73.1485ZM170.529 69.0777C169.859 69.0777 169.372 69.531 169.232 70.2981H171.686C171.66 69.5572 171.234 69.0777 170.529 69.0777ZM176.725 71.4226V73.0526H175.95V71.4226H172.931V70.7688L175.672 66.7939H176.734V70.7252H177.943V71.4226H176.725ZM175.942 67.5959L173.784 70.7252H175.942V67.5959ZM180.707 73.0526H178.723V66.7939H180.707C181.638 66.7939 182.412 67.0903 182.969 67.6394C183.517 68.1973 183.805 68.9819 183.805 69.9233C183.805 70.8647 183.517 71.6492 182.969 72.2071C182.412 72.7563 181.638 73.0526 180.707 73.0526ZM179.541 67.5174V72.3291H180.707C181.412 72.3291 181.96 72.1112 182.369 71.6841C182.778 71.2482 182.987 70.6642 182.987 69.9233C182.987 69.1823 182.778 68.5983 182.369 68.1712C181.96 67.7353 181.403 67.5174 180.698 67.5174H179.541ZM186.965 66.698C187.966 66.698 188.653 67.2036 188.94 68.145L188.253 68.4327C188.053 67.7615 187.6 67.3954 186.939 67.3954C186.408 67.3954 185.921 67.6917 185.616 68.2235C185.364 68.6419 185.233 69.1911 185.233 69.81V69.8971C185.547 69.2957 186.191 68.9121 186.922 68.9121C187.487 68.9121 188.001 69.13 188.384 69.5223C188.758 69.9058 188.958 70.4289 188.958 70.9954C188.958 71.5882 188.74 72.1374 188.331 72.5296C187.94 72.9219 187.383 73.1485 186.791 73.1485C186.06 73.1485 185.486 72.8609 185.077 72.2943C184.668 71.7277 184.468 70.9519 184.468 69.9843C184.468 69.1213 184.668 68.363 185.042 67.7789C185.494 67.0816 186.173 66.698 186.965 66.698ZM186.791 72.4599C187.191 72.4599 187.522 72.3204 187.792 72.0502C188.062 71.78 188.192 71.44 188.192 71.039C188.192 70.6293 188.062 70.2894 187.792 70.0192C187.522 69.7402 187.191 69.6007 186.8 69.6007C186.408 69.6007 186.069 69.7402 185.799 70.0192C185.529 70.2981 185.39 70.638 185.39 71.039C185.39 71.44 185.521 71.78 185.79 72.0502C186.06 72.3204 186.391 72.4599 186.791 72.4599ZM191.15 66.759H191.777V73.0526H190.941V68.4501H189.436V67.8312L190.106 67.7876C190.837 67.7441 191.089 67.4913 191.15 66.759ZM196.171 67.5174H193.326V68.5896H192.595V66.7939H197.059V67.5174C196.354 68.3106 195.841 69.1213 195.536 69.9581C195.231 70.795 195.084 71.8236 195.084 73.0526H194.239C194.239 70.7252 194.849 68.9906 196.171 67.5174ZM199.358 73.1485C198.359 73.1485 197.672 72.6429 197.385 71.7015L198.072 71.4139C198.272 72.0851 198.725 72.4512 199.386 72.4512C199.919 72.4512 200.403 72.1548 200.707 71.6231C200.963 71.2047 201.093 70.6555 201.093 70.0366V69.9494C200.778 70.5509 200.136 70.9344 199.402 70.9344C198.838 70.9344 198.325 70.7165 197.942 70.3243C197.567 69.9407 197.367 69.4177 197.367 68.8511C197.367 68.2583 197.585 67.7092 197.994 67.3169C198.385 66.9247 198.94 66.698 199.532 66.698C200.267 66.698 200.832 66.9857 201.24 67.5523C201.648 68.1189 201.855 68.8947 201.855 69.8623C201.855 70.7252 201.659 71.4836 201.284 72.0676C200.832 72.765 200.152 73.1485 199.358 73.1485ZM199.532 67.3867C199.135 67.3867 198.803 67.5261 198.533 67.7964C198.264 68.0666 198.133 68.4065 198.133 68.8075C198.133 69.2172 198.264 69.5572 198.533 69.8361C198.803 70.1063 199.135 70.2458 199.527 70.2458C199.919 70.2458 200.256 70.1063 200.528 69.8274C200.794 69.5484 200.936 69.2085 200.936 68.8075C200.936 68.4065 200.805 68.0666 200.533 67.7964C200.267 67.5261 199.935 67.3867 199.532 67.3867ZM204.65 69.6095C204.172 69.6095 203.753 69.8187 203.519 70.1412L202.752 70.0104L203.024 66.7939H206.429V67.5261H203.666L203.503 69.4177C203.818 69.1039 204.259 68.9296 204.748 68.9296C205.341 68.9296 205.841 69.1388 206.217 69.531C206.565 69.9146 206.766 70.4376 206.766 71.0216C206.766 71.6056 206.538 72.1548 206.13 72.547C205.722 72.9306 205.172 73.1485 204.58 73.1485C203.389 73.1485 202.546 72.4599 202.339 71.3005L203.138 71.1349C203.269 71.9456 203.818 72.4512 204.58 72.4512C204.971 72.4512 205.303 72.3204 205.575 72.0502C205.841 71.78 205.983 71.44 205.983 71.039C205.983 70.6293 205.852 70.2894 205.602 70.0192C205.347 69.7489 205.037 69.6095 204.65 69.6095ZM209.534 73.1485C208.903 73.1485 208.343 72.9044 207.963 72.4425C207.604 72.024 207.402 71.44 207.402 70.7775C207.402 70.1412 207.598 69.5484 207.952 69.1213C208.338 68.6593 208.882 68.4065 209.502 68.4065C210.1 68.4065 210.573 68.607 210.921 69.0167C211.269 69.4264 211.443 69.9669 211.443 70.6381V70.8996H208.153C208.196 71.8497 208.735 72.4686 209.534 72.4686C210.138 72.4686 210.579 72.1461 210.72 71.5969L211.405 71.841C211.128 72.6691 210.432 73.1485 209.534 73.1485ZM209.491 69.0777C208.822 69.0777 208.338 69.531 208.196 70.2981H210.649C210.622 69.5572 210.198 69.0777 209.491 69.0777ZM214.255 69.0865C213.429 69.0865 212.885 69.7577 212.885 70.7775C212.885 71.7974 213.429 72.4599 214.255 72.4599C214.837 72.4599 215.245 72.1112 215.387 71.4923L216.083 71.8148C215.843 72.6255 215.147 73.1485 214.255 73.1485C213.619 73.1485 213.053 72.9044 212.667 72.4512C212.297 72.024 212.101 71.44 212.101 70.7775C212.101 70.115 212.297 69.531 212.667 69.1039C213.053 68.6506 213.619 68.4065 214.255 68.4065C215.147 68.4065 215.827 68.9121 216.061 69.7141L215.387 70.054C215.245 69.4351 214.837 69.0865 214.255 69.0865ZM220.619 72.4163C220.26 72.8957 219.748 73.1485 219.128 73.1485C218.53 73.1485 217.997 72.8696 217.72 72.3901V73.0526H216.937V66.7939H217.72V69.1562C218.008 68.6942 218.53 68.4065 219.128 68.4065C219.748 68.4065 220.271 68.6593 220.63 69.1388C220.94 69.5659 221.114 70.1412 221.114 70.7775C221.114 71.4051 220.94 71.9892 220.619 72.4163ZM218.992 69.0952C218.236 69.0952 217.703 69.6792 217.703 70.6206V70.9431C217.703 71.8758 218.236 72.4599 218.992 72.4599C219.803 72.4599 220.325 71.7974 220.325 70.7775C220.325 69.7577 219.819 69.0952 218.992 69.0952ZM224.002 69.6095C223.523 69.6095 223.104 69.8187 222.87 70.1412L222.103 70.0104L222.375 66.7939H225.775V67.5261H223.017L222.854 69.4177C223.164 69.1039 223.61 68.9296 224.099 68.9296C224.687 68.9296 225.193 69.1388 225.568 69.531C225.916 69.9146 226.117 70.4376 226.117 71.0216C226.117 71.6056 225.889 72.1548 225.481 72.547C225.073 72.9306 224.524 73.1485 223.931 73.1485C222.74 73.1485 221.897 72.4599 221.685 71.3005L222.49 71.1349C222.62 71.9456 223.164 72.4512 223.931 72.4512C224.322 72.4512 224.654 72.3204 224.926 72.0502C225.193 71.78 225.334 71.44 225.334 71.039C225.334 70.6293 225.204 70.2894 224.948 70.0192C224.698 69.7489 224.382 69.6095 224.002 69.6095ZM227.227 72.0851C226.884 71.5272 226.705 70.7863 226.705 69.9233C226.705 69.0603 226.884 68.3194 227.227 67.7615C227.651 67.0641 228.298 66.698 229.087 66.698C229.881 66.698 230.523 67.0729 230.941 67.7615C231.279 68.3194 231.464 69.0603 231.464 69.9233C231.464 70.7863 231.279 71.5272 230.941 72.0851C230.523 72.7737 229.881 73.1485 229.087 73.1485C228.298 73.1485 227.651 72.7824 227.227 72.0851ZM229.087 67.4302C228.113 67.4302 227.537 68.3804 227.537 69.9233C227.537 71.4662 228.113 72.4163 229.087 72.4163C230.055 72.4163 230.637 71.4574 230.637 69.9233C230.637 68.3891 230.055 67.4302 229.087 67.4302ZM234.466 73.0526H232.481V66.7939H234.466C235.396 66.7939 236.174 67.0903 236.728 67.6394C237.278 68.1973 237.566 68.9819 237.566 69.9233C237.566 70.8647 237.278 71.6492 236.728 72.2071C236.174 72.7563 235.396 73.0526 234.466 73.0526ZM233.302 67.5174V72.3291H234.466C235.173 72.3291 235.717 72.1112 236.13 71.6841C236.538 71.2482 236.745 70.6642 236.745 69.9233C236.745 69.1823 236.538 68.5983 236.13 68.1712C235.717 67.7353 235.162 67.5174 234.455 67.5174H233.302ZM238.512 68.3717C238.512 67.8748 238.697 67.4738 239.072 67.1687C239.442 66.8549 239.915 66.698 240.497 66.698C241.079 66.698 241.552 66.8549 241.922 67.1687C242.298 67.4738 242.488 67.8748 242.488 68.3717C242.488 68.9993 242.134 69.4874 241.509 69.7315C242.308 69.9756 242.814 70.5858 242.814 71.3267C242.814 71.8671 242.597 72.303 242.167 72.6429C241.743 72.9742 241.183 73.1398 240.497 73.1398C239.817 73.1398 239.263 72.9742 238.833 72.6429C238.409 72.303 238.191 71.8671 238.191 71.3267C238.191 70.5858 238.697 69.9756 239.486 69.7315C238.86 69.4874 238.512 68.9993 238.512 68.3717ZM239.263 68.3804C239.263 68.9993 239.758 69.4003 240.497 69.4003C241.237 69.4003 241.732 68.9993 241.732 68.3804C241.732 67.7615 241.237 67.3605 240.497 67.3605C239.769 67.3605 239.263 67.7789 239.263 68.3804ZM242.004 71.2744C242.004 70.577 241.378 70.0889 240.497 70.0889C239.616 70.0889 239.007 70.577 239.007 71.2744C239.007 71.9805 239.616 72.4773 240.497 72.4773C241.378 72.4773 242.004 71.9805 242.004 71.2744ZM245.561 69.6095C245.082 69.6095 244.664 69.8187 244.43 70.1412L243.663 70.0104L243.935 66.7939H247.339V67.5261H244.576L244.413 69.4177C244.729 69.1039 245.169 68.9296 245.659 68.9296C246.252 68.9296 246.752 69.1388 247.127 69.531C247.475 69.9146 247.677 70.4376 247.677 71.0216C247.677 71.6056 247.448 72.1548 247.04 72.547C246.632 72.9306 246.083 73.1485 245.49 73.1485C244.299 73.1485 243.456 72.4599 243.249 71.3005L244.049 71.1349C244.179 71.9456 244.729 72.4512 245.49 72.4512C245.882 72.4512 246.214 72.3204 246.485 72.0502C246.752 71.78 246.893 71.44 246.893 71.039C246.893 70.6293 246.763 70.2894 246.513 70.0192C246.257 69.7489 245.947 69.6095 245.561 69.6095ZM248.59 68.3717C248.59 67.8748 248.775 67.4738 249.15 67.1687C249.526 66.8549 249.993 66.698 250.575 66.698C251.157 66.698 251.631 66.8549 252.006 67.1687C252.376 67.4738 252.571 67.8748 252.571 68.3717C252.571 68.9993 252.212 69.4874 251.587 69.7315C252.387 69.9756 252.892 70.5858 252.892 71.3267C252.892 71.8671 252.675 72.303 252.245 72.6429C251.821 72.9742 251.266 73.1398 250.575 73.1398C249.896 73.1398 249.341 72.9742 248.917 72.6429C248.487 72.303 248.269 71.8671 248.269 71.3267C248.269 70.5858 248.775 69.9756 249.569 69.7315C248.938 69.4874 248.59 68.9993 248.59 68.3717ZM249.341 68.3804C249.341 68.9993 249.836 69.4003 250.575 69.4003C251.315 69.4003 251.81 68.9993 251.81 68.3804C251.81 67.7615 251.315 67.3605 250.575 67.3605C249.847 67.3605 249.341 67.7789 249.341 68.3804ZM252.082 71.2744C252.082 70.577 251.457 70.0889 250.575 70.0889C249.7 70.0889 249.091 70.577 249.091 71.2744C249.091 71.9805 249.7 72.4773 250.575 72.4773C251.457 72.4773 252.082 71.9805 252.082 71.2744ZM257.102 71.4226V73.0526H256.324V71.4226H253.306V70.7688L256.047 66.7939H257.107V70.7252H258.32V71.4226H257.102ZM256.319 67.5959L254.16 70.7252H256.319V67.5959ZM260.637 73.1485C259.636 73.1485 258.951 72.6429 258.663 71.7015L259.354 71.4139C259.549 72.0851 260.006 72.4512 260.664 72.4512C261.197 72.4512 261.681 72.1548 261.986 71.6231C262.242 71.2047 262.372 70.6555 262.372 70.0366V69.9494C262.057 70.5509 261.415 70.9344 260.681 70.9344C260.115 70.9344 259.604 70.7165 259.223 70.3243C258.848 69.9407 258.647 69.4177 258.647 68.8511C258.647 68.2583 258.864 67.7092 259.272 67.3169C259.664 66.9247 260.224 66.698 260.811 66.698C261.545 66.698 262.111 66.9857 262.519 67.5523C262.927 68.1189 263.139 68.8947 263.139 69.8623C263.139 70.7252 262.938 71.4836 262.563 72.0676C262.111 72.765 261.431 73.1485 260.637 73.1485ZM260.811 67.3867C260.414 67.3867 260.082 67.5261 259.81 67.7964C259.544 68.0666 259.413 68.4065 259.413 68.8075C259.413 69.2172 259.544 69.5572 259.81 69.8361C260.082 70.1063 260.414 70.2458 260.806 70.2458C261.197 70.2458 261.535 70.1063 261.807 69.8274C262.073 69.5484 262.214 69.2085 262.214 68.8075C262.214 68.4065 262.084 68.0666 261.812 67.7964C261.545 67.5261 261.214 67.3867 260.811 67.3867ZM267.392 71.4226V73.0526H266.614V71.4226H263.596V70.7688L266.337 66.7939H267.398V70.7252H268.61V71.4226H267.392ZM266.609 67.5959L264.45 70.7252H266.609V67.5959ZM270.922 66.698C271.069 66.698 271.303 66.7155 271.341 66.7155V67.4128C271.243 67.4041 271.183 67.3954 270.998 67.3954C270.503 67.3954 270.286 67.6307 270.286 68.1799V68.4937H271.297V69.1649H270.286V73.0526H269.502V69.1649H268.817V68.4937H269.502V68.1276C269.502 67.221 270.014 66.698 270.922 66.698ZM271.667 73.0526V72.364L273.511 70.8298C274.033 70.4027 274.294 70.1586 274.501 69.9146C274.86 69.4961 275.023 69.1126 275.023 68.7029C275.023 67.9271 274.522 67.4128 273.761 67.4128C273.397 67.4128 273.092 67.5348 272.858 67.7876C272.624 68.0317 272.499 68.3368 272.499 68.7029C272.499 68.9208 272.543 69.1475 272.641 69.3828H271.857C271.754 69.1039 271.716 68.8947 271.716 68.6593C271.716 68.1102 271.944 67.6046 272.336 67.2472C272.717 66.8985 273.223 66.698 273.783 66.698C274.397 66.698 274.903 66.8811 275.278 67.2385C275.654 67.5959 275.844 68.0666 275.844 68.6506C275.844 69.0777 275.719 69.4787 275.485 69.8623C275.251 70.2371 274.827 70.6729 274.218 71.1698L272.804 72.3204H275.964V73.0526H271.667ZM276.921 73.0526V66.7939H281V67.5261H277.748V69.4526H280.505V70.1848H277.748V72.3204H281V73.0526H276.921Z" fill="#0F0F12"/>
<path d="M350.692 52.7635H69.2967C67.3452 52.7635 65.7632 54.3482 65.7632 56.303V82.045C65.7632 83.9998 67.3452 85.5845 69.2967 85.5845H350.692C352.643 85.5845 354.225 83.9998 354.225 82.045V56.303C354.225 54.3482 352.643 52.7635 350.692 52.7635Z" stroke="#E7E7E7"/>
<path d="M337.535 69.7389L339.227 71.4298L342.61 68.0479M345.709 69.7389C345.709 72.8516 343.185 75.3752 340.072 75.3752C336.96 75.3752 334.436 72.8516 334.436 69.7389C334.436 66.6262 336.96 64.1026 340.072 64.1026C343.185 64.1026 345.709 66.6262 345.709 69.7389Z" stroke="#32C76F" stroke-width="1.32366" stroke-linecap="round" stroke-linejoin="round"/>
<path d="M155.482 107.556H59.4796C59.3267 107.556 59.2026 108.456 59.2026 109.567V141.753C59.2026 142.864 59.3267 143.764 59.4796 143.764H155.482C155.635 143.764 155.759 142.864 155.759 141.753V109.567C155.759 108.456 155.635 107.556 155.482 107.556Z" fill="#F9FAFB"/>
<path d="M86.1434 125.643C86.1434 121.996 83.1919 119.04 79.5512 119.04C75.9104 119.04 72.959 121.996 72.959 125.643C72.959 129.29 75.9104 132.247 79.5512 132.247C83.1919 132.247 86.1434 129.29 86.1434 125.643Z" stroke="#F9FAFB"/>
<path d="M94.6592 125.977H92.8226V129.089H91.832V121.667H94.6592C96.2792 121.667 97.2285 122.453 97.2285 123.817C97.2285 125.182 96.2689 125.977 94.6592 125.977ZM92.8226 122.525V125.12H94.6076C95.6704 125.12 96.2482 124.655 96.2482 123.817C96.2482 122.99 95.6704 122.525 94.6076 122.525H92.8226ZM101.961 124.417C102.384 124.913 102.611 125.605 102.611 126.391C102.611 127.176 102.384 127.869 101.961 128.365C101.507 128.903 100.846 129.202 100.103 129.202C99.3603 129.202 98.6999 128.903 98.2459 128.365C97.8229 127.869 97.5959 127.176 97.5959 126.391C97.5959 125.605 97.8229 124.913 98.2459 124.417C98.6999 123.879 99.3603 123.58 100.103 123.58C100.846 123.58 101.507 123.879 101.961 124.417ZM100.103 124.365C99.1539 124.365 98.5349 125.151 98.5349 126.391C98.5349 127.621 99.1539 128.406 100.103 128.406C101.052 128.406 101.672 127.621 101.672 126.391C101.672 125.151 101.052 124.365 100.103 124.365ZM103.792 121.667H104.721V129.089H103.792V121.667ZM110.594 123.683L108.272 129.678C107.901 130.639 107.416 131.011 106.601 131.011C106.384 131.011 106.26 131.001 106.095 130.97V130.163C106.26 130.205 106.374 130.215 106.539 130.215C106.962 130.215 107.168 130.039 107.375 129.533L107.633 128.892L105.631 123.683H106.611L108.128 127.817L109.624 123.683H110.594ZM115.9 123.683V128.603C115.9 129.357 115.673 129.957 115.219 130.401C114.765 130.846 114.156 131.063 113.393 131.063C112.196 131.063 111.329 130.505 111.04 129.523L111.907 129.192C112.082 129.884 112.639 130.288 113.393 130.288C114.424 130.288 114.971 129.719 114.971 128.675V128.065C114.672 128.613 114.032 128.965 113.32 128.965C112.608 128.965 112 128.675 111.576 128.148C111.195 127.652 110.978 127.001 110.978 126.267C110.978 125.533 111.195 124.882 111.576 124.396C112 123.859 112.608 123.58 113.32 123.58C114.032 123.58 114.672 123.931 114.971 124.479V123.683H115.9ZM114.982 126.381V126.184C114.982 125.099 114.362 124.396 113.485 124.396C112.505 124.396 111.907 125.12 111.907 126.267C111.907 127.414 112.526 128.148 113.485 128.148C114.362 128.148 114.982 127.455 114.982 126.381ZM121.438 124.417C121.861 124.913 122.088 125.605 122.088 126.391C122.088 127.176 121.861 127.869 121.438 128.365C120.984 128.903 120.324 129.202 119.581 129.202C118.838 129.202 118.178 128.903 117.724 128.365C117.301 127.869 117.074 127.176 117.074 126.391C117.074 125.605 117.301 124.913 117.724 124.417C118.178 123.879 118.838 123.58 119.581 123.58C120.324 123.58 120.984 123.879 121.438 124.417ZM119.581 124.365C118.632 124.365 118.013 125.151 118.013 126.391C118.013 127.621 118.632 128.406 119.581 128.406C120.53 128.406 121.15 127.621 121.15 126.391C121.15 125.151 120.53 124.365 119.581 124.365ZM124.198 129.089H123.269V123.683H124.198V124.417C124.569 123.879 125.147 123.58 125.808 123.58C126.912 123.58 127.603 124.334 127.603 125.523V129.089H126.674V125.771C126.674 124.913 126.282 124.448 125.55 124.448C125.178 124.448 124.858 124.582 124.59 124.851C124.332 125.109 124.198 125.45 124.198 125.864V129.089Z" fill="#181927"/>
<path d="M86.4686 126.229C86.4686 122.582 83.5171 119.625 79.8764 119.625C76.2356 119.625 73.2842 122.582 73.2842 126.229C73.2842 129.876 76.2356 132.832 79.8764 132.832C83.5171 132.832 86.4686 129.876 86.4686 126.229Z" fill="#8247E5"/>
<path d="M82.2162 124.042C82.047 123.943 81.8269 123.943 81.6406 124.042L80.321 124.808L79.4239 125.308L78.1038 126.074C77.9347 126.174 77.7145 126.174 77.5288 126.074L76.4792 125.475C76.3101 125.375 76.192 125.191 76.192 124.992V123.81C76.192 123.61 76.2935 123.427 76.4792 123.327L77.5116 122.744C77.6807 122.644 77.9008 122.644 78.0871 122.744L79.1195 123.327C79.2886 123.427 79.4067 123.61 79.4067 123.81V124.575L80.3038 124.059V123.294C80.3038 123.094 80.2024 122.911 80.0161 122.811L78.1038 121.712C77.9347 121.612 77.7145 121.612 77.5288 121.712L75.5827 122.811C75.3964 122.911 75.2949 123.094 75.2949 123.294V125.508C75.2949 125.708 75.3964 125.891 75.5827 125.991L77.5288 127.09C77.6979 127.19 77.918 127.19 78.1038 127.09L79.4239 126.34L80.321 125.824L81.6406 125.075C81.8097 124.975 82.0298 124.975 82.2162 125.075L83.2485 125.658C83.4176 125.758 83.5357 125.941 83.5357 126.141V127.323C83.5357 127.523 83.4343 127.706 83.2485 127.806L82.2162 128.405C82.047 128.505 81.8269 128.505 81.6406 128.405L80.6082 127.822C80.4391 127.723 80.321 127.539 80.321 127.34V126.574L79.4239 127.09V127.856C79.4239 128.056 79.5254 128.239 79.7117 128.339L81.6578 129.438C81.8269 129.538 82.047 129.538 82.2328 129.438L84.1789 128.339C84.348 128.239 84.4667 128.056 84.4667 127.856V125.641C84.4667 125.441 84.3652 125.258 84.1789 125.158L82.2162 124.042Z" fill="white"/>
<path d="M155.482 107.556H59.4796C59.3267 107.556 59.2026 108.456 59.2026 109.567V141.753C59.2026 142.864 59.3267 143.764 59.4796 143.764H155.482C155.635 143.764 155.759 142.864 155.759 141.753V109.567C155.759 108.456 155.635 107.556 155.482 107.556Z" stroke="url(#paint0_linear_3_2120)"/>
<path d="M258.073 107.556H162.07C161.917 107.556 161.793 108.456 161.793 109.567V141.753C161.793 142.864 161.917 143.764 162.07 143.764H258.073C258.226 143.764 258.35 142.864 258.35 141.753V109.567C258.35 108.456 258.226 107.556 258.073 107.556Z" fill="#F9FAFB"/>
<path d="M182.142 131.634C185.978 131.634 189.021 128.524 189.021 124.743C189.021 120.902 185.917 117.853 182.142 117.853C178.308 117.853 175.264 120.962 175.264 124.743C175.264 128.524 178.368 131.634 182.142 131.634Z" fill="#2C374B"/>
<path fill-rule="evenodd" clip-rule="evenodd" d="M185.914 122.243C185.853 122.183 182.87 120.414 182.505 120.292C182.383 120.231 182.079 120.171 181.896 120.231C181.714 120.292 178.548 122.122 178.426 122.243C178.365 122.304 178.305 122.427 178.243 122.487C178.183 122.609 178.183 122.671 178.183 124.804V127L178.609 127.244C178.852 127.366 179.035 127.488 179.035 127.488C179.096 127.488 181.957 122.914 181.957 122.853C181.957 122.792 181.287 122.792 181.105 122.853C180.861 122.914 180.678 123.036 180.557 123.158C180.496 123.219 180.13 123.829 179.644 124.499C179.218 125.171 178.852 125.781 178.852 125.781C178.852 125.781 178.852 125.171 178.852 124.317V122.792L178.913 122.732C179.035 122.609 182.14 120.841 182.261 120.841C182.323 120.841 182.383 120.841 183.114 121.268C183.357 121.39 184.027 121.756 184.575 122.122C185.122 122.427 185.609 122.732 185.67 122.792L185.731 122.853V126.024L184.21 123.646C184.148 123.524 184.087 123.402 184.027 123.341C184.027 123.341 183.966 123.463 183.601 124.073C183.539 124.134 183.479 124.256 183.479 124.317L183.418 124.439L183.479 124.499L183.539 124.561C183.539 124.561 183.539 124.622 183.601 124.622L183.722 124.804C183.722 124.804 183.722 124.866 183.783 124.866C183.844 124.927 183.905 125.048 183.905 125.109C183.905 125.109 183.905 125.109 183.905 125.171L185.184 127.244L185.061 127.305C185.001 127.366 184.94 127.366 184.879 127.366L183.296 124.927L183.235 124.866L183.114 125.109L182.505 126.085L183.722 128.037C183.539 128.158 182.505 128.89 182.444 128.89C182.383 128.89 180.983 127.976 181.044 127.914C181.044 127.914 181.47 127.183 181.957 126.329C182.383 125.597 182.931 124.683 183.296 124.073C183.722 123.341 183.905 122.976 183.905 122.976C183.905 122.976 183.601 122.976 183.235 122.976H182.626L181.226 125.292C180.739 126.146 180.253 126.939 180.009 127.366C179.583 127.427 179.461 127.549 179.461 127.549L179.4 127.671L180.496 128.281C181.105 128.646 181.652 128.951 181.774 129.012C181.957 129.134 182.261 129.134 182.383 129.134C182.505 129.073 185.67 127.244 185.853 127.122C185.914 127.061 185.975 127 186.035 126.878L186.097 126.695V124.683V122.671L186.035 122.548C186.035 122.427 185.914 122.304 185.914 122.243Z" fill="white"/>
<path d="M185.611 125.962L183.784 123.157L183.115 124.255L184.88 127.121L185.671 126.755L185.611 125.962Z" fill="#24A2EE"/>
<path d="M184.758 127.486L182.931 124.681L182.14 125.901L183.601 128.219L184.514 127.853L184.758 127.486Z" fill="#24A2EE"/>
<path fill-rule="evenodd" clip-rule="evenodd" d="M178.795 122.791L182.143 120.84L185.491 122.791V126.694L182.143 128.645L179.647 127.242L179.343 127.791L182.082 129.377C182.143 129.438 182.204 129.438 182.264 129.377L186.099 127.182C186.161 127.121 186.221 127.06 186.221 126.999V122.609C186.221 122.547 186.161 122.486 186.099 122.425L182.264 120.23C182.204 120.169 182.143 120.169 182.082 120.23L178.247 122.364C178.186 122.425 178.125 122.486 178.125 122.547V126.938C178.125 126.999 178.186 127.06 178.247 127.121L179.038 127.547L179.403 126.999L178.855 126.694V122.791H178.795Z" fill="#98BCDC"/>
<path d="M180.377 123.278C180.682 122.791 181.534 122.791 181.899 122.852L178.977 127.547C178.855 127.486 178.612 127.364 178.429 127.242C178.186 127.12 178.125 127.12 178.125 126.937V126.693C178.795 125.717 180.073 123.766 180.377 123.278Z" fill="white"/>
<path d="M193.772 128.188L196.631 120.767H197.724L200.582 128.188H199.582L198.828 126.235H195.506L194.763 128.188H193.772ZM198.498 125.367L197.157 121.883L195.836 125.367H198.498ZM203.889 122.741C204.013 122.741 204.137 122.752 204.261 122.762V123.702C204.106 123.671 203.982 123.661 203.807 123.661C203.405 123.661 203.064 123.806 202.796 124.106C202.527 124.395 202.393 124.767 202.393 125.232V128.188H201.465V122.783H202.393V123.702C202.651 123.113 203.219 122.741 203.889 122.741ZM209.649 127.434C209.226 128.002 208.617 128.302 207.884 128.302C207.172 128.302 206.543 127.971 206.213 127.403V128.188H205.284V120.767H206.213V123.568C206.553 123.02 207.172 122.679 207.884 122.679C208.617 122.679 209.236 122.979 209.659 123.547C210.031 124.054 210.237 124.736 210.237 125.491C210.237 126.235 210.031 126.927 209.649 127.434ZM207.719 123.496C206.822 123.496 206.192 124.188 206.192 125.305V125.687C206.192 126.793 206.822 127.485 207.719 127.485C208.679 127.485 209.298 126.7 209.298 125.491C209.298 124.281 208.699 123.496 207.719 123.496ZM212.38 121.842H211.369V120.767H212.38V121.842ZM211.41 122.783H212.339V128.188H211.41V122.783ZM215.478 128.24C214.446 128.24 214.033 127.837 214.033 126.896V123.578H213.198V122.783H214.033V121.201H214.952V122.783H216.18V123.578H214.952V126.752C214.952 127.237 215.127 127.423 215.705 127.423C215.953 127.423 216.097 127.403 216.293 127.361V128.157C216.045 128.209 215.767 128.24 215.478 128.24ZM219.82 122.741C219.944 122.741 220.068 122.752 220.192 122.762V123.702C220.037 123.671 219.913 123.661 219.738 123.661C219.335 123.661 218.995 123.806 218.726 124.106C218.458 124.395 218.324 124.767 218.324 125.232V128.188H217.395V122.783H218.324V123.702C218.582 123.113 219.15 122.741 219.82 122.741ZM224.568 122.783H225.497V128.188H224.568V127.444C224.197 127.992 223.629 128.302 222.969 128.302C221.855 128.302 221.163 127.547 221.163 126.359V122.783H222.092V126.162C222.092 127 222.474 127.444 223.217 127.444C223.598 127.444 223.918 127.31 224.176 127.051C224.434 126.783 224.568 126.441 224.568 126.038V122.783ZM228.318 123.971C228.102 124.23 227.968 124.571 227.968 124.953V128.188H227.039V122.783H227.968V123.516C228.308 122.979 228.865 122.679 229.526 122.679C230.217 122.679 230.733 123.01 231.022 123.599C231.404 123.02 232.043 122.679 232.745 122.679C233.828 122.679 234.53 123.454 234.53 124.622V128.188H233.601V124.87C233.601 124.033 233.22 123.547 232.528 123.547C232.188 123.547 231.847 123.713 231.6 123.971C231.383 124.23 231.249 124.571 231.249 124.953V128.188H230.32V124.87C230.32 124.033 229.938 123.547 229.247 123.547C228.907 123.547 228.566 123.713 228.318 123.971Z" fill="#181927"/>
<path d="M258.073 107.556H162.07C161.917 107.556 161.793 108.456 161.793 109.567V141.753C161.793 142.864 161.917 143.764 162.07 143.764H258.073C258.226 143.764 258.35 142.864 258.35 141.753V109.567C258.35 108.456 258.226 107.556 258.073 107.556Z" stroke="url(#paint1_linear_3_2120)"/>
<path d="M360.665 107.556H264.663C264.51 107.556 264.386 108.456 264.386 109.567V141.753C264.386 142.864 264.51 143.764 264.663 143.764H360.665C360.818 143.764 360.942 142.864 360.942 141.753V109.567C360.942 108.456 360.818 107.556 360.665 107.556Z" fill="#F9FAFB"/>
<path d="M291.326 125.854C291.326 122.207 288.375 119.251 284.734 119.251C281.094 119.251 278.142 122.207 278.142 125.854C278.142 129.501 281.094 132.458 284.734 132.458C288.375 132.458 291.326 129.501 291.326 125.854Z" fill="#EF0027"/>
<path d="M287.187 123.352L280.982 122.208L284.247 130.439L288.797 124.886L287.187 123.352ZM287.087 123.856L288.036 124.76L285.44 125.23L287.087 123.856ZM284.876 125.136L282.14 122.863L286.612 123.687L284.876 125.136ZM284.682 125.538L284.235 129.233L281.83 123.168L284.682 125.538V125.538ZM285.094 125.734L287.969 125.213L284.671 129.237L285.094 125.734Z" fill="white"/>
<path d="M291.326 125.854C291.326 122.207 288.375 119.251 284.734 119.251C281.094 119.251 278.142 122.207 278.142 125.854C278.142 129.501 281.094 132.458 284.734 132.458C288.375 132.458 291.326 129.501 291.326 125.854Z" stroke="#F9FAFB"/>
<path d="M302.381 121.878V122.747H299.874V129.299H298.883V122.747H296.376V121.878H302.381ZM305.799 126.188H304.365V129.299H303.374V121.878H306.201C307.821 121.878 308.77 122.664 308.77 124.028C308.77 125.186 308.079 125.93 306.872 126.137L308.925 129.299H307.79L305.799 126.188ZM304.365 122.736V125.331H306.15C307.212 125.331 307.79 124.865 307.79 124.028C307.79 123.201 307.212 122.736 306.15 122.736H304.365ZM310.478 128.245C309.911 127.553 309.611 126.633 309.611 125.589C309.611 124.545 309.911 123.625 310.478 122.933C311.097 122.178 311.985 121.765 312.975 121.765C313.966 121.765 314.853 122.178 315.462 122.933C316.029 123.625 316.329 124.545 316.329 125.589C316.329 126.633 316.029 127.553 315.462 128.245C314.853 129 313.966 129.413 312.975 129.413C311.985 129.413 311.097 129 310.478 128.245ZM314.781 127.594C315.152 127.067 315.348 126.374 315.348 125.589C315.348 124.803 315.152 124.111 314.781 123.584C314.337 122.974 313.708 122.643 312.975 122.643C312.243 122.643 311.613 122.974 311.169 123.584C310.798 124.111 310.602 124.803 310.602 125.589C310.602 126.374 310.798 127.067 311.169 127.594C311.613 128.204 312.243 128.535 312.975 128.535C313.708 128.535 314.337 128.204 314.781 127.594ZM322.422 121.878H323.382V129.299H322.525L318.48 123.325V129.299H317.531V121.878H318.573L322.422 127.615V121.878Z" fill="#181927"/>
<path d="M361.004 107.166H264.934C264.781 107.166 264.657 108.051 264.657 109.144V140.787C264.657 141.879 264.781 142.764 264.934 142.764H361.004C361.158 142.764 361.282 141.879 361.282 140.787V109.144C361.282 108.051 361.158 107.166 361.004 107.166Z" stroke="url(#paint2_linear_3_2120)"/>
<path d="M59.5 27H46.5C42.9101 27 40 29.9151 40 33.5111V46.5332C40 50.1292 42.9101 53.0443 46.5 53.0443H59.5C63.0899 53.0443 66 50.1292 66 46.5332V33.5111C66 29.9151 63.0899 27 59.5 27Z" fill="#32C76F"/>
<path fill-rule="evenodd" clip-rule="evenodd" d="M59.9125 34.6894C60.1611 34.9173 60.1774 35.3031 59.9499 35.5505L51.0124 45.3171C50.9003 45.4408 50.7426 45.5125 50.5769 45.5157C50.4111 45.519 50.2503 45.4539 50.1333 45.3367L46.0708 41.2673C45.8319 41.0296 45.8319 40.6422 46.0708 40.4045C46.308 40.1652 46.6948 40.1652 46.932 40.4045L50.5444 44.0231L59.0529 34.7269C59.2804 34.4778 59.6655 34.4616 59.9125 34.6894Z" fill="white" stroke="white" stroke-width="1.625" stroke-linecap="round" stroke-linejoin="round"/>
</g>
<defs>
<linearGradient id="paint0_linear_3_2120" x1="107.481" y1="107.556" x2="107.481" y2="143.764" gradientUnits="userSpaceOnUse">
<stop stop-color="#E5E7EB"/>
<stop offset="1" stop-color="#E5E7EB" stop-opacity="0"/>
</linearGradient>
<linearGradient id="paint1_linear_3_2120" x1="210.072" y1="107.556" x2="210.072" y2="143.764" gradientUnits="userSpaceOnUse">
<stop stop-color="#E5E7EB"/>
<stop offset="1" stop-color="#E5E7EB" stop-opacity="0"/>
</linearGradient>
<linearGradient id="paint2_linear_3_2120" x1="312.969" y1="107.166" x2="312.969" y2="142.764" gradientUnits="userSpaceOnUse">
<stop stop-color="#E5E7EB"/>
<stop offset="1" stop-color="#E5E7EB" stop-opacity="0"/>
</linearGradient>
<clipPath id="clip0_3_2120">
<path d="M0 8C0 3.58172 3.58172 0 8 0H400C404.418 0 408 3.58172 408 8V187H0V8Z" fill="white"/>
</clipPath>
</defs>
</svg>
