<svg width="408" height="187" viewBox="0 0 408 187" fill="none" xmlns="http://www.w3.org/2000/svg">
<g clip-path="url(#clip0_3_2088)">
<path d="M0 8C0 3.58172 3.58172 0 8 0H400C404.418 0 408 3.58172 408 8V187H0V8Z" fill="#281919"/>
<path d="M400 0H8C3.58172 0 0 3.58172 0 8V179C0 183.418 3.58172 187 8 187H400C404.418 187 408 183.418 408 179V8C408 3.58172 404.418 0 400 0Z" fill="#ADA5FF"/>
<path d="M428 -8H-8V396.757H428V-8Z" fill="#CCC7FF"/>
<path d="M91.317 67H56.8482C51.4092 67 47 71.4034 47 76.8352V111.259C47 116.69 51.4092 121.094 56.8482 121.094H91.317C96.7561 121.094 101.165 116.69 101.165 111.259V76.8352C101.165 71.4034 96.7561 67 91.317 67Z" fill="url(#paint0_radial_3_2088)"/>
<rect x="177.809" y="67" width="183.919" height="54.0938" rx="7" fill="#5000C2"/>
<path d="M233.476 100.769H230.382L235.096 87.1136H238.817L243.525 100.769H240.431L237.01 90.2341H236.903L233.476 100.769ZM233.283 95.4017H240.591V97.6554H233.283V95.4017ZM248.412 100.936C247.634 100.936 246.93 100.736 246.298 100.336C245.672 99.9314 245.174 99.338 244.805 98.5556C244.44 97.7688 244.258 96.8042 244.258 95.6618C244.258 94.4882 244.447 93.5125 244.825 92.7346C245.203 91.9522 245.705 91.3677 246.332 90.9809C246.963 90.5898 247.654 90.3942 248.405 90.3942C248.979 90.3942 249.457 90.492 249.839 90.6875C250.226 90.8787 250.537 91.1187 250.773 91.4077C251.013 91.6922 251.195 91.9722 251.319 92.2478H251.406V87.1136H254.24V100.769H251.439V99.129H251.319C251.186 99.4135 250.997 99.6958 250.753 99.9758C250.512 100.251 250.199 100.48 249.812 100.663C249.43 100.845 248.963 100.936 248.412 100.936ZM249.312 98.6756C249.77 98.6756 250.157 98.5511 250.472 98.3022C250.793 98.0488 251.037 97.6954 251.206 97.242C251.379 96.7886 251.466 96.2574 251.466 95.6484C251.466 95.0394 251.382 94.5104 251.213 94.0615C251.044 93.6125 250.799 93.2658 250.479 93.0213C250.159 92.7768 249.77 92.6546 249.312 92.6546C248.846 92.6546 248.452 92.7812 248.132 93.0346C247.812 93.288 247.57 93.6392 247.405 94.0881C247.241 94.5371 247.159 95.0572 247.159 95.6484C247.159 96.2441 247.241 96.7708 247.405 97.2287C247.574 97.6821 247.816 98.0377 248.132 98.2955C248.452 98.5489 248.846 98.6756 249.312 98.6756ZM260.349 100.936C259.571 100.936 258.867 100.736 258.236 100.336C257.609 99.9314 257.111 99.338 256.742 98.5556C256.377 97.7688 256.195 96.8042 256.195 95.6618C256.195 94.4882 256.384 93.5125 256.762 92.7346C257.14 91.9522 257.642 91.3677 258.269 90.9809C258.9 90.5898 259.591 90.3942 260.343 90.3942C260.916 90.3942 261.394 90.492 261.776 90.6875C262.163 90.8787 262.474 91.1187 262.71 91.4077C262.95 91.6922 263.132 91.9722 263.256 92.2478H263.343V87.1136H266.177V100.769H263.376V99.129H263.256C263.123 99.4135 262.934 99.6958 262.69 99.9758C262.45 100.251 262.136 100.48 261.749 100.663C261.367 100.845 260.9 100.936 260.349 100.936ZM261.249 98.6756C261.707 98.6756 262.094 98.5511 262.41 98.3022C262.73 98.0488 262.974 97.6954 263.143 97.242C263.316 96.7886 263.403 96.2574 263.403 95.6484C263.403 95.0394 263.319 94.5104 263.15 94.0615C262.981 93.6125 262.736 93.2658 262.416 93.0213C262.096 92.7768 261.707 92.6546 261.249 92.6546C260.783 92.6546 260.389 92.7812 260.069 93.0346C259.749 93.288 259.507 93.6392 259.342 94.0881C259.178 94.5371 259.096 95.0572 259.096 95.6484C259.096 96.2441 259.178 96.7708 259.342 97.2287C259.511 97.6821 259.754 98.0377 260.069 98.2955C260.389 98.5489 260.783 98.6756 261.249 98.6756ZM272.911 100.769V87.1136H278.299C279.335 87.1136 280.217 87.3114 280.946 87.707C281.675 88.0982 282.231 88.6427 282.613 89.3406C283 90.0341 283.193 90.8342 283.193 91.7411C283.193 92.6479 282.998 93.448 282.606 94.1415C282.215 94.8349 281.649 95.375 280.906 95.7618C280.168 96.1485 279.275 96.3419 278.226 96.3419H274.792V94.0281H277.759C278.315 94.0281 278.772 93.9326 279.133 93.7414C279.497 93.5458 279.768 93.2769 279.946 92.9346C280.128 92.5879 280.219 92.19 280.219 91.7411C280.219 91.2877 280.128 90.892 279.946 90.5542C279.768 90.2119 279.497 89.9474 279.133 89.7607C278.768 89.5696 278.306 89.474 277.746 89.474H275.799V100.769H272.911ZM287.661 100.963C287.007 100.963 286.425 100.849 285.914 100.623C285.403 100.391 284.998 100.051 284.7 99.6024C284.407 99.149 284.26 98.5845 284.26 97.9088C284.26 97.3398 284.365 96.862 284.573 96.4752C284.782 96.0885 285.067 95.7773 285.427 95.5417C285.787 95.3061 286.196 95.1283 286.654 95.0083C287.116 94.8883 287.601 94.8038 288.107 94.7549C288.703 94.6927 289.183 94.6349 289.548 94.5816C289.912 94.5238 290.177 94.4393 290.341 94.3282C290.506 94.2171 290.588 94.0526 290.588 93.8348V93.7948C290.588 93.3725 290.455 93.0457 290.188 92.8146C289.926 92.5834 289.552 92.4679 289.068 92.4679C288.556 92.4679 288.15 92.5812 287.847 92.8079C287.545 93.0302 287.345 93.3102 287.247 93.6481L284.62 93.4347C284.754 92.8124 285.016 92.2745 285.407 91.8211C285.798 91.3632 286.303 91.012 286.921 90.7676C287.543 90.5186 288.263 90.3942 289.081 90.3942C289.65 90.3942 290.194 90.4608 290.715 90.5942C291.239 90.7276 291.704 90.9343 292.108 91.2143C292.517 91.4944 292.839 91.8544 293.075 92.2945C293.311 92.7301 293.428 93.2524 293.428 93.8614V100.769H290.735V99.3491H290.655C290.49 99.6691 290.27 99.9514 289.994 100.196C289.719 100.436 289.388 100.625 289.001 100.763C288.614 100.896 288.167 100.963 287.661 100.963ZM288.474 99.0023C288.892 99.0023 289.261 98.9201 289.581 98.7556C289.901 98.5867 290.152 98.36 290.334 98.0755C290.517 97.791 290.608 97.4687 290.608 97.1087V96.0218C290.519 96.0796 290.397 96.1329 290.241 96.1818C290.09 96.2263 289.919 96.2685 289.728 96.3085C289.537 96.3441 289.345 96.3774 289.154 96.4086C288.963 96.4352 288.79 96.4597 288.634 96.4819C288.301 96.5308 288.01 96.6086 287.761 96.7153C287.512 96.822 287.318 96.9664 287.181 97.1487C287.043 97.3265 286.974 97.5488 286.974 97.8155C286.974 98.2022 287.114 98.4978 287.394 98.7023C287.678 98.9023 288.039 99.0023 288.474 99.0023ZM297.019 104.61C296.659 104.61 296.321 104.581 296.005 104.523C295.694 104.47 295.437 104.401 295.232 104.317L295.872 102.196C296.206 102.298 296.506 102.354 296.772 102.363C297.043 102.372 297.277 102.31 297.472 102.176C297.672 102.043 297.835 101.816 297.959 101.496L298.126 101.063L294.452 90.5275H297.439L299.559 98.0488H299.666L301.807 90.5275H304.814L300.833 101.876C300.642 102.427 300.382 102.907 300.053 103.316C299.728 103.73 299.317 104.048 298.819 104.27C298.321 104.497 297.721 104.61 297.019 104.61ZM313.454 87.1136V100.769H310.613V87.1136H313.454ZM315.729 100.769V90.5275H318.569V100.769H315.729ZM317.156 89.2073C316.734 89.2073 316.371 89.0673 316.069 88.7872C315.771 88.5027 315.622 88.1627 315.622 87.767C315.622 87.3759 315.771 87.0402 316.069 86.7602C316.371 86.4757 316.734 86.3334 317.156 86.3334C317.578 86.3334 317.938 86.4757 318.236 86.7602C318.538 87.0402 318.689 87.3759 318.689 87.767C318.689 88.1627 318.538 88.5027 318.236 88.7872C317.938 89.0673 317.578 89.2073 317.156 89.2073ZM323.685 94.8483V100.769H320.845V90.5275H323.552V92.3345H323.672C323.899 91.7388 324.279 91.2676 324.812 90.9209C325.346 90.5697 325.992 90.3942 326.753 90.3942C327.464 90.3942 328.084 90.5497 328.613 90.8609C329.142 91.1721 329.553 91.6166 329.846 92.1945C330.14 92.7679 330.287 93.4525 330.287 94.2482V100.769H327.446V94.7549C327.45 94.1282 327.29 93.6392 326.966 93.288C326.641 92.9324 326.195 92.7546 325.626 92.7546C325.243 92.7546 324.906 92.8368 324.612 93.0013C324.323 93.1658 324.097 93.4058 323.932 93.7214C323.772 94.0326 323.69 94.4082 323.685 94.8483ZM335.099 97.8221L335.106 94.4149H335.519L338.8 90.5275H342.06L337.653 95.6751H336.979L335.099 97.8221ZM332.525 100.769V87.1136H335.366V100.769H332.525ZM338.926 100.769L335.913 96.3085L337.806 94.3015L342.254 100.769H338.926Z" fill="white"/>
<line x1="199.938" y1="94.0469" x2="219.608" y2="94.0469" stroke="white" stroke-width="2.95057" stroke-linecap="round"/>
<line x1="209.773" y1="103.882" x2="209.773" y2="84.2117" stroke="white" stroke-width="2.95057" stroke-linecap="round"/>
<path d="M162.651 93.5551C162.651 95.4081 164.153 96.9102 166.006 96.9102C167.859 96.9102 169.361 95.4081 169.361 93.5551C169.361 91.7021 167.859 90.2 166.006 90.2C164.153 90.2 162.651 91.7021 162.651 93.5551ZM112.896 94.1842L166.006 94.1842L166.006 92.926L112.896 92.926L112.896 94.1842Z" fill="black"/>
<path d="M162.651 93.5551C162.651 95.4081 164.153 96.9102 166.006 96.9102C167.859 96.9102 169.361 95.4081 169.361 93.5551C169.361 91.7021 167.859 90.2 166.006 90.2C164.153 90.2 162.651 91.7021 162.651 93.5551ZM112.896 94.1842L166.006 94.1842L166.006 92.926L112.896 92.926L112.896 94.1842Z" fill="black"/>
<path d="M71.3853 95.3091C71.9467 96.0606 72.663 96.6821 73.4856 97.1319C74.3083 97.5817 75.2179 97.8487 76.1528 97.916C77.0878 97.9833 78.0262 97.8475 78.9045 97.52C79.7827 97.1925 80.5802 96.6787 81.243 96.0158L85.1651 92.0897C86.3558 90.8558 87.0147 89.2024 86.9998 87.4872C86.9848 85.771 86.2975 84.1299 85.0854 82.9162C83.8735 81.7036 82.2339 81.0148 80.5199 81.0002C78.806 80.9857 77.1547 81.6452 75.9218 82.8365L73.6732 85.0744M76.6148 92.6909C76.0533 91.9405 75.337 91.3179 74.5145 90.8681C73.6918 90.4183 72.7822 90.1513 71.8472 90.084C70.9123 90.0167 69.9739 90.1525 69.0956 90.48C68.2173 90.8075 67.4199 91.3213 66.7572 91.9843L62.835 95.9103C61.6443 97.1453 60.9853 98.7977 61.0002 100.514C61.0152 102.229 61.7026 103.87 62.9147 105.084C64.1266 106.296 65.7662 106.985 67.4802 107C69.194 107.014 70.8454 106.355 72.0782 105.163L74.3138 102.926" stroke="white" stroke-width="2" stroke-linecap="round" stroke-linejoin="round"/>
</g>
<defs>
<radialGradient id="paint0_radial_3_2088" cx="0" cy="0" r="1" gradientUnits="userSpaceOnUse" gradientTransform="translate(48.6927 73.5441) rotate(42.1825) scale(70.8123 298.382)">
<stop stop-color="#00C4FF"/>
<stop offset="1" stop-color="#6C00EF"/>
</radialGradient>
<clipPath id="clip0_3_2088">
<path d="M0 8C0 3.58172 3.58172 0 8 0H400C404.418 0 408 3.58172 408 8V187H0V8Z" fill="white"/>
</clipPath>
</defs>
</svg>
