<svg width="408" height="187" viewBox="0 0 408 187" fill="none" xmlns="http://www.w3.org/2000/svg">
<g clip-path="url(#clip0_3_2136)">
<path d="M0 8C0 3.58172 3.58172 0 8 0H400C404.418 0 408 3.58172 408 8V187H0V8Z" fill="#BD3C3C"/>
<path d="M400 0H8C3.58172 0 0 3.58172 0 8V179C0 183.418 3.58172 187 8 187H400C404.418 187 408 183.418 408 179V8C408 3.58172 404.418 0 400 0Z" fill="#AFE8F4"/>
<path d="M428 -8H-8V396.757H428V-8Z" fill="#AFE8F4"/>
<rect x="67" y="31" width="274" height="185" rx="7" fill="white"/>
<line x1="90" y1="70.5307" x2="297" y2="70.5307" stroke="#E7E7E7" stroke-width="0.938537"/>
<path d="M129.395 52.8934C129.362 52.5557 129.218 52.2934 128.964 52.1065C128.71 51.9195 128.365 51.8261 127.93 51.8261C127.634 51.8261 127.385 51.8679 127.181 51.9516C126.977 52.0325 126.821 52.1456 126.712 52.2906C126.606 52.4357 126.553 52.6004 126.553 52.7845C126.548 52.938 126.58 53.0719 126.649 53.1863C126.722 53.3007 126.821 53.3998 126.947 53.4835C127.072 53.5644 127.217 53.6356 127.382 53.697C127.547 53.7556 127.722 53.8058 127.909 53.8477L128.679 54.0318C129.053 54.1155 129.397 54.2271 129.709 54.3667C130.022 54.5062 130.292 54.6778 130.521 54.8815C130.75 55.0852 130.927 55.3251 131.053 55.6014C131.181 55.8776 131.246 56.1943 131.249 56.5515C131.246 57.0761 131.113 57.5309 130.847 57.916C130.585 58.2982 130.206 58.5954 129.709 58.8075C129.215 59.0167 128.619 59.1214 127.922 59.1214C127.23 59.1214 126.627 59.0153 126.114 58.8033C125.603 58.5912 125.204 58.2773 124.917 57.8615C124.632 57.443 124.483 56.9254 124.469 56.3087H126.222C126.242 56.5961 126.324 56.8361 126.469 57.0286C126.617 57.2184 126.814 57.3621 127.06 57.4597C127.308 57.5546 127.588 57.602 127.901 57.602C128.208 57.602 128.474 57.5574 128.7 57.4681C128.929 57.3788 129.106 57.2546 129.232 57.0956C129.357 56.9365 129.42 56.7538 129.42 56.5473C129.42 56.3548 129.363 56.1929 129.249 56.0618C129.137 55.9306 128.972 55.819 128.755 55.7269C128.54 55.6349 128.276 55.5512 127.964 55.4758L127.03 55.2414C126.308 55.0656 125.737 54.7908 125.318 54.4169C124.9 54.043 124.692 53.5393 124.695 52.9059C124.692 52.3869 124.83 51.9335 125.109 51.5456C125.391 51.1578 125.777 50.855 126.269 50.6374C126.76 50.4197 127.318 50.3109 127.943 50.3109C128.579 50.3109 129.134 50.4197 129.609 50.6374C130.086 50.855 130.457 51.1578 130.722 51.5456C130.987 51.9335 131.124 52.3827 131.132 52.8934H129.395ZM135.854 52.5711V53.9104H131.983V52.5711H135.854ZM132.862 51.0308H134.645V57.0244C134.645 57.1891 134.67 57.3174 134.72 57.4095C134.77 57.4988 134.84 57.5616 134.929 57.5979C135.021 57.6341 135.127 57.6523 135.247 57.6523C135.331 57.6523 135.415 57.6453 135.499 57.6313C135.582 57.6146 135.646 57.602 135.691 57.5937L135.972 58.9205C135.882 58.9484 135.757 58.9805 135.595 59.0167C135.433 59.0558 135.236 59.0795 135.005 59.0879C134.575 59.1046 134.198 59.0474 133.875 58.9163C133.554 58.7851 133.304 58.5815 133.125 58.3052C132.947 58.029 132.859 57.6802 132.862 57.2588V51.0308ZM138.849 59.1214C138.439 59.1214 138.073 59.0502 137.752 58.9079C137.432 58.7628 137.178 58.5494 136.991 58.2675C136.807 57.9829 136.714 57.6286 136.714 57.2044C136.714 56.8473 136.78 56.5473 136.911 56.3045C137.042 56.0618 137.221 55.8665 137.447 55.7186C137.673 55.5707 137.93 55.4591 138.217 55.3837C138.507 55.3084 138.811 55.2554 139.13 55.2247C139.503 55.1856 139.805 55.1493 140.034 55.1159C140.262 55.0796 140.428 55.0266 140.532 54.9568C140.635 54.8871 140.687 54.7838 140.687 54.6471V54.622C140.687 54.3569 140.603 54.1518 140.435 54.0067C140.271 53.8616 140.036 53.7891 139.732 53.7891C139.411 53.7891 139.156 53.8602 138.966 54.0025C138.777 54.142 138.651 54.3178 138.59 54.5299L136.941 54.396C137.024 54.0053 137.189 53.6677 137.434 53.3831C137.68 53.0957 137.997 52.8752 138.385 52.7218C138.775 52.5655 139.227 52.4874 139.741 52.4874C140.098 52.4874 140.44 52.5292 140.766 52.6129C141.095 52.6966 141.387 52.8264 141.641 53.0022C141.898 53.178 142.1 53.404 142.248 53.6802C142.396 53.9537 142.47 54.2815 142.47 54.6638V59H140.779V58.1085H140.728C140.625 58.3094 140.487 58.4866 140.314 58.64C140.141 58.7907 139.933 58.9093 139.69 58.9958C139.448 59.0795 139.167 59.1214 138.849 59.1214ZM139.36 57.8908C139.622 57.8908 139.854 57.8392 140.055 57.736C140.255 57.6299 140.413 57.4876 140.527 57.3091C140.642 57.1305 140.699 56.9282 140.699 56.7022V56.0199C140.643 56.0562 140.567 56.0897 140.469 56.1204C140.374 56.1483 140.267 56.1748 140.147 56.1999C140.027 56.2222 139.907 56.2432 139.787 56.2627C139.667 56.2794 139.558 56.2948 139.46 56.3087C139.251 56.3394 139.068 56.3882 138.912 56.4552C138.756 56.5222 138.634 56.6129 138.548 56.7273C138.461 56.8389 138.418 56.9784 138.418 57.1458C138.418 57.3886 138.506 57.5741 138.682 57.7025C138.86 57.8281 139.086 57.8908 139.36 57.8908ZM145.636 55.2833V59H143.853V52.5711H145.552V53.7053H145.628C145.77 53.3314 146.008 53.0357 146.343 52.818C146.678 52.5976 147.084 52.4874 147.561 52.4874C148.008 52.4874 148.397 52.585 148.729 52.7804C149.061 52.9757 149.319 53.2547 149.503 53.6175C149.687 53.9774 149.78 54.4071 149.78 54.9066V59H147.997V55.2247C147.999 54.8312 147.899 54.5243 147.695 54.3039C147.491 54.0806 147.211 53.969 146.854 53.969C146.614 53.969 146.402 54.0207 146.218 54.1239C146.036 54.2271 145.894 54.3778 145.791 54.5759C145.69 54.7713 145.639 55.007 145.636 55.2833ZM153.554 59.1046C153.065 59.1046 152.623 58.9791 152.227 58.7279C151.834 58.474 151.521 58.1015 151.289 57.6104C151.061 57.1165 150.946 56.511 150.946 55.7939C150.946 55.0573 151.065 54.4448 151.302 53.9565C151.539 53.4654 151.854 53.0984 152.248 52.8557C152.644 52.6101 153.078 52.4874 153.55 52.4874C153.91 52.4874 154.21 52.5488 154.449 52.6715C154.692 52.7915 154.888 52.9422 155.035 53.1236C155.186 53.3021 155.301 53.4779 155.379 53.6509H155.433V50.4281H157.212V59H155.454V57.9704H155.379C155.295 58.1489 155.176 58.3261 155.023 58.5019C154.872 58.6749 154.676 58.8186 154.433 58.933C154.193 59.0474 153.9 59.1046 153.554 59.1046ZM154.119 57.6858C154.406 57.6858 154.649 57.6076 154.847 57.4514C155.048 57.2923 155.201 57.0705 155.308 56.7859C155.416 56.5013 155.471 56.1678 155.471 55.7855C155.471 55.4033 155.418 55.0712 155.312 54.7894C155.206 54.5076 155.052 54.2899 154.851 54.1365C154.65 53.983 154.406 53.9062 154.119 53.9062C153.826 53.9062 153.579 53.9858 153.378 54.1448C153.177 54.3039 153.025 54.5243 152.922 54.8061C152.819 55.088 152.767 55.4144 152.767 55.7855C152.767 56.1594 152.819 56.4901 152.922 56.7775C153.028 57.0621 153.18 57.2853 153.378 57.4472C153.579 57.6062 153.826 57.6858 154.119 57.6858ZM160.511 59.1214C160.101 59.1214 159.735 59.0502 159.415 58.9079C159.094 58.7628 158.84 58.5494 158.653 58.2675C158.469 57.9829 158.377 57.6286 158.377 57.2044C158.377 56.8473 158.442 56.5473 158.573 56.3045C158.704 56.0618 158.883 55.8665 159.109 55.7186C159.335 55.5707 159.592 55.4591 159.879 55.3837C160.169 55.3084 160.473 55.2554 160.792 55.2247C161.165 55.1856 161.467 55.1493 161.696 55.1159C161.924 55.0796 162.09 55.0266 162.194 54.9568C162.297 54.8871 162.349 54.7838 162.349 54.6471V54.622C162.349 54.3569 162.265 54.1518 162.097 54.0067C161.933 53.8616 161.698 53.7891 161.394 53.7891C161.073 53.7891 160.818 53.8602 160.628 54.0025C160.439 54.142 160.313 54.3178 160.252 54.5299L158.603 54.396C158.686 54.0053 158.851 53.6677 159.096 53.3831C159.342 53.0957 159.659 52.8752 160.047 52.7218C160.437 52.5655 160.889 52.4874 161.403 52.4874C161.76 52.4874 162.102 52.5292 162.428 52.6129C162.757 52.6966 163.049 52.8264 163.303 53.0022C163.56 53.178 163.762 53.404 163.91 53.6802C164.058 53.9537 164.132 54.2815 164.132 54.6638V59H162.441V58.1085H162.39C162.287 58.3094 162.149 58.4866 161.976 58.64C161.803 58.7907 161.595 58.9093 161.352 58.9958C161.11 59.0795 160.829 59.1214 160.511 59.1214ZM161.022 57.8908C161.284 57.8908 161.516 57.8392 161.717 57.736C161.917 57.6299 162.075 57.4876 162.19 57.3091C162.304 57.1305 162.361 56.9282 162.361 56.7022V56.0199C162.305 56.0562 162.229 56.0897 162.131 56.1204C162.036 56.1483 161.929 56.1748 161.809 56.1999C161.689 56.2222 161.569 56.2432 161.449 56.2627C161.329 56.2794 161.22 56.2948 161.122 56.3087C160.913 56.3394 160.73 56.3882 160.574 56.4552C160.418 56.5222 160.296 56.6129 160.21 56.7273C160.123 56.8389 160.08 56.9784 160.08 57.1458C160.08 57.3886 160.168 57.5741 160.344 57.7025C160.522 57.8281 160.748 57.8908 161.022 57.8908ZM165.515 59V52.5711H167.244V53.6928H167.31C167.428 53.2938 167.624 52.9924 167.901 52.7887C168.177 52.5822 168.495 52.479 168.855 52.479C168.944 52.479 169.04 52.4846 169.144 52.4957C169.247 52.5069 169.338 52.5222 169.416 52.5418V54.1239C169.332 54.0988 169.216 54.0765 169.068 54.0569C168.921 54.0374 168.785 54.0276 168.662 54.0276C168.4 54.0276 168.166 54.0848 167.959 54.1992C167.756 54.3108 167.594 54.4671 167.474 54.668C167.357 54.8689 167.298 55.1005 167.298 55.3628V59H165.515ZM172.407 59.1046C171.919 59.1046 171.477 58.9791 171.081 58.7279C170.687 58.474 170.375 58.1015 170.143 57.6104C169.914 57.1165 169.8 56.511 169.8 55.7939C169.8 55.0573 169.918 54.4448 170.156 53.9565C170.393 53.4654 170.708 53.0984 171.101 52.8557C171.498 52.6101 171.932 52.4874 172.403 52.4874C172.763 52.4874 173.063 52.5488 173.303 52.6715C173.546 52.7915 173.741 52.9422 173.889 53.1236C174.04 53.3021 174.154 53.4779 174.232 53.6509H174.287V50.4281H176.065V59H174.308V57.9704H174.232C174.149 58.1489 174.03 58.3261 173.876 58.5019C173.726 58.6749 173.529 58.8186 173.286 58.933C173.046 59.0474 172.753 59.1046 172.407 59.1046ZM172.972 57.6858C173.26 57.6858 173.503 57.6076 173.701 57.4514C173.902 57.2923 174.055 57.0705 174.161 56.7859C174.27 56.5013 174.324 56.1678 174.324 55.7855C174.324 55.4033 174.271 55.0712 174.165 54.7894C174.059 54.5076 173.906 54.2899 173.705 54.1365C173.504 53.983 173.26 53.9062 172.972 53.9062C172.679 53.9062 172.432 53.9858 172.232 54.1448C172.031 54.3039 171.879 54.5243 171.775 54.8061C171.672 55.088 171.62 55.4144 171.62 55.7855C171.62 56.1594 171.672 56.4901 171.775 56.7775C171.881 57.0621 172.033 57.2853 172.232 57.4472C172.432 57.6062 172.679 57.6858 172.972 57.6858ZM187.856 53.4291H186.023C185.989 53.1919 185.921 52.9813 185.818 52.7971C185.714 52.6101 185.582 52.4511 185.42 52.3199C185.258 52.1888 185.071 52.0883 184.859 52.0186C184.65 51.9488 184.423 51.914 184.177 51.914C183.733 51.914 183.347 52.0242 183.018 52.2446C182.688 52.4623 182.433 52.7804 182.252 53.1989C182.07 53.6147 181.98 54.1197 181.98 54.7141C181.98 55.3251 182.07 55.8386 182.252 56.2543C182.436 56.6701 182.693 56.984 183.022 57.1961C183.351 57.4081 183.732 57.5141 184.164 57.5141C184.407 57.5141 184.632 57.4821 184.838 57.4179C185.048 57.3537 185.233 57.2602 185.395 57.1375C185.557 57.0119 185.691 56.8598 185.797 56.6812C185.906 56.5027 185.981 56.299 186.023 56.0702L187.856 56.0785C187.809 56.472 187.69 56.8514 187.5 57.217C187.313 57.5797 187.061 57.9048 186.743 58.1922C186.427 58.4768 186.051 58.7028 185.613 58.8702C185.177 59.0349 184.685 59.1172 184.135 59.1172C183.371 59.1172 182.687 58.9442 182.084 58.5982C181.484 58.2522 181.01 57.7513 180.661 57.0956C180.315 56.4399 180.142 55.646 180.142 54.7141C180.142 53.7793 180.318 52.984 180.67 52.3283C181.021 51.6726 181.498 51.1731 182.101 50.8299C182.704 50.4839 183.382 50.3109 184.135 50.3109C184.632 50.3109 185.092 50.3807 185.516 50.5202C185.943 50.6597 186.321 50.8634 186.651 51.1313C186.98 51.3963 187.248 51.7214 187.454 52.1065C187.664 52.4916 187.797 52.9324 187.856 53.4291ZM189.122 59V52.5711H190.851V53.6928H190.918C191.035 53.2938 191.232 52.9924 191.508 52.7887C191.784 52.5822 192.102 52.479 192.462 52.479C192.551 52.479 192.648 52.4846 192.751 52.4957C192.854 52.5069 192.945 52.5222 193.023 52.5418V54.1239C192.939 54.0988 192.824 54.0765 192.676 54.0569C192.528 54.0374 192.392 54.0276 192.27 54.0276C192.007 54.0276 191.773 54.0848 191.566 54.1992C191.363 54.3108 191.201 54.4671 191.081 54.668C190.964 54.8689 190.905 55.1005 190.905 55.3628V59H189.122ZM195.241 61.4108C195.015 61.4108 194.803 61.3927 194.605 61.3564C194.41 61.323 194.248 61.2797 194.12 61.2267L194.521 59.8957C194.731 59.9599 194.919 59.9948 195.086 60.0003C195.257 60.0059 195.403 59.9668 195.526 59.8831C195.652 59.7994 195.753 59.6571 195.832 59.4562L195.936 59.1842L193.63 52.5711H195.505L196.836 57.2923H196.903L198.247 52.5711H200.134L197.635 59.6948C197.515 60.0408 197.352 60.3421 197.146 60.5989C196.942 60.8584 196.684 61.0579 196.371 61.1974C196.059 61.3397 195.682 61.4108 195.241 61.4108ZM201.047 61.4108V52.5711H202.805V53.6509H202.884C202.962 53.4779 203.075 53.3021 203.223 53.1236C203.374 52.9422 203.569 52.7915 203.809 52.6715C204.052 52.5488 204.353 52.4874 204.713 52.4874C205.182 52.4874 205.614 52.6101 206.011 52.8557C206.407 53.0984 206.724 53.4654 206.961 53.9565C207.198 54.4448 207.317 55.0573 207.317 55.7939C207.317 56.511 207.201 57.1165 206.969 57.6104C206.74 58.1015 206.428 58.474 206.032 58.7279C205.638 58.9791 205.197 59.1046 204.709 59.1046C204.363 59.1046 204.069 59.0474 203.826 58.933C203.586 58.8186 203.389 58.6749 203.236 58.5019C203.082 58.3261 202.965 58.1489 202.884 57.9704H202.83V61.4108H201.047ZM202.792 55.7855C202.792 56.1678 202.845 56.5013 202.951 56.7859C203.057 57.0705 203.211 57.2923 203.411 57.4514C203.612 57.6076 203.856 57.6858 204.144 57.6858C204.434 57.6858 204.68 57.6062 204.881 57.4472C205.081 57.2853 205.234 57.0621 205.337 56.7775C205.443 56.4901 205.496 56.1594 205.496 55.7855C205.496 55.4144 205.444 55.088 205.341 54.8061C205.238 54.5243 205.086 54.3039 204.885 54.1448C204.684 53.9858 204.437 53.9062 204.144 53.9062C203.854 53.9062 203.608 53.983 203.407 54.1365C203.209 54.2899 203.057 54.5076 202.951 54.7894C202.845 55.0712 202.792 55.4033 202.792 55.7855ZM211.925 52.5711V53.9104H208.053V52.5711H211.925ZM208.932 51.0308H210.715V57.0244C210.715 57.1891 210.74 57.3174 210.79 57.4095C210.841 57.4988 210.91 57.5616 211 57.5979C211.092 57.6341 211.198 57.6523 211.318 57.6523C211.402 57.6523 211.485 57.6453 211.569 57.6313C211.653 57.6146 211.717 57.602 211.762 57.5937L212.042 58.9205C211.953 58.9484 211.827 58.9805 211.665 59.0167C211.503 59.0558 211.307 59.0795 211.075 59.0879C210.645 59.1046 210.269 59.0474 209.945 58.9163C209.624 58.7851 209.374 58.5815 209.196 58.3052C209.017 58.029 208.929 57.6802 208.932 57.2588V51.0308ZM215.922 59.1256C215.272 59.1256 214.709 58.9874 214.235 58.7112C213.764 58.4322 213.399 58.0443 213.143 57.5476C212.886 57.0482 212.758 56.4692 212.758 55.8107C212.758 55.1466 212.886 54.5662 213.143 54.0695C213.399 53.57 213.764 53.1822 214.235 52.9059C214.709 52.6269 215.272 52.4874 215.922 52.4874C216.572 52.4874 217.133 52.6269 217.604 52.9059C218.079 53.1822 218.444 53.57 218.701 54.0695C218.958 54.5662 219.086 55.1466 219.086 55.8107C219.086 56.4692 218.958 57.0482 218.701 57.5476C218.444 58.0443 218.079 58.4322 217.604 58.7112C217.133 58.9874 216.572 59.1256 215.922 59.1256ZM215.93 57.7444C216.226 57.7444 216.473 57.6606 216.671 57.4932C216.869 57.323 217.018 57.0914 217.119 56.7984C217.222 56.5054 217.274 56.172 217.274 55.7981C217.274 55.4242 217.222 55.0907 217.119 54.7978C217.018 54.5048 216.869 54.2732 216.671 54.103C216.473 53.9328 216.226 53.8477 215.93 53.8477C215.632 53.8477 215.381 53.9328 215.177 54.103C214.976 54.2732 214.824 54.5048 214.721 54.7978C214.62 55.0907 214.57 55.4242 214.57 55.7981C214.57 56.172 214.62 56.5054 214.721 56.7984C214.824 57.0914 214.976 57.323 215.177 57.4932C215.381 57.6606 215.632 57.7444 215.93 57.7444ZM224.484 59H222.542L225.501 50.4281H227.837L230.792 59H228.85L226.703 52.3869H226.636L224.484 59ZM224.363 55.6307H228.95V57.0454H224.363V55.6307ZM234.396 59.1256C233.737 59.1256 233.171 58.986 232.696 58.707C232.225 58.4252 231.862 58.0345 231.608 57.5351C231.357 57.0356 231.231 56.4608 231.231 55.8107C231.231 55.1521 231.358 54.5745 231.612 54.0779C231.869 53.5784 232.233 53.1891 232.705 52.9101C233.176 52.6283 233.737 52.4874 234.387 52.4874C234.948 52.4874 235.439 52.5892 235.861 52.7929C236.282 52.9966 236.615 53.2826 236.861 53.6509C237.106 54.0193 237.242 54.4518 237.267 54.9484H235.584C235.537 54.6276 235.411 54.3694 235.208 54.1741C235.007 53.976 234.743 53.877 234.417 53.877C234.14 53.877 233.899 53.9523 233.692 54.103C233.489 54.2509 233.33 54.4671 233.215 54.7517C233.101 55.0363 233.044 55.3809 233.044 55.7855C233.044 56.1957 233.1 56.5445 233.211 56.8319C233.326 57.1193 233.486 57.3384 233.692 57.489C233.899 57.6397 234.14 57.7151 234.417 57.7151C234.62 57.7151 234.803 57.6732 234.965 57.5895C235.129 57.5058 235.265 57.3844 235.371 57.2253C235.48 57.0635 235.551 56.8696 235.584 56.6436H237.267C237.239 57.1347 237.105 57.5672 236.865 57.9411C236.628 58.3122 236.3 58.6024 235.881 58.8117C235.463 59.0209 234.968 59.1256 234.396 59.1256ZM241.313 59.1256C240.655 59.1256 240.088 58.986 239.614 58.707C239.142 58.4252 238.78 58.0345 238.526 57.5351C238.275 57.0356 238.149 56.4608 238.149 55.8107C238.149 55.1521 238.276 54.5745 238.53 54.0779C238.787 53.5784 239.151 53.1891 239.622 52.9101C240.094 52.6283 240.655 52.4874 241.305 52.4874C241.866 52.4874 242.357 52.5892 242.778 52.7929C243.199 52.9966 243.533 53.2826 243.778 53.6509C244.024 54.0193 244.159 54.4518 244.184 54.9484H242.502C242.454 54.6276 242.329 54.3694 242.125 54.1741C241.924 53.976 241.661 53.877 241.334 53.877C241.058 53.877 240.817 53.9523 240.61 54.103C240.406 54.2509 240.247 54.4671 240.133 54.7517C240.019 55.0363 239.961 55.3809 239.961 55.7855C239.961 56.1957 240.017 56.5445 240.129 56.8319C240.243 57.1193 240.404 57.3384 240.61 57.489C240.817 57.6397 241.058 57.7151 241.334 57.7151C241.538 57.7151 241.721 57.6732 241.882 57.5895C242.047 57.5058 242.182 57.3844 242.288 57.2253C242.397 57.0635 242.468 56.8696 242.502 56.6436H244.184C244.157 57.1347 244.023 57.5672 243.783 57.9411C243.545 58.3122 243.218 58.6024 242.799 58.8117C242.381 59.0209 241.885 59.1256 241.313 59.1256ZM248.256 59.1256C247.595 59.1256 247.025 58.9916 246.548 58.7238C246.074 58.4531 245.708 58.0708 245.452 57.5769C245.195 57.0803 245.067 56.4929 245.067 55.8148C245.067 55.1535 245.195 54.5731 245.452 54.0737C245.708 53.5742 246.07 53.1849 246.536 52.9059C247.004 52.6269 247.554 52.4874 248.185 52.4874C248.609 52.4874 249.004 52.5557 249.369 52.6925C249.738 52.8264 250.058 53.0287 250.332 53.2994C250.608 53.57 250.823 53.9104 250.976 54.3206C251.13 54.728 251.207 55.2051 251.207 55.7521V56.2418H245.778V55.1368H249.528C249.528 54.8801 249.472 54.6527 249.361 54.4545C249.249 54.2564 249.094 54.1016 248.896 53.99C248.701 53.8756 248.474 53.8184 248.214 53.8184C247.943 53.8184 247.703 53.8811 247.494 54.0067C247.288 54.1295 247.126 54.2955 247.009 54.5048C246.891 54.7113 246.831 54.9415 246.829 55.1954V56.2459C246.829 56.564 246.887 56.8389 247.004 57.0705C247.124 57.3021 247.293 57.4807 247.511 57.6062C247.729 57.7318 247.987 57.7946 248.285 57.7946C248.483 57.7946 248.665 57.7667 248.829 57.7109C248.994 57.6551 249.135 57.5714 249.252 57.4597C249.369 57.3481 249.459 57.2114 249.52 57.0496L251.169 57.1584C251.085 57.5546 250.914 57.9006 250.654 58.1964C250.397 58.4894 250.065 58.7182 249.658 58.8828C249.253 59.0446 248.786 59.1256 248.256 59.1256ZM252.37 61.4108V52.5711H254.128V53.6509H254.208C254.286 53.4779 254.399 53.3021 254.547 53.1236C254.697 52.9422 254.893 52.7915 255.133 52.6715C255.375 52.5488 255.677 52.4874 256.037 52.4874C256.506 52.4874 256.938 52.6101 257.334 52.8557C257.73 53.0984 258.047 53.4654 258.284 53.9565C258.522 54.4448 258.64 55.0573 258.64 55.7939C258.64 56.511 258.524 57.1165 258.293 57.6104C258.064 58.1015 257.751 58.474 257.355 58.7279C256.962 58.9791 256.521 59.1046 256.033 59.1046C255.687 59.1046 255.392 59.0474 255.149 58.933C254.909 58.8186 254.713 58.6749 254.559 58.5019C254.406 58.3261 254.289 58.1489 254.208 57.9704H254.153V61.4108H252.37ZM254.116 55.7855C254.116 56.1678 254.169 56.5013 254.275 56.7859C254.381 57.0705 254.534 57.2923 254.735 57.4514C254.936 57.6076 255.18 57.6858 255.468 57.6858C255.758 57.6858 256.003 57.6062 256.204 57.4472C256.405 57.2853 256.557 57.0621 256.66 56.7775C256.766 56.4901 256.819 56.1594 256.819 55.7855C256.819 55.4144 256.768 55.088 256.665 54.8061C256.561 54.5243 256.409 54.3039 256.208 54.1448C256.007 53.9858 255.761 53.9062 255.468 53.9062C255.177 53.9062 254.932 53.983 254.731 54.1365C254.533 54.2899 254.381 54.5076 254.275 54.7894C254.169 55.0712 254.116 55.4033 254.116 55.7855ZM263.248 52.5711V53.9104H259.377V52.5711H263.248ZM260.256 51.0308H262.039V57.0244C262.039 57.1891 262.064 57.3174 262.114 57.4095C262.164 57.4988 262.234 57.5616 262.323 57.5979C262.415 57.6341 262.521 57.6523 262.641 57.6523C262.725 57.6523 262.809 57.6453 262.893 57.6313C262.976 57.6146 263.04 57.602 263.085 57.5937L263.366 58.9205C263.276 58.9484 263.151 58.9805 262.989 59.0167C262.827 59.0558 262.63 59.0795 262.399 59.0879C261.969 59.1046 261.592 59.0474 261.269 58.9163C260.948 58.7851 260.698 58.5815 260.519 58.3052C260.341 58.029 260.253 57.6802 260.256 57.2588V51.0308ZM266.243 59.1214C265.833 59.1214 265.467 59.0502 265.146 58.9079C264.826 58.7628 264.572 58.5494 264.385 58.2675C264.201 57.9829 264.108 57.6286 264.108 57.2044C264.108 56.8473 264.174 56.5473 264.305 56.3045C264.436 56.0618 264.615 55.8665 264.841 55.7186C265.067 55.5707 265.324 55.4591 265.611 55.3837C265.901 55.3084 266.205 55.2554 266.524 55.2247C266.897 55.1856 267.199 55.1493 267.428 55.1159C267.656 55.0796 267.822 55.0266 267.926 54.9568C268.029 54.8871 268.081 54.7838 268.081 54.6471V54.622C268.081 54.3569 267.997 54.1518 267.829 54.0067C267.665 53.8616 267.43 53.7891 267.126 53.7891C266.805 53.7891 266.55 53.8602 266.36 54.0025C266.171 54.142 266.045 54.3178 265.984 54.5299L264.334 54.396C264.418 54.0053 264.583 53.6677 264.828 53.3831C265.074 53.0957 265.391 52.8752 265.778 52.7218C266.169 52.5655 266.621 52.4874 267.135 52.4874C267.492 52.4874 267.834 52.5292 268.16 52.6129C268.489 52.6966 268.781 52.8264 269.035 53.0022C269.292 53.178 269.494 53.404 269.642 53.6802C269.79 53.9537 269.864 54.2815 269.864 54.6638V59H268.173V58.1085H268.122C268.019 58.3094 267.881 58.4866 267.708 58.64C267.535 58.7907 267.327 58.9093 267.084 58.9958C266.842 59.0795 266.561 59.1214 266.243 59.1214ZM266.754 57.8908C267.016 57.8908 267.248 57.8392 267.449 57.736C267.649 57.6299 267.807 57.4876 267.921 57.3091C268.036 57.1305 268.093 56.9282 268.093 56.7022V56.0199C268.037 56.0562 267.961 56.0897 267.863 56.1204C267.768 56.1483 267.661 56.1748 267.541 56.1999C267.421 56.2222 267.301 56.2432 267.181 56.2627C267.061 56.2794 266.952 56.2948 266.854 56.3087C266.645 56.3394 266.462 56.3882 266.306 56.4552C266.15 56.5222 266.028 56.6129 265.942 56.7273C265.855 56.8389 265.812 56.9784 265.812 57.1458C265.812 57.3886 265.9 57.5741 266.076 57.7025C266.254 57.8281 266.48 57.8908 266.754 57.8908ZM273.03 55.2833V59H271.247V52.5711H272.946V53.7053H273.021C273.164 53.3314 273.402 53.0357 273.737 52.818C274.072 52.5976 274.478 52.4874 274.955 52.4874C275.402 52.4874 275.791 52.585 276.123 52.7804C276.455 52.9757 276.713 53.2547 276.897 53.6175C277.081 53.9774 277.174 54.4071 277.174 54.9066V59H275.39V55.2247C275.393 54.8312 275.293 54.5243 275.089 54.3039C274.885 54.0806 274.605 53.969 274.248 53.969C274.008 53.969 273.796 54.0207 273.612 54.1239C273.43 54.2271 273.288 54.3778 273.185 54.5759C273.084 54.7713 273.033 55.007 273.03 55.2833ZM281.484 59.1256C280.825 59.1256 280.259 58.986 279.784 58.707C279.313 58.4252 278.95 58.0345 278.696 57.5351C278.445 57.0356 278.319 56.4608 278.319 55.8107C278.319 55.1521 278.446 54.5745 278.7 54.0779C278.957 53.5784 279.321 53.1891 279.793 52.9101C280.264 52.6283 280.825 52.4874 281.475 52.4874C282.036 52.4874 282.527 52.5892 282.948 52.7929C283.37 52.9966 283.703 53.2826 283.949 53.6509C284.194 54.0193 284.33 54.4518 284.355 54.9484H282.672C282.625 54.6276 282.499 54.3694 282.296 54.1741C282.095 53.976 281.831 53.877 281.504 53.877C281.228 53.877 280.987 53.9523 280.78 54.103C280.577 54.2509 280.418 54.4671 280.303 54.7517C280.189 55.0363 280.132 55.3809 280.132 55.7855C280.132 56.1957 280.187 56.5445 280.299 56.8319C280.413 57.1193 280.574 57.3384 280.78 57.489C280.987 57.6397 281.228 57.7151 281.504 57.7151C281.708 57.7151 281.891 57.6732 282.053 57.5895C282.217 57.5058 282.353 57.3844 282.459 57.2253C282.568 57.0635 282.639 56.8696 282.672 56.6436H284.355C284.327 57.1347 284.193 57.5672 283.953 57.9411C283.716 58.3122 283.388 58.6024 282.969 58.8117C282.551 59.0209 282.056 59.1256 281.484 59.1256ZM288.426 59.1256C287.765 59.1256 287.196 58.9916 286.719 58.7238C286.244 58.4531 285.879 58.0708 285.622 57.5769C285.365 57.0803 285.237 56.4929 285.237 55.8148C285.237 55.1535 285.365 54.5731 285.622 54.0737C285.879 53.5742 286.24 53.1849 286.706 52.9059C287.175 52.6269 287.724 52.4874 288.355 52.4874C288.779 52.4874 289.174 52.5557 289.54 52.6925C289.908 52.8264 290.229 53.0287 290.502 53.2994C290.778 53.57 290.993 53.9104 291.147 54.3206C291.3 54.728 291.377 55.2051 291.377 55.7521V56.2418H285.948V55.1368H289.699C289.699 54.8801 289.643 54.6527 289.531 54.4545C289.42 54.2564 289.265 54.1016 289.067 53.99C288.871 53.8756 288.644 53.8184 288.384 53.8184C288.114 53.8184 287.874 53.8811 287.664 54.0067C287.458 54.1295 287.296 54.2955 287.179 54.5048C287.062 54.7113 287.002 54.9415 286.999 55.1954V56.2459C286.999 56.564 287.058 56.8389 287.175 57.0705C287.295 57.3021 287.464 57.4807 287.681 57.6062C287.899 57.7318 288.157 57.7946 288.456 57.7946C288.654 57.7946 288.835 57.7667 289 57.7109C289.164 57.6551 289.305 57.5714 289.422 57.4597C289.54 57.3481 289.629 57.2114 289.69 57.0496L291.339 57.1584C291.256 57.5546 291.084 57.9006 290.825 58.1964C290.568 58.4894 290.236 58.7182 289.828 58.8828C289.424 59.0446 288.956 59.1256 288.426 59.1256Z" fill="#6F6F6F"/>
<path d="M108.727 46H97.2713C95.4635 46 93.998 47.4635 93.998 49.2689V60.71C93.998 62.5153 95.4635 63.9789 97.2713 63.9789H108.727C110.535 63.9789 112.001 62.5153 112.001 60.71V49.2689C112.001 47.4635 110.535 46 108.727 46Z" fill="url(#paint0_radial_3_2136)"/>
<path d="M103.503 51.3818C103.503 51.968 102.193 52.4432 100.578 52.4432C98.9628 52.4432 97.6533 51.968 97.6533 51.3818M103.503 51.3818C103.503 50.796 102.193 50.3208 100.578 50.3208C98.9628 50.3208 97.6533 50.796 97.6533 51.3818M103.503 51.3818V52.1776M97.6533 51.3818V57.7487C97.6533 58.3349 98.9628 58.8102 100.578 58.8102M100.578 54.5652C100.488 54.5652 100.4 54.5639 100.312 54.5612C98.8215 54.5125 97.6533 54.0577 97.6533 53.5042M100.578 56.6877C98.9628 56.6877 97.6533 56.2125 97.6533 55.6267M108.289 54.8308C108.289 55.4166 106.98 55.8918 105.364 55.8918C103.749 55.8918 102.439 55.4166 102.439 54.8308M108.289 54.8308C108.289 54.2446 106.98 53.7694 105.364 53.7694C103.749 53.7694 102.439 54.2446 102.439 54.8308M108.289 54.8308V58.8102C108.289 59.3959 106.98 59.8712 105.364 59.8712C103.749 59.8712 102.439 59.3959 102.439 58.8102V54.8308M108.289 56.8205C108.289 57.4063 106.98 57.8815 105.364 57.8815C103.749 57.8815 102.439 57.4063 102.439 56.8205" stroke="white" stroke-width="0.43411" stroke-linecap="round" stroke-linejoin="round"/>
<path d="M108.727 110H97.2713C95.4635 110 93.998 111.464 93.998 113.269V124.71C93.998 126.515 95.4635 127.979 97.2713 127.979H108.727C110.535 127.979 112.001 126.515 112.001 124.71V113.269C112.001 111.464 110.535 110 108.727 110Z" fill="url(#paint1_radial_3_2136)"/>
<path d="M103.503 115.382C103.503 115.968 102.193 116.443 100.578 116.443C98.9628 116.443 97.6533 115.968 97.6533 115.382M103.503 115.382C103.503 114.796 102.193 114.321 100.578 114.321C98.9628 114.321 97.6533 114.796 97.6533 115.382M103.503 115.382V116.178M97.6533 115.382V121.749C97.6533 122.335 98.9628 122.81 100.578 122.81M100.578 118.565C100.488 118.565 100.4 118.564 100.312 118.561C98.8215 118.512 97.6533 118.058 97.6533 117.504M100.578 120.688C98.9628 120.688 97.6533 120.212 97.6533 119.627M108.289 118.831C108.289 119.417 106.98 119.892 105.364 119.892C103.749 119.892 102.439 119.417 102.439 118.831M108.289 118.831C108.289 118.245 106.98 117.769 105.364 117.769C103.749 117.769 102.439 118.245 102.439 118.831M108.289 118.831V122.81C108.289 123.396 106.98 123.871 105.364 123.871C103.749 123.871 102.439 123.396 102.439 122.81V118.831M108.289 120.821C108.289 121.406 106.98 121.882 105.364 121.882C103.749 121.882 102.439 121.406 102.439 120.821" stroke="white" stroke-width="0.43411" stroke-linecap="round" stroke-linejoin="round"/>
<path d="M108.729 142H97.2732C95.4655 142 94 143.464 94 145.269V156.71C94 158.515 95.4655 159.979 97.2732 159.979H108.729C110.537 159.979 112.003 158.515 112.003 156.71V145.269C112.003 143.464 110.537 142 108.729 142Z" fill="url(#paint2_radial_3_2136)"/>
<path d="M103.505 147.382C103.505 147.968 102.195 148.443 100.58 148.443C98.9647 148.443 97.6553 147.968 97.6553 147.382M103.505 147.382C103.505 146.796 102.195 146.321 100.58 146.321C98.9647 146.321 97.6553 146.796 97.6553 147.382M103.505 147.382V148.178M97.6553 147.382V153.749C97.6553 154.335 98.9647 154.81 100.58 154.81M100.58 150.565C100.49 150.565 100.402 150.564 100.314 150.561C98.8235 150.512 97.6553 150.058 97.6553 149.504M100.58 152.688C98.9647 152.688 97.6553 152.212 97.6553 151.627M108.291 150.831C108.291 151.417 106.981 151.892 105.366 151.892C103.751 151.892 102.441 151.417 102.441 150.831M108.291 150.831C108.291 150.245 106.981 149.769 105.366 149.769C103.751 149.769 102.441 150.245 102.441 150.831M108.291 150.831V154.81C108.291 155.396 106.981 155.871 105.366 155.871C103.751 155.871 102.441 155.396 102.441 154.81V150.831M108.291 152.821C108.291 153.406 106.981 153.882 105.366 153.882C103.751 153.882 102.441 153.406 102.441 152.821" stroke="white" stroke-width="0.43411" stroke-linecap="round" stroke-linejoin="round"/>
<path d="M108.727 78H97.2713C95.4635 78 93.998 79.4635 93.998 81.2689V92.71C93.998 94.5153 95.4635 95.9789 97.2713 95.9789H108.727C110.535 95.9789 112.001 94.5153 112.001 92.71V81.2689C112.001 79.4635 110.535 78 108.727 78Z" fill="url(#paint3_radial_3_2136)"/>
<path d="M103.503 83.3818C103.503 83.968 102.193 84.4432 100.578 84.4432C98.9628 84.4432 97.6533 83.968 97.6533 83.3818M103.503 83.3818C103.503 82.796 102.193 82.3208 100.578 82.3208C98.9628 82.3208 97.6533 82.796 97.6533 83.3818M103.503 83.3818V84.1776M97.6533 83.3818V89.7487C97.6533 90.3349 98.9628 90.8102 100.578 90.8102M100.578 86.5652C100.488 86.5652 100.4 86.5639 100.312 86.5612C98.8215 86.5125 97.6533 86.0577 97.6533 85.5042M100.578 88.6877C98.9628 88.6877 97.6533 88.2125 97.6533 87.6267M108.289 86.8308C108.289 87.4166 106.98 87.8918 105.364 87.8918C103.749 87.8918 102.439 87.4166 102.439 86.8308M108.289 86.8308C108.289 86.2446 106.98 85.7694 105.364 85.7694C103.749 85.7694 102.439 86.2446 102.439 86.8308M108.289 86.8308V90.8102C108.289 91.3959 106.98 91.8712 105.364 91.8712C103.749 91.8712 102.439 91.3959 102.439 90.8102V86.8308M108.289 88.8205C108.289 89.4063 106.98 89.8815 105.364 89.8815C103.749 89.8815 102.439 89.4063 102.439 88.8205" stroke="white" stroke-width="0.43411" stroke-linecap="round" stroke-linejoin="round"/>
<line x1="90" y1="102.531" x2="297" y2="102.531" stroke="#E7E7E7" stroke-width="0.938537"/>
<path d="M124.419 83.9223V82.4281H131.459V83.9223H128.834V91H127.043V83.9223H124.419ZM134.557 91.1256C133.907 91.1256 133.344 90.9874 132.87 90.7112C132.399 90.4322 132.034 90.0443 131.778 89.5476C131.521 89.0482 131.393 88.4692 131.393 87.8107C131.393 87.1466 131.521 86.5662 131.778 86.0695C132.034 85.57 132.399 85.1822 132.87 84.9059C133.344 84.6269 133.907 84.4874 134.557 84.4874C135.207 84.4874 135.768 84.6269 136.239 84.9059C136.714 85.1822 137.079 85.57 137.336 86.0695C137.593 86.5662 137.721 87.1466 137.721 87.8107C137.721 88.4692 137.593 89.0482 137.336 89.5476C137.079 90.0443 136.714 90.4322 136.239 90.7112C135.768 90.9874 135.207 91.1256 134.557 91.1256ZM134.565 89.7444C134.861 89.7444 135.108 89.6606 135.306 89.4932C135.504 89.323 135.653 89.0914 135.754 88.7984C135.857 88.5054 135.909 88.172 135.909 87.7981C135.909 87.4242 135.857 87.0907 135.754 86.7978C135.653 86.5048 135.504 86.2732 135.306 86.103C135.108 85.9328 134.861 85.8477 134.565 85.8477C134.267 85.8477 134.016 85.9328 133.812 86.103C133.611 86.2732 133.459 86.5048 133.356 86.7978C133.255 87.0907 133.205 87.4242 133.205 87.7981C133.205 88.172 133.255 88.5054 133.356 88.7984C133.459 89.0914 133.611 89.323 133.812 89.4932C134.016 89.6606 134.267 89.7444 134.565 89.7444ZM140.496 89.15L140.5 87.0112H140.76L142.819 84.5711H144.866L142.099 87.8023H141.676L140.496 89.15ZM138.88 91V82.4281H140.664V91H138.88ZM142.899 91L141.007 88.1999L142.195 86.9401L144.987 91H142.899ZM148.406 91.1256C147.744 91.1256 147.175 90.9916 146.698 90.7238C146.224 90.4531 145.858 90.0708 145.601 89.5769C145.345 89.0803 145.216 88.4929 145.216 87.8148C145.216 87.1535 145.345 86.5731 145.601 86.0737C145.858 85.5742 146.219 85.1849 146.685 84.9059C147.154 84.6269 147.704 84.4874 148.334 84.4874C148.759 84.4874 149.153 84.5557 149.519 84.6925C149.887 84.8264 150.208 85.0287 150.482 85.2994C150.758 85.57 150.973 85.9104 151.126 86.3206C151.28 86.728 151.356 87.2051 151.356 87.7521V88.2418H145.928V87.1368H149.678C149.678 86.8801 149.622 86.6527 149.511 86.4545C149.399 86.2564 149.244 86.1016 149.046 85.99C148.851 85.8756 148.623 85.8184 148.364 85.8184C148.093 85.8184 147.853 85.8811 147.644 86.0067C147.437 86.1295 147.276 86.2955 147.158 86.5048C147.041 86.7113 146.981 86.9415 146.978 87.1954V88.2459C146.978 88.564 147.037 88.8389 147.154 89.0705C147.274 89.3021 147.443 89.4807 147.661 89.6062C147.878 89.7318 148.136 89.7946 148.435 89.7946C148.633 89.7946 148.814 89.7667 148.979 89.7109C149.144 89.6551 149.285 89.5714 149.402 89.4597C149.519 89.3481 149.608 89.2114 149.67 89.0496L151.319 89.1584C151.235 89.5546 151.063 89.9006 150.804 90.1964C150.547 90.4894 150.215 90.7182 149.808 90.8828C149.403 91.0446 148.936 91.1256 148.406 91.1256ZM154.303 87.2833V91H152.52V84.5711H154.219V85.7053H154.295C154.437 85.3314 154.676 85.0357 155.01 84.818C155.345 84.5976 155.751 84.4874 156.228 84.4874C156.675 84.4874 157.064 84.585 157.396 84.7804C157.728 84.9757 157.986 85.2547 158.17 85.6175C158.355 85.9774 158.447 86.4071 158.447 86.9066V91H156.664V87.2247C156.666 86.8312 156.566 86.5243 156.362 86.3039C156.159 86.0806 155.878 85.969 155.521 85.969C155.281 85.969 155.069 86.0207 154.885 86.1239C154.703 86.2271 154.561 86.3778 154.458 86.5759C154.357 86.7713 154.306 87.007 154.303 87.2833ZM167.263 84.8934C167.23 84.5557 167.086 84.2934 166.832 84.1065C166.578 83.9195 166.234 83.8261 165.798 83.8261C165.503 83.8261 165.253 83.8679 165.049 83.9516C164.846 84.0325 164.689 84.1456 164.58 84.2906C164.474 84.4357 164.421 84.6004 164.421 84.7845C164.416 84.938 164.448 85.0719 164.518 85.1863C164.59 85.3007 164.689 85.3998 164.815 85.4835C164.94 85.5644 165.086 85.6356 165.25 85.697C165.415 85.7556 165.591 85.8058 165.778 85.8477L166.548 86.0318C166.922 86.1155 167.265 86.2271 167.577 86.3667C167.89 86.5062 168.16 86.6778 168.389 86.8815C168.618 87.0852 168.795 87.3251 168.921 87.6014C169.049 87.8776 169.115 88.1943 169.118 88.5515C169.115 89.0761 168.981 89.5309 168.716 89.916C168.453 90.2982 168.074 90.5954 167.577 90.8075C167.083 91.0167 166.488 91.1214 165.79 91.1214C165.098 91.1214 164.495 91.0153 163.982 90.8033C163.471 90.5912 163.072 90.2773 162.785 89.8615C162.5 89.443 162.351 88.9254 162.337 88.3087H164.091C164.11 88.5961 164.193 88.8361 164.338 89.0286C164.486 89.2184 164.682 89.3621 164.928 89.4597C165.176 89.5546 165.457 89.602 165.769 89.602C166.076 89.602 166.343 89.5574 166.569 89.4681C166.797 89.3788 166.975 89.2546 167.1 89.0956C167.226 88.9365 167.289 88.7538 167.289 88.5473C167.289 88.3548 167.231 88.1929 167.117 88.0618C167.005 87.9306 166.841 87.819 166.623 87.7269C166.408 87.6349 166.144 87.5512 165.832 87.4758L164.899 87.2414C164.176 87.0656 163.605 86.7908 163.187 86.4169C162.768 86.043 162.56 85.5393 162.563 84.9059C162.56 84.3869 162.698 83.9335 162.977 83.5456C163.259 83.1578 163.646 82.855 164.137 82.6374C164.628 82.4197 165.186 82.3109 165.811 82.3109C166.447 82.3109 167.002 82.4197 167.477 82.6374C167.954 82.855 168.325 83.1578 168.59 83.5456C168.855 83.9335 168.992 84.3827 169 84.8934H167.263ZM171.571 91L169.822 84.5711H171.626L172.622 88.8905H172.68L173.718 84.5711H175.489L176.544 88.8654H176.598L177.578 84.5711H179.377L177.632 91H175.744L174.639 86.9568H174.56L173.455 91H171.571ZM182.162 91.1214C181.751 91.1214 181.386 91.0502 181.065 90.9079C180.744 90.7628 180.49 90.5494 180.303 90.2675C180.119 89.9829 180.027 89.6286 180.027 89.2044C180.027 88.8473 180.093 88.5473 180.224 88.3045C180.355 88.0618 180.534 87.8665 180.76 87.7186C180.986 87.5707 181.242 87.4591 181.53 87.3837C181.82 87.3084 182.124 87.2554 182.442 87.2247C182.816 87.1856 183.117 87.1493 183.346 87.1159C183.575 87.0796 183.741 87.0266 183.844 86.9568C183.947 86.8871 183.999 86.7838 183.999 86.6471V86.622C183.999 86.3569 183.915 86.1518 183.748 86.0067C183.583 85.8616 183.349 85.7891 183.045 85.7891C182.724 85.7891 182.469 85.8602 182.279 86.0025C182.089 86.142 181.964 86.3178 181.902 86.5299L180.253 86.396C180.337 86.0053 180.501 85.6677 180.747 85.3831C180.993 85.0957 181.309 84.8752 181.697 84.7218C182.088 84.5655 182.54 84.4874 183.053 84.4874C183.41 84.4874 183.752 84.5292 184.079 84.6129C184.408 84.6966 184.699 84.8264 184.953 85.0022C185.21 85.178 185.412 85.404 185.56 85.6802C185.708 85.9537 185.782 86.2815 185.782 86.6638V91H184.091V90.1085H184.041C183.938 90.3094 183.8 90.4866 183.627 90.64C183.454 90.7907 183.246 90.9093 183.003 90.9958C182.76 91.0795 182.48 91.1214 182.162 91.1214ZM182.672 89.8908C182.935 89.8908 183.166 89.8392 183.367 89.736C183.568 89.6299 183.726 89.4876 183.84 89.3091C183.954 89.1305 184.012 88.9282 184.012 88.7022V88.0199C183.956 88.0562 183.879 88.0897 183.781 88.1204C183.687 88.1483 183.579 88.1748 183.459 88.1999C183.339 88.2222 183.219 88.2432 183.099 88.2627C182.979 88.2794 182.87 88.2948 182.773 88.3087C182.563 88.3394 182.381 88.3882 182.224 88.4552C182.068 88.5222 181.947 88.6129 181.86 88.7273C181.774 88.8389 181.731 88.9784 181.731 89.1458C181.731 89.3886 181.818 89.5741 181.994 89.7025C182.173 89.8281 182.399 89.8908 182.672 89.8908ZM187.165 93.4108V84.5711H188.923V85.6509H189.003C189.081 85.4779 189.194 85.3021 189.342 85.1236C189.493 84.9422 189.688 84.7915 189.928 84.6715C190.171 84.5488 190.472 84.4874 190.832 84.4874C191.301 84.4874 191.733 84.6101 192.129 84.8557C192.526 85.0984 192.842 85.4654 193.08 85.9565C193.317 86.4448 193.435 87.0573 193.435 87.7939C193.435 88.511 193.32 89.1165 193.088 89.6104C192.859 90.1015 192.547 90.474 192.15 90.7279C191.757 90.9791 191.316 91.1046 190.828 91.1046C190.482 91.1046 190.187 91.0474 189.945 90.933C189.705 90.8186 189.508 90.6749 189.354 90.5019C189.201 90.3261 189.084 90.1489 189.003 89.9704H188.948V93.4108H187.165ZM188.911 87.7855C188.911 88.1678 188.964 88.5013 189.07 88.7859C189.176 89.0705 189.329 89.2923 189.53 89.4514C189.731 89.6076 189.975 89.6858 190.263 89.6858C190.553 89.6858 190.798 89.6062 190.999 89.4472C191.2 89.2853 191.352 89.0621 191.456 88.7775C191.562 88.4901 191.615 88.1594 191.615 87.7855C191.615 87.4144 191.563 87.088 191.46 86.8061C191.357 86.5243 191.204 86.3039 191.004 86.1448C190.803 85.9858 190.556 85.9062 190.263 85.9062C189.973 85.9062 189.727 85.983 189.526 86.1365C189.328 86.2899 189.176 86.5076 189.07 86.7894C188.964 87.0712 188.911 87.4033 188.911 87.7855Z" fill="#6F6F6F"/>
<line x1="90" y1="134.531" x2="297" y2="134.531" stroke="#E7E7E7" stroke-width="0.938537"/>
<path d="M132.622 118.714C132.622 119.649 132.445 120.444 132.091 121.1C131.739 121.756 131.259 122.256 130.651 122.602C130.045 122.946 129.364 123.117 128.608 123.117C127.846 123.117 127.163 122.944 126.557 122.598C125.952 122.252 125.473 121.751 125.122 121.096C124.77 120.44 124.594 119.646 124.594 118.714C124.594 117.779 124.77 116.984 125.122 116.328C125.473 115.673 125.952 115.173 126.557 114.83C127.163 114.484 127.846 114.311 128.608 114.311C129.364 114.311 130.045 114.484 130.651 114.83C131.259 115.173 131.739 115.673 132.091 116.328C132.445 116.984 132.622 117.779 132.622 118.714ZM130.785 118.714C130.785 118.109 130.694 117.598 130.513 117.182C130.334 116.766 130.082 116.451 129.755 116.236C129.429 116.021 129.046 115.914 128.608 115.914C128.17 115.914 127.788 116.021 127.461 116.236C127.135 116.451 126.881 116.766 126.7 117.182C126.521 117.598 126.432 118.109 126.432 118.714C126.432 119.32 126.521 119.83 126.7 120.246C126.881 120.662 127.135 120.977 127.461 121.192C127.788 121.407 128.17 121.514 128.608 121.514C129.046 121.514 129.429 121.407 129.755 121.192C130.082 120.977 130.334 120.662 130.513 120.246C130.694 119.83 130.785 119.32 130.785 118.714ZM137.388 116.571V117.91H133.421V116.571H137.388ZM134.329 123V116.106C134.329 115.64 134.419 115.254 134.601 114.947C134.785 114.64 135.036 114.41 135.354 114.256C135.672 114.103 136.034 114.026 136.438 114.026C136.712 114.026 136.961 114.047 137.187 114.089C137.416 114.131 137.586 114.169 137.698 114.202L137.38 115.541C137.31 115.519 137.224 115.498 137.12 115.479C137.02 115.459 136.917 115.449 136.811 115.449C136.548 115.449 136.366 115.511 136.262 115.634C136.159 115.754 136.108 115.922 136.108 116.14V123H134.329ZM141.935 116.571V117.91H137.967V116.571H141.935ZM138.875 123V116.106C138.875 115.64 138.966 115.254 139.147 114.947C139.331 114.64 139.583 114.41 139.901 114.256C140.219 114.103 140.58 114.026 140.985 114.026C141.258 114.026 141.508 114.047 141.734 114.089C141.963 114.131 142.133 114.169 142.245 114.202L141.926 115.541C141.857 115.519 141.77 115.498 141.667 115.479C141.567 115.459 141.463 115.449 141.357 115.449C141.095 115.449 140.912 115.511 140.809 115.634C140.706 115.754 140.654 115.922 140.654 116.14V123H138.875ZM146.799 118.773V120.187H142.89V118.773H146.799ZM148.352 123V114.428H151.734C152.382 114.428 152.934 114.544 153.392 114.775C153.852 115.004 154.202 115.329 154.442 115.751C154.685 116.169 154.806 116.662 154.806 117.228C154.806 117.797 154.684 118.287 154.438 118.697C154.192 119.105 153.837 119.417 153.371 119.635C152.907 119.853 152.347 119.961 151.688 119.961H149.424V118.505H151.395C151.741 118.505 152.029 118.457 152.257 118.362C152.486 118.268 152.656 118.125 152.768 117.936C152.882 117.746 152.94 117.51 152.94 117.228C152.94 116.944 152.882 116.704 152.768 116.508C152.656 116.313 152.485 116.165 152.253 116.065C152.024 115.961 151.736 115.91 151.387 115.91H150.165V123H148.352ZM152.981 119.099L155.112 123H153.111L151.027 119.099H152.981ZM157.887 123.121C157.477 123.121 157.111 123.05 156.79 122.908C156.469 122.763 156.215 122.549 156.028 122.268C155.844 121.983 155.752 121.629 155.752 121.204C155.752 120.847 155.818 120.547 155.949 120.305C156.08 120.062 156.259 119.866 156.485 119.719C156.711 119.571 156.967 119.459 157.255 119.384C157.545 119.308 157.849 119.255 158.167 119.225C158.541 119.186 158.843 119.149 159.071 119.116C159.3 119.08 159.466 119.027 159.569 118.957C159.673 118.887 159.724 118.784 159.724 118.647V118.622C159.724 118.357 159.641 118.152 159.473 118.007C159.309 117.862 159.074 117.789 158.77 117.789C158.449 117.789 158.194 117.86 158.004 118.003C157.814 118.142 157.689 118.318 157.627 118.53L155.978 118.396C156.062 118.005 156.227 117.668 156.472 117.383C156.718 117.096 157.034 116.875 157.422 116.722C157.813 116.565 158.265 116.487 158.778 116.487C159.136 116.487 159.477 116.529 159.804 116.613C160.133 116.697 160.425 116.826 160.679 117.002C160.935 117.178 161.138 117.404 161.285 117.68C161.433 117.954 161.507 118.282 161.507 118.664V123H159.816V122.108H159.766C159.663 122.309 159.525 122.487 159.352 122.64C159.179 122.791 158.971 122.909 158.728 122.996C158.485 123.08 158.205 123.121 157.887 123.121ZM158.397 121.891C158.66 121.891 158.891 121.839 159.092 121.736C159.293 121.63 159.451 121.488 159.565 121.309C159.68 121.13 159.737 120.928 159.737 120.702V120.02C159.681 120.056 159.604 120.09 159.507 120.12C159.412 120.148 159.304 120.175 159.184 120.2C159.064 120.222 158.944 120.243 158.824 120.263C158.704 120.279 158.596 120.295 158.498 120.309C158.289 120.339 158.106 120.388 157.95 120.455C157.793 120.522 157.672 120.613 157.585 120.727C157.499 120.839 157.456 120.978 157.456 121.146C157.456 121.389 157.544 121.574 157.719 121.702C157.898 121.828 158.124 121.891 158.397 121.891ZM162.891 123V116.571H164.59V117.705H164.665C164.799 117.329 165.022 117.031 165.335 116.814C165.647 116.596 166.021 116.487 166.457 116.487C166.898 116.487 167.273 116.598 167.583 116.818C167.892 117.036 168.099 117.331 168.202 117.705H168.269C168.4 117.337 168.637 117.043 168.98 116.822C169.326 116.599 169.735 116.487 170.207 116.487C170.807 116.487 171.294 116.679 171.668 117.061C172.044 117.44 172.233 117.979 172.233 118.676V123H170.454V119.028C170.454 118.671 170.359 118.403 170.169 118.224C169.979 118.046 169.742 117.956 169.458 117.956C169.134 117.956 168.881 118.06 168.7 118.266C168.519 118.47 168.428 118.739 168.428 119.074V123H166.699V118.99C166.699 118.675 166.609 118.424 166.427 118.237C166.249 118.05 166.013 117.956 165.72 117.956C165.522 117.956 165.343 118.007 165.184 118.107C165.028 118.205 164.904 118.343 164.812 118.522C164.72 118.697 164.674 118.904 164.674 119.141V123H162.891ZM173.641 125.411V116.571H175.399V117.651H175.478C175.557 117.478 175.67 117.302 175.818 117.124C175.968 116.942 176.164 116.792 176.403 116.672C176.646 116.549 176.948 116.487 177.308 116.487C177.776 116.487 178.209 116.61 178.605 116.856C179.001 117.098 179.318 117.465 179.555 117.956C179.792 118.445 179.911 119.057 179.911 119.794C179.911 120.511 179.795 121.117 179.564 121.61C179.335 122.102 179.022 122.474 178.626 122.728C178.233 122.979 177.792 123.105 177.303 123.105C176.957 123.105 176.663 123.047 176.42 122.933C176.18 122.819 175.984 122.675 175.83 122.502C175.677 122.326 175.559 122.149 175.478 121.97H175.424V125.411H173.641ZM175.386 119.786C175.386 120.168 175.439 120.501 175.545 120.786C175.651 121.07 175.805 121.292 176.006 121.451C176.207 121.608 176.451 121.686 176.738 121.686C177.029 121.686 177.274 121.606 177.475 121.447C177.676 121.285 177.828 121.062 177.931 120.778C178.037 120.49 178.09 120.159 178.09 119.786C178.09 119.414 178.039 119.088 177.935 118.806C177.832 118.524 177.68 118.304 177.479 118.145C177.278 117.986 177.031 117.906 176.738 117.906C176.448 117.906 176.203 117.983 176.002 118.136C175.804 118.29 175.651 118.508 175.545 118.789C175.439 119.071 175.386 119.403 175.386 119.786ZM187.247 116.571V117.91H183.375V116.571H187.247ZM184.254 115.031H186.037V121.024C186.037 121.189 186.063 121.317 186.113 121.41C186.163 121.499 186.233 121.562 186.322 121.598C186.414 121.634 186.52 121.652 186.64 121.652C186.724 121.652 186.808 121.645 186.891 121.631C186.975 121.615 187.039 121.602 187.084 121.594L187.364 122.92C187.275 122.948 187.149 122.98 186.988 123.017C186.826 123.056 186.629 123.08 186.397 123.088C185.968 123.105 185.591 123.047 185.267 122.916C184.946 122.785 184.697 122.581 184.518 122.305C184.34 122.029 184.252 121.68 184.254 121.259V115.031ZM191.244 123.126C190.594 123.126 190.032 122.987 189.557 122.711C189.086 122.432 188.722 122.044 188.465 121.548C188.208 121.048 188.08 120.469 188.08 119.811C188.08 119.147 188.208 118.566 188.465 118.069C188.722 117.57 189.086 117.182 189.557 116.906C190.032 116.627 190.594 116.487 191.244 116.487C191.894 116.487 192.455 116.627 192.927 116.906C193.401 117.182 193.767 117.57 194.023 118.069C194.28 118.566 194.408 119.147 194.408 119.811C194.408 120.469 194.28 121.048 194.023 121.548C193.767 122.044 193.401 122.432 192.927 122.711C192.455 122.987 191.894 123.126 191.244 123.126ZM191.253 121.744C191.548 121.744 191.795 121.661 191.993 121.493C192.192 121.323 192.341 121.091 192.441 120.798C192.544 120.505 192.596 120.172 192.596 119.798C192.596 119.424 192.544 119.091 192.441 118.798C192.341 118.505 192.192 118.273 191.993 118.103C191.795 117.933 191.548 117.848 191.253 117.848C190.954 117.848 190.703 117.933 190.499 118.103C190.298 118.273 190.146 118.505 190.043 118.798C189.943 119.091 189.892 119.424 189.892 119.798C189.892 120.172 189.943 120.505 190.043 120.798C190.146 121.091 190.298 121.323 190.499 121.493C190.703 121.661 190.954 121.744 191.253 121.744ZM198.329 123V114.428H204.005V115.922H200.142V117.965H203.628V119.459H200.142V123H198.329ZM205.19 123V116.571H206.973V123H205.19ZM206.086 115.742C205.821 115.742 205.593 115.654 205.404 115.479C205.217 115.3 205.123 115.087 205.123 114.838C205.123 114.593 205.217 114.382 205.404 114.206C205.593 114.028 205.821 113.938 206.086 113.938C206.351 113.938 206.577 114.028 206.764 114.206C206.954 114.382 207.049 114.593 207.049 114.838C207.049 115.087 206.954 115.3 206.764 115.479C206.577 115.654 206.351 115.742 206.086 115.742ZM210.235 123.121C209.825 123.121 209.459 123.05 209.138 122.908C208.817 122.763 208.563 122.549 208.376 122.268C208.192 121.983 208.1 121.629 208.1 121.204C208.1 120.847 208.166 120.547 208.297 120.305C208.428 120.062 208.607 119.866 208.833 119.719C209.059 119.571 209.315 119.459 209.603 119.384C209.893 119.308 210.197 119.255 210.515 119.225C210.889 119.186 211.191 119.149 211.419 119.116C211.648 119.08 211.814 119.027 211.917 118.957C212.021 118.887 212.072 118.784 212.072 118.647V118.622C212.072 118.357 211.989 118.152 211.821 118.007C211.657 117.862 211.422 117.789 211.118 117.789C210.797 117.789 210.542 117.86 210.352 118.003C210.162 118.142 210.037 118.318 209.975 118.53L208.326 118.396C208.41 118.005 208.575 117.668 208.82 117.383C209.066 117.096 209.382 116.875 209.77 116.722C210.161 116.565 210.613 116.487 211.126 116.487C211.484 116.487 211.825 116.529 212.152 116.613C212.481 116.697 212.773 116.826 213.027 117.002C213.283 117.178 213.486 117.404 213.633 117.68C213.781 117.954 213.855 118.282 213.855 118.664V123H212.164V122.108H212.114C212.011 122.309 211.873 122.487 211.7 122.64C211.527 122.791 211.319 122.909 211.076 122.996C210.833 123.08 210.553 123.121 210.235 123.121ZM210.745 121.891C211.008 121.891 211.239 121.839 211.44 121.736C211.641 121.63 211.799 121.488 211.913 121.309C212.028 121.13 212.085 120.928 212.085 120.702V120.02C212.029 120.056 211.952 120.09 211.855 120.12C211.76 120.148 211.652 120.175 211.532 120.2C211.412 120.222 211.292 120.243 211.172 120.263C211.052 120.279 210.944 120.295 210.846 120.309C210.637 120.339 210.454 120.388 210.298 120.455C210.141 120.522 210.02 120.613 209.933 120.727C209.847 120.839 209.804 120.978 209.804 121.146C209.804 121.389 209.892 121.574 210.067 121.702C210.246 121.828 210.472 121.891 210.745 121.891ZM218.658 116.571V117.91H214.787V116.571H218.658ZM215.666 115.031H217.449V121.024C217.449 121.189 217.474 121.317 217.524 121.41C217.574 121.499 217.644 121.562 217.733 121.598C217.825 121.634 217.931 121.652 218.051 121.652C218.135 121.652 218.219 121.645 218.302 121.631C218.386 121.615 218.45 121.602 218.495 121.594L218.775 122.92C218.686 122.948 218.561 122.98 218.399 123.017C218.237 123.056 218.04 123.08 217.809 123.088C217.379 123.105 217.002 123.047 216.678 122.916C216.358 122.785 216.108 122.581 215.929 122.305C215.751 122.029 215.663 121.68 215.666 121.259V115.031Z" fill="#6F6F6F"/>
<line x1="90" y1="166.531" x2="297" y2="166.531" stroke="#E7E7E7" stroke-width="0.938537"/>
<path d="M132.622 150.714C132.622 151.649 132.445 152.444 132.091 153.1C131.739 153.756 131.259 154.256 130.651 154.602C130.045 154.946 129.364 155.117 128.608 155.117C127.846 155.117 127.163 154.944 126.557 154.598C125.952 154.252 125.473 153.751 125.122 153.096C124.77 152.44 124.594 151.646 124.594 150.714C124.594 149.779 124.77 148.984 125.122 148.328C125.473 147.673 125.952 147.173 126.557 146.83C127.163 146.484 127.846 146.311 128.608 146.311C129.364 146.311 130.045 146.484 130.651 146.83C131.259 147.173 131.739 147.673 132.091 148.328C132.445 148.984 132.622 149.779 132.622 150.714ZM130.785 150.714C130.785 150.109 130.694 149.598 130.513 149.182C130.334 148.766 130.082 148.451 129.755 148.236C129.429 148.021 129.046 147.914 128.608 147.914C128.17 147.914 127.788 148.021 127.461 148.236C127.135 148.451 126.881 148.766 126.7 149.182C126.521 149.598 126.432 150.109 126.432 150.714C126.432 151.32 126.521 151.83 126.7 152.246C126.881 152.662 127.135 152.977 127.461 153.192C127.788 153.407 128.17 153.514 128.608 153.514C129.046 153.514 129.429 153.407 129.755 153.192C130.082 152.977 130.334 152.662 130.513 152.246C130.694 151.83 130.785 151.32 130.785 150.714ZM135.714 151.283V155H133.931V148.571H135.63V149.705H135.706C135.848 149.331 136.087 149.036 136.422 148.818C136.756 148.598 137.162 148.487 137.639 148.487C138.086 148.487 138.475 148.585 138.807 148.78C139.139 148.976 139.397 149.255 139.582 149.617C139.766 149.977 139.858 150.407 139.858 150.907V155H138.075V151.225C138.078 150.831 137.977 150.524 137.773 150.304C137.57 150.081 137.289 149.969 136.932 149.969C136.692 149.969 136.48 150.021 136.296 150.124C136.115 150.227 135.972 150.378 135.869 150.576C135.769 150.771 135.717 151.007 135.714 151.283ZM145.269 150.773V152.187H141.359V150.773H145.269ZM146.821 155V146.428H150.203C150.851 146.428 151.403 146.544 151.861 146.775C152.321 147.004 152.671 147.329 152.911 147.751C153.154 148.169 153.275 148.662 153.275 149.228C153.275 149.797 153.153 150.287 152.907 150.697C152.662 151.105 152.306 151.417 151.84 151.635C151.377 151.853 150.816 151.961 150.157 151.961H147.893V150.505H149.864C150.21 150.505 150.498 150.457 150.726 150.362C150.955 150.268 151.126 150.125 151.237 149.936C151.352 149.746 151.409 149.51 151.409 149.228C151.409 148.944 151.352 148.704 151.237 148.508C151.126 148.313 150.954 148.165 150.722 148.065C150.494 147.961 150.205 147.91 149.856 147.91H148.634V155H146.821ZM151.451 151.099L153.581 155H151.58L149.496 151.099H151.451ZM156.356 155.121C155.946 155.121 155.58 155.05 155.259 154.908C154.938 154.763 154.685 154.549 154.498 154.268C154.313 153.983 154.221 153.629 154.221 153.204C154.221 152.847 154.287 152.547 154.418 152.305C154.549 152.062 154.728 151.866 154.954 151.719C155.18 151.571 155.437 151.459 155.724 151.384C156.014 151.308 156.318 151.255 156.636 151.225C157.01 151.186 157.312 151.149 157.54 151.116C157.769 151.08 157.935 151.027 158.039 150.957C158.142 150.887 158.193 150.784 158.193 150.647V150.622C158.193 150.357 158.11 150.152 157.942 150.007C157.778 149.862 157.543 149.789 157.239 149.789C156.918 149.789 156.663 149.86 156.473 150.003C156.283 150.142 156.158 150.318 156.096 150.53L154.447 150.396C154.531 150.005 154.696 149.668 154.941 149.383C155.187 149.096 155.504 148.875 155.891 148.722C156.282 148.565 156.734 148.487 157.247 148.487C157.605 148.487 157.946 148.529 158.273 148.613C158.602 148.697 158.894 148.826 159.148 149.002C159.404 149.178 159.607 149.404 159.755 149.68C159.902 149.954 159.976 150.282 159.976 150.664V155H158.286V154.108H158.235C158.132 154.309 157.994 154.487 157.821 154.64C157.648 154.791 157.44 154.909 157.197 154.996C156.955 155.08 156.674 155.121 156.356 155.121ZM156.867 153.891C157.129 153.891 157.361 153.839 157.561 153.736C157.762 153.63 157.92 153.488 158.034 153.309C158.149 153.13 158.206 152.928 158.206 152.702V152.02C158.15 152.056 158.073 152.09 157.976 152.12C157.881 152.148 157.773 152.175 157.653 152.2C157.534 152.222 157.414 152.243 157.294 152.263C157.174 152.279 157.065 152.295 156.967 152.309C156.758 152.339 156.575 152.388 156.419 152.455C156.263 152.522 156.141 152.613 156.055 152.727C155.968 152.839 155.925 152.978 155.925 153.146C155.925 153.389 156.013 153.574 156.189 153.702C156.367 153.828 156.593 153.891 156.867 153.891ZM161.36 155V148.571H163.059V149.705H163.134C163.268 149.329 163.492 149.031 163.804 148.814C164.117 148.596 164.491 148.487 164.926 148.487C165.367 148.487 165.742 148.598 166.052 148.818C166.361 149.036 166.568 149.331 166.671 149.705H166.738C166.869 149.337 167.106 149.043 167.45 148.822C167.796 148.599 168.204 148.487 168.676 148.487C169.276 148.487 169.763 148.679 170.137 149.061C170.513 149.44 170.702 149.979 170.702 150.676V155H168.923V151.028C168.923 150.671 168.828 150.403 168.638 150.224C168.449 150.046 168.211 149.956 167.927 149.956C167.603 149.956 167.351 150.06 167.169 150.266C166.988 150.47 166.897 150.739 166.897 151.074V155H165.169V150.99C165.169 150.675 165.078 150.424 164.896 150.237C164.718 150.05 164.482 149.956 164.189 149.956C163.991 149.956 163.812 150.007 163.653 150.107C163.497 150.205 163.373 150.343 163.281 150.522C163.189 150.697 163.143 150.904 163.143 151.141V155H161.36ZM172.11 157.411V148.571H173.868V149.651H173.948C174.026 149.478 174.139 149.302 174.287 149.124C174.437 148.942 174.633 148.792 174.873 148.672C175.115 148.549 175.417 148.487 175.777 148.487C176.245 148.487 176.678 148.61 177.074 148.856C177.47 149.098 177.787 149.465 178.024 149.956C178.261 150.445 178.38 151.057 178.38 151.794C178.38 152.511 178.264 153.117 178.033 153.61C177.804 154.102 177.491 154.474 177.095 154.728C176.702 154.979 176.261 155.105 175.773 155.105C175.427 155.105 175.132 155.047 174.889 154.933C174.649 154.819 174.453 154.675 174.299 154.502C174.146 154.326 174.029 154.149 173.948 153.97H173.893V157.411H172.11ZM173.856 151.786C173.856 152.168 173.909 152.501 174.015 152.786C174.121 153.07 174.274 153.292 174.475 153.451C174.676 153.608 174.92 153.686 175.207 153.686C175.498 153.686 175.743 153.606 175.944 153.447C176.145 153.285 176.297 153.062 176.4 152.778C176.506 152.49 176.559 152.159 176.559 151.786C176.559 151.414 176.508 151.088 176.405 150.806C176.301 150.524 176.149 150.304 175.948 150.145C175.747 149.986 175.5 149.906 175.207 149.906C174.917 149.906 174.672 149.983 174.471 150.136C174.273 150.29 174.121 150.508 174.015 150.789C173.909 151.071 173.856 151.403 173.856 151.786ZM185.716 148.571V149.91H181.845V148.571H185.716ZM182.724 147.031H184.507V153.024C184.507 153.189 184.532 153.317 184.582 153.41C184.632 153.499 184.702 153.562 184.791 153.598C184.883 153.634 184.989 153.652 185.109 153.652C185.193 153.652 185.277 153.645 185.36 153.631C185.444 153.615 185.508 153.602 185.553 153.594L185.833 154.92C185.744 154.948 185.619 154.98 185.457 155.017C185.295 155.056 185.098 155.08 184.867 155.088C184.437 155.105 184.06 155.047 183.736 154.916C183.416 154.785 183.166 154.581 182.987 154.305C182.809 154.029 182.721 153.68 182.724 153.259V147.031ZM189.713 155.126C189.063 155.126 188.501 154.987 188.027 154.711C187.555 154.432 187.191 154.044 186.934 153.548C186.677 153.048 186.549 152.469 186.549 151.811C186.549 151.147 186.677 150.566 186.934 150.069C187.191 149.57 187.555 149.182 188.027 148.906C188.501 148.627 189.063 148.487 189.713 148.487C190.364 148.487 190.924 148.627 191.396 148.906C191.87 149.182 192.236 149.57 192.493 150.069C192.749 150.566 192.878 151.147 192.878 151.811C192.878 152.469 192.749 153.048 192.493 153.548C192.236 154.044 191.87 154.432 191.396 154.711C190.924 154.987 190.364 155.126 189.713 155.126ZM189.722 153.744C190.018 153.744 190.264 153.661 190.463 153.493C190.661 153.323 190.81 153.091 190.91 152.798C191.014 152.505 191.065 152.172 191.065 151.798C191.065 151.424 191.014 151.091 190.91 150.798C190.81 150.505 190.661 150.273 190.463 150.103C190.264 149.933 190.018 149.848 189.722 149.848C189.423 149.848 189.172 149.933 188.968 150.103C188.767 150.273 188.615 150.505 188.512 150.798C188.412 151.091 188.361 151.424 188.361 151.798C188.361 152.172 188.412 152.505 188.512 152.798C188.615 153.091 188.767 153.323 188.968 153.493C189.172 153.661 189.423 153.744 189.722 153.744ZM204.362 149.429H202.528C202.495 149.192 202.426 148.981 202.323 148.797C202.22 148.61 202.087 148.451 201.926 148.32C201.764 148.189 201.577 148.088 201.365 148.019C201.155 147.949 200.928 147.914 200.682 147.914C200.239 147.914 199.852 148.024 199.523 148.245C199.194 148.462 198.939 148.78 198.757 149.199C198.576 149.615 198.485 150.12 198.485 150.714C198.485 151.325 198.576 151.839 198.757 152.254C198.941 152.67 199.198 152.984 199.527 153.196C199.857 153.408 200.237 153.514 200.67 153.514C200.913 153.514 201.137 153.482 201.344 153.418C201.553 153.354 201.739 153.26 201.9 153.137C202.062 153.012 202.196 152.86 202.302 152.681C202.411 152.503 202.486 152.299 202.528 152.07L204.362 152.079C204.314 152.472 204.196 152.851 204.006 153.217C203.819 153.58 203.566 153.905 203.248 154.192C202.933 154.477 202.556 154.703 202.118 154.87C201.683 155.035 201.19 155.117 200.641 155.117C199.876 155.117 199.192 154.944 198.59 154.598C197.99 154.252 197.515 153.751 197.167 153.096C196.821 152.44 196.648 151.646 196.648 150.714C196.648 149.779 196.823 148.984 197.175 148.328C197.527 147.673 198.004 147.173 198.606 146.83C199.209 146.484 199.887 146.311 200.641 146.311C201.137 146.311 201.598 146.381 202.022 146.52C202.449 146.66 202.827 146.863 203.156 147.131C203.485 147.396 203.753 147.721 203.96 148.106C204.169 148.492 204.303 148.932 204.362 149.429ZM205.628 155V148.571H207.356V149.693H207.423C207.54 149.294 207.737 148.992 208.013 148.789C208.29 148.582 208.608 148.479 208.968 148.479C209.057 148.479 209.153 148.485 209.256 148.496C209.36 148.507 209.45 148.522 209.529 148.542V150.124C209.445 150.099 209.329 150.076 209.181 150.057C209.033 150.037 208.898 150.028 208.775 150.028C208.513 150.028 208.278 150.085 208.072 150.199C207.868 150.311 207.706 150.467 207.586 150.668C207.469 150.869 207.411 151.101 207.411 151.363V155H205.628ZM211.747 157.411C211.521 157.411 211.309 157.393 211.111 157.356C210.915 157.323 210.754 157.28 210.625 157.227L211.027 155.896C211.236 155.96 211.425 155.995 211.592 156C211.762 156.006 211.909 155.967 212.031 155.883C212.157 155.799 212.259 155.657 212.337 155.456L212.442 155.184L210.135 148.571H212.011L213.342 153.292H213.409L214.752 148.571H216.64L214.141 155.695C214.021 156.041 213.858 156.342 213.651 156.599C213.448 156.858 213.189 157.058 212.877 157.197C212.564 157.34 212.188 157.411 211.747 157.411ZM217.552 157.411V148.571H219.31V149.651H219.39C219.468 149.478 219.581 149.302 219.729 149.124C219.879 148.942 220.075 148.792 220.315 148.672C220.557 148.549 220.859 148.487 221.219 148.487C221.687 148.487 222.12 148.61 222.516 148.856C222.912 149.098 223.229 149.465 223.466 149.956C223.703 150.445 223.822 151.057 223.822 151.794C223.822 152.511 223.706 153.117 223.475 153.61C223.246 154.102 222.933 154.474 222.537 154.728C222.144 154.979 221.703 155.105 221.214 155.105C220.868 155.105 220.574 155.047 220.331 154.933C220.091 154.819 219.895 154.675 219.741 154.502C219.588 154.326 219.471 154.149 219.39 153.97H219.335V157.411H217.552ZM219.298 151.786C219.298 152.168 219.351 152.501 219.457 152.786C219.563 153.07 219.716 153.292 219.917 153.451C220.118 153.608 220.362 153.686 220.649 153.686C220.94 153.686 221.185 153.606 221.386 153.447C221.587 153.285 221.739 153.062 221.842 152.778C221.948 152.49 222.001 152.159 222.001 151.786C222.001 151.414 221.95 151.088 221.846 150.806C221.743 150.524 221.591 150.304 221.39 150.145C221.189 149.986 220.942 149.906 220.649 149.906C220.359 149.906 220.114 149.983 219.913 150.136C219.715 150.29 219.563 150.508 219.457 150.789C219.351 151.071 219.298 151.403 219.298 151.786ZM228.43 148.571V149.91H224.559V148.571H228.43ZM225.438 147.031H227.221V153.024C227.221 153.189 227.246 153.317 227.296 153.41C227.346 153.499 227.416 153.562 227.505 153.598C227.597 153.634 227.703 153.652 227.823 153.652C227.907 153.652 227.991 153.645 228.074 153.631C228.158 153.615 228.222 153.602 228.267 153.594L228.547 154.92C228.458 154.948 228.333 154.98 228.171 155.017C228.009 155.056 227.812 155.08 227.581 155.088C227.151 155.105 226.774 155.047 226.451 154.916C226.13 154.785 225.88 154.581 225.701 154.305C225.523 154.029 225.435 153.68 225.438 153.259V147.031ZM232.427 155.126C231.777 155.126 231.215 154.987 230.741 154.711C230.269 154.432 229.905 154.044 229.648 153.548C229.392 153.048 229.263 152.469 229.263 151.811C229.263 151.147 229.392 150.566 229.648 150.069C229.905 149.57 230.269 149.182 230.741 148.906C231.215 148.627 231.777 148.487 232.427 148.487C233.078 148.487 233.638 148.627 234.11 148.906C234.584 149.182 234.95 149.57 235.207 150.069C235.463 150.566 235.592 151.147 235.592 151.811C235.592 152.469 235.463 153.048 235.207 153.548C234.95 154.044 234.584 154.432 234.11 154.711C233.638 154.987 233.078 155.126 232.427 155.126ZM232.436 153.744C232.732 153.744 232.978 153.661 233.177 153.493C233.375 153.323 233.524 153.091 233.624 152.798C233.728 152.505 233.779 152.172 233.779 151.798C233.779 151.424 233.728 151.091 233.624 150.798C233.524 150.505 233.375 150.273 233.177 150.103C232.978 149.933 232.732 149.848 232.436 149.848C232.137 149.848 231.886 149.933 231.682 150.103C231.481 150.273 231.329 150.505 231.226 150.798C231.126 151.091 231.075 151.424 231.075 151.798C231.075 152.172 231.126 152.505 231.226 152.798C231.329 153.091 231.481 153.323 231.682 153.493C231.886 153.661 232.137 153.744 232.436 153.744Z" fill="#6F6F6F"/>
</g>
<defs>
<radialGradient id="paint0_radial_3_2136" cx="0" cy="0" r="1" gradientUnits="userSpaceOnUse" gradientTransform="translate(94.5606 48.175) rotate(42.1825) scale(23.5356 99.1717)">
<stop stop-color="#00C4FF"/>
<stop offset="1" stop-color="#6C00EF"/>
</radialGradient>
<radialGradient id="paint1_radial_3_2136" cx="0" cy="0" r="1" gradientUnits="userSpaceOnUse" gradientTransform="translate(94.5606 112.175) rotate(42.1825) scale(23.5356 99.1717)">
<stop stop-color="#00C4FF"/>
<stop offset="1" stop-color="#6C00EF"/>
</radialGradient>
<radialGradient id="paint2_radial_3_2136" cx="0" cy="0" r="1" gradientUnits="userSpaceOnUse" gradientTransform="translate(94.5626 144.175) rotate(42.1825) scale(23.5356 99.1717)">
<stop stop-color="#00C4FF"/>
<stop offset="1" stop-color="#6C00EF"/>
</radialGradient>
<radialGradient id="paint3_radial_3_2136" cx="0" cy="0" r="1" gradientUnits="userSpaceOnUse" gradientTransform="translate(94.5606 80.175) rotate(42.1825) scale(23.5356 99.1717)">
<stop stop-color="#00C4FF"/>
<stop offset="1" stop-color="#6C00EF"/>
</radialGradient>
<clipPath id="clip0_3_2136">
<path d="M0 8C0 3.58172 3.58172 0 8 0H400C404.418 0 408 3.58172 408 8V187H0V8Z" fill="white"/>
</clipPath>
</defs>
</svg>
