<svg width="408" height="187" viewBox="0 0 408 187" fill="none" xmlns="http://www.w3.org/2000/svg">
<g clip-path="url(#clip0_3_2104)">
<path d="M0 8C0 3.58172 3.58172 0 8 0H400C404.418 0 408 3.58172 408 8V187H0V8Z" fill="#BD3C3C"/>
<path d="M400 0H8C3.58172 0 0 3.58172 0 8V179C0 183.418 3.58172 187 8 187H400C404.418 187 408 183.418 408 179V8C408 3.58172 404.418 0 400 0Z" fill="#E0D0FF"/>
<path d="M428 -8H-8V396.757H428V-8Z" fill="#E0D0FF"/>
<path d="M89 54C89 50.134 92.134 47 96 47H311C314.866 47 318 50.134 318 54V220C318 223.866 314.866 227 311 227H96C92.134 227 89 223.866 89 220V54Z" fill="white"/>
<rect x="103.949" y="61.949" width="198.102" height="164.102" rx="6.05102" stroke="#E7E7E7" stroke-width="1.89796"/>
<path d="M143.542 76.8081H135.426C133.185 76.8081 131.368 78.6281 131.368 80.8731V89.0032C131.368 91.2483 133.185 93.0683 135.426 93.0683H143.542C145.783 93.0683 147.6 91.2483 147.6 89.0032V80.8731C147.6 78.6281 145.783 76.8081 143.542 76.8081Z" fill="#32C76F"/>
<path fill-rule="evenodd" clip-rule="evenodd" d="M143.8 81.6088C143.955 81.7511 143.965 81.992 143.823 82.1464L138.243 88.244C138.173 88.3212 138.075 88.366 137.971 88.368C137.868 88.37 137.767 88.3294 137.694 88.2562L135.158 85.7156C135.009 85.5672 135.009 85.3253 135.158 85.1769C135.306 85.0275 135.547 85.0275 135.695 85.1769L137.951 87.4361L143.263 81.6322C143.405 81.4767 143.645 81.4666 143.8 81.6088Z" fill="white" stroke="white" stroke-width="1.89796" stroke-linecap="round" stroke-linejoin="round"/>
<mask id="mask0_3_2104" style="mask-type:luminance" maskUnits="userSpaceOnUse" x="168" y="74" width="22" height="22">
<path d="M189.05 74.7755H168.76V95.1008H189.05V74.7755Z" fill="white"/>
</mask>
<g mask="url(#mask0_3_2104)">
<path d="M178.905 95.1008C184.528 95.1008 189.05 90.5703 189.05 84.9381C189.05 79.306 184.528 74.7755 178.905 74.7755C173.283 74.7755 168.76 79.306 168.76 84.9381C168.76 90.5703 173.283 95.1008 178.905 95.1008Z" fill="#2775CA"/>
<path d="M181.695 86.5469C181.695 85.0652 180.808 84.5571 179.032 84.3457C177.764 84.176 177.51 83.8376 177.51 83.2441C177.51 82.6516 177.933 82.2705 178.779 82.2705C179.539 82.2705 179.963 82.5246 180.174 83.1597C180.216 83.2867 180.343 83.3711 180.47 83.3711H181.145C181.315 83.3711 181.442 83.2441 181.442 83.0754V83.0327C181.272 82.1008 180.511 81.3813 179.539 81.2969V80.2806C179.539 80.1109 179.413 79.9839 179.202 79.9412H178.568C178.398 79.9412 178.271 80.0682 178.229 80.2806V81.2542C176.961 81.4239 176.158 82.2705 176.158 83.3294C176.158 84.7268 177.003 85.2766 178.779 85.489C179.963 85.7004 180.343 85.9544 180.343 86.6323C180.343 87.3091 179.751 87.7756 178.948 87.7756C177.848 87.7756 177.468 87.3091 177.341 86.674C177.299 86.5053 177.173 86.4199 177.046 86.4199H176.326C176.158 86.4199 176.031 86.5469 176.031 86.7166V86.7593C176.2 87.8172 176.876 88.5794 178.271 88.7918V89.8081C178.271 89.9768 178.398 90.1038 178.609 90.1465H179.243C179.413 90.1465 179.54 90.0195 179.582 89.8081V88.7918C180.85 88.5794 181.695 87.6902 181.695 86.5469Z" fill="white"/>
<path d="M176.751 90.993C173.454 89.8081 171.762 86.1241 172.989 82.8629C173.623 81.0845 175.018 79.7298 176.751 79.0946C176.92 79.0103 177.005 78.8832 177.005 78.6708V78.0784C177.005 77.9086 176.92 77.7816 176.751 77.7399C176.708 77.7399 176.624 77.7399 176.581 77.7816C172.566 79.0519 170.367 83.3294 171.636 87.3517C172.397 89.7227 174.215 91.5438 176.581 92.306C176.751 92.3904 176.92 92.306 176.962 92.1363C177.005 92.0946 177.005 92.0519 177.005 91.9676V91.3741C177.005 91.2471 176.878 91.0784 176.751 90.993ZM181.232 77.7816C181.063 77.6973 180.893 77.7816 180.852 77.9513C180.809 77.994 180.809 78.0357 180.809 78.121V78.7135C180.809 78.8832 180.936 79.0519 181.063 79.1373C184.36 80.3223 186.051 84.0062 184.825 87.2674C184.19 89.0458 182.795 90.4005 181.063 91.0357C180.893 91.12 180.809 91.2471 180.809 91.4595V92.052C180.809 92.2217 180.893 92.3487 181.063 92.3904C181.105 92.3904 181.189 92.3904 181.232 92.3487C185.248 91.0784 187.446 86.8009 186.178 82.7786C185.417 80.3649 183.556 78.5438 181.232 77.7816Z" fill="white"/>
</g>
<path d="M201.005 90.1619C199.77 90.1619 198.79 89.7919 198.065 89.0663C197.355 88.3265 197 87.3021 197 85.9789V79.8041H198.364V85.9362C198.364 87.8712 199.315 88.9383 201.005 88.9383C202.696 88.9383 203.661 87.8712 203.661 85.9362V79.8041H205.025V85.9789C205.025 88.611 203.505 90.1619 201.005 90.1619ZM210.171 90.1761C209.276 90.1761 208.438 89.9627 207.671 89.5501C206.918 89.1375 206.364 88.5826 206.023 87.9139L207.089 87.0602C207.728 88.2696 208.878 88.9952 210.199 88.9952C211.605 88.9952 212.543 88.2696 212.543 87.1741C212.543 86.548 212.244 86.1354 211.548 85.8366C211.406 85.7797 211.236 85.7228 211.051 85.6659C210.867 85.609 210.455 85.5094 209.816 85.3529C208.608 85.0683 208.083 84.8549 207.642 84.5704C206.946 84.1151 206.62 83.4748 206.62 82.607C206.62 81.7106 207.003 80.9566 207.699 80.4017C208.324 79.9037 209.176 79.6476 210.1 79.6476C211.747 79.6476 213.097 80.4017 213.764 81.6537L212.727 82.4789C212.145 81.3549 211.264 80.8285 210.071 80.8285C208.821 80.8285 207.941 81.5257 207.941 82.4931C207.941 83.0622 208.211 83.4179 208.793 83.7025C209.077 83.8163 209.375 83.9159 210.327 84.1435C211.122 84.3285 211.662 84.485 211.96 84.5846C212.259 84.6842 212.528 84.8123 212.742 84.9403C213.523 85.4098 213.878 86.0928 213.878 87.0602C213.878 87.985 213.466 88.8102 212.713 89.3793C212.046 89.8915 211.137 90.1761 210.171 90.1761ZM218.663 90.0196H215.425V79.8041H218.663C220.183 79.8041 221.447 80.2879 222.356 81.1842C223.251 82.0948 223.72 83.3753 223.72 84.9118C223.72 86.4484 223.251 87.7289 222.356 88.6395C221.447 89.5358 220.183 90.0196 218.663 90.0196ZM216.76 80.985V88.8387H218.663C219.814 88.8387 220.709 88.483 221.376 87.7858C222.044 87.0745 222.385 86.1212 222.385 84.9118C222.385 83.7025 222.044 82.7492 221.376 82.0521C220.709 81.3407 219.8 80.985 218.649 80.985H216.76ZM226.959 82.1517C226.462 82.8773 226.192 83.8305 226.192 84.9118C226.192 85.9931 226.462 86.9464 226.959 87.672C227.542 88.5114 228.408 88.9667 229.416 88.9667C230.723 88.9667 231.675 88.2127 232.058 86.9037L233.351 87.3306C232.74 89.1375 231.305 90.1761 229.416 90.1761C228.053 90.1761 226.846 89.5927 226.008 88.5683C225.226 87.6151 224.829 86.3346 224.829 84.9118C224.829 83.4891 225.226 82.2086 226.008 81.2553C226.846 80.2309 228.053 79.6476 229.416 79.6476C231.305 79.6476 232.74 80.6862 233.351 82.4931L232.058 82.92C231.675 81.611 230.723 80.857 229.416 80.857C228.408 80.857 227.542 81.3122 226.959 82.1517Z" fill="#353539"/>
<path d="M143.542 107.175H135.426C133.185 107.175 131.368 108.995 131.368 111.24V119.371C131.368 121.616 133.185 123.436 135.426 123.436H143.542C145.783 123.436 147.6 121.616 147.6 119.371V111.24C147.6 108.995 145.783 107.175 143.542 107.175Z" fill="#32C76F"/>
<path fill-rule="evenodd" clip-rule="evenodd" d="M143.8 111.976C143.955 112.118 143.965 112.359 143.823 112.514L138.243 118.611C138.173 118.689 138.075 118.733 137.971 118.735C137.868 118.737 137.767 118.697 137.694 118.624L135.158 116.083C135.009 115.935 135.009 115.693 135.158 115.544C135.306 115.395 135.547 115.395 135.695 115.544L137.951 117.803L143.263 112C143.405 111.844 143.645 111.834 143.8 111.976Z" fill="white" stroke="white" stroke-width="1.89796" stroke-linecap="round" stroke-linejoin="round"/>
<path d="M189.112 115.306C189.112 109.693 184.57 105.143 178.967 105.143C173.364 105.143 168.822 109.693 168.822 115.306C168.822 120.918 173.364 125.468 178.967 125.468C184.57 125.468 189.112 120.918 189.112 115.306Z" fill="#50AF95"/>
<path d="M179.017 109.441C180.586 109.441 182.093 109.441 183.662 109.441C183.788 109.441 183.851 109.505 183.851 109.569C184.729 111.543 185.608 113.453 186.55 115.365C186.612 115.428 186.55 115.492 186.487 115.556C185.42 116.638 184.353 117.72 183.223 118.804C181.842 120.141 180.397 121.543 179.017 122.88C178.891 122.944 178.891 122.944 178.828 122.88C177.447 121.543 176.066 120.205 174.686 118.804C173.618 117.72 172.488 116.638 171.421 115.556C171.358 115.492 171.358 115.428 171.358 115.365C171.797 114.345 172.299 113.39 172.739 112.371C173.178 111.415 173.618 110.524 174.058 109.569C174.12 109.441 174.182 109.378 174.371 109.378C175.941 109.441 177.447 109.378 179.017 109.441ZM179.08 111.16C177.949 111.16 176.756 111.16 175.627 111.16C175.564 111.16 175.564 111.16 175.501 111.16C175.438 111.16 175.438 111.16 175.438 111.224C175.438 111.798 175.438 112.371 175.375 113.008C175.375 113.071 175.375 113.071 175.438 113.071C175.627 113.071 175.815 113.071 176.003 113.071C176.631 113.071 177.258 113.071 177.886 113.071C177.949 113.071 177.949 113.071 178.012 113.071C178.075 113.071 178.075 113.135 178.075 113.199C178.075 113.453 178.075 113.772 178.075 114.027C178.075 114.09 178.075 114.09 178.012 114.154C177.573 114.218 177.134 114.218 176.694 114.281C176.129 114.345 175.564 114.472 175.062 114.663C174.81 114.727 174.623 114.855 174.434 114.983C174.245 115.174 174.245 115.428 174.434 115.556C174.56 115.683 174.686 115.747 174.81 115.81C175.25 116.001 175.69 116.065 176.129 116.192C176.756 116.32 177.384 116.383 178.012 116.447C178.138 116.447 178.138 116.447 178.138 116.574C178.138 117.72 178.138 118.931 178.138 120.077C178.138 120.205 178.138 120.205 178.264 120.205C178.828 120.205 179.456 120.205 180.021 120.205C180.21 120.205 180.21 120.205 180.21 120.014C180.21 119.059 180.21 118.167 180.21 117.211C180.21 116.956 180.21 116.702 180.21 116.447C180.21 116.32 180.273 116.32 180.334 116.32C180.962 116.32 181.528 116.256 182.156 116.129C182.658 116.065 183.097 115.938 183.536 115.747C183.662 115.683 183.788 115.556 183.914 115.492C184.039 115.365 184.039 115.237 183.914 115.11C183.788 115.046 183.725 114.919 183.599 114.855C182.846 114.409 181.967 114.218 181.088 114.154C180.838 114.154 180.586 114.154 180.334 114.09C180.273 114.09 180.273 114.09 180.273 113.963C180.273 113.708 180.273 113.39 180.273 113.135C180.273 113.071 180.273 113.008 180.397 113.008C180.586 113.008 180.775 113.008 180.963 113.008C181.591 113.008 182.156 113.008 182.784 113.008C182.908 113.008 182.908 112.944 182.908 112.88C182.908 112.817 182.908 112.817 182.908 112.753C182.908 112.244 182.908 111.734 182.908 111.16C182.908 111.033 182.908 111.033 182.784 111.033C181.402 111.16 180.21 111.16 179.08 111.16Z" fill="white"/>
<path d="M178.765 116.001C178.326 116.001 177.949 116.001 177.51 115.938C176.819 115.874 176.066 115.81 175.375 115.556C175.249 115.492 175.124 115.428 174.936 115.365C174.747 115.237 174.747 115.11 174.936 115.046C175.187 114.918 175.438 114.854 175.689 114.791C176.191 114.663 176.693 114.6 177.258 114.536C177.447 114.536 177.698 114.472 177.886 114.472C177.949 114.472 178.012 114.472 178.012 114.6C178.012 114.983 178.012 115.301 178.012 115.683C178.012 115.81 178.075 115.81 178.138 115.81C178.64 115.81 179.142 115.81 179.581 115.81C179.706 115.81 179.832 115.81 179.958 115.81C180.084 115.81 180.084 115.81 180.084 115.683C180.084 115.365 180.084 115.046 180.084 114.727C180.084 114.536 180.084 114.536 180.271 114.536C181.088 114.6 181.904 114.663 182.72 114.918C182.845 114.983 183.034 115.046 183.16 115.11C183.286 115.174 183.286 115.301 183.16 115.365C182.908 115.556 182.658 115.619 182.343 115.683C181.716 115.81 181.088 115.938 180.46 115.938C179.958 115.938 179.33 116.001 178.765 116.001Z" fill="white"/>
<path d="M201.005 120.529C199.77 120.529 198.79 120.159 198.065 119.434C197.355 118.694 197 117.669 197 116.346V110.171H198.364V116.303C198.364 118.238 199.315 119.306 201.005 119.306C202.696 119.306 203.661 118.238 203.661 116.303V110.171H205.025V116.346C205.025 118.978 203.505 120.529 201.005 120.529ZM210.171 120.543C209.276 120.543 208.438 120.33 207.671 119.917C206.918 119.505 206.364 118.95 206.023 118.281L207.089 117.427C207.728 118.637 208.878 119.362 210.199 119.362C211.605 119.362 212.543 118.637 212.543 117.541C212.543 116.915 212.244 116.503 211.548 116.204C211.406 116.147 211.236 116.09 211.051 116.033C210.867 115.976 210.455 115.877 209.816 115.72C208.608 115.436 208.083 115.222 207.642 114.938C206.946 114.482 206.62 113.842 206.62 112.974C206.62 112.078 207.003 111.324 207.699 110.769C208.324 110.271 209.176 110.015 210.1 110.015C211.747 110.015 213.097 110.769 213.764 112.021L212.727 112.846C212.145 111.722 211.264 111.196 210.071 111.196C208.821 111.196 207.941 111.893 207.941 112.86C207.941 113.429 208.211 113.785 208.793 114.07C209.077 114.184 209.375 114.283 210.327 114.511C211.122 114.696 211.662 114.852 211.96 114.952C212.259 115.051 212.528 115.18 212.741 115.308C213.523 115.777 213.878 116.46 213.878 117.427C213.878 118.352 213.466 119.177 212.713 119.747C212.046 120.259 211.137 120.543 210.171 120.543ZM218.663 120.387H215.425V110.171H218.663C220.183 110.171 221.447 110.655 222.356 111.551C223.251 112.462 223.72 113.743 223.72 115.279C223.72 116.816 223.251 118.096 222.356 119.007C221.447 119.903 220.183 120.387 218.663 120.387ZM216.76 111.352V119.206H218.663C219.814 119.206 220.709 118.85 221.376 118.153C222.044 117.442 222.385 116.488 222.385 115.279C222.385 114.07 222.044 113.116 221.376 112.419C220.709 111.708 219.8 111.352 218.649 111.352H216.76ZM232.034 110.171V111.366H228.582V120.387H227.219V111.366H223.767V110.171H232.034Z" fill="#353539"/>
<path d="M142.781 140.203H134.665C132.844 140.203 131.368 141.682 131.368 143.506V151.636C131.368 153.46 132.844 154.939 134.665 154.939H142.781C144.602 154.939 146.078 153.46 146.078 151.636V143.506C146.078 141.682 144.602 140.203 142.781 140.203Z" stroke="#E7E7E7" stroke-width="2.84694"/>
<mask id="mask1_3_2104" style="mask-type:luminance" maskUnits="userSpaceOnUse" x="168" y="137" width="21" height="21">
<path d="M188.291 137.408H168V157.733H188.291V137.408Z" fill="white"/>
</mask>
<g mask="url(#mask1_3_2104)">
<path d="M178.145 157.733C183.768 157.733 188.291 153.203 188.291 147.571C188.291 141.939 183.768 137.408 178.145 137.408C172.523 137.408 168 141.939 168 147.571C168 153.203 172.523 157.733 178.145 157.733Z" fill="#2775CA"/>
<path d="M180.936 149.18C180.936 147.698 180.048 147.19 178.273 146.978C177.005 146.809 176.751 146.47 176.751 145.877C176.751 145.284 177.174 144.903 178.019 144.903C178.78 144.903 179.203 145.157 179.414 145.792C179.457 145.919 179.584 146.004 179.711 146.004H180.386C180.556 146.004 180.682 145.877 180.682 145.708V145.665C180.513 144.733 179.752 144.014 178.78 143.93V142.913C178.78 142.744 178.653 142.617 178.442 142.574H177.808C177.639 142.574 177.512 142.701 177.469 142.913V143.887C176.201 144.057 175.399 144.903 175.399 145.962C175.399 147.359 176.244 147.909 178.019 148.122C179.203 148.333 179.584 148.587 179.584 149.265C179.584 149.942 178.991 150.408 178.189 150.408C177.089 150.408 176.709 149.942 176.582 149.307C176.54 149.138 176.413 149.053 176.287 149.053H175.567C175.399 149.053 175.272 149.18 175.272 149.349V149.392C175.44 150.45 176.117 151.212 177.512 151.424V152.441C177.512 152.609 177.639 152.736 177.85 152.779H178.484C178.653 152.779 178.78 152.652 178.823 152.441V151.424C180.091 151.212 180.936 150.323 180.936 149.18Z" fill="white"/>
<path d="M175.989 153.626C172.692 152.441 171.001 148.757 172.227 145.496C172.861 143.717 174.256 142.362 175.989 141.727C176.159 141.643 176.243 141.516 176.243 141.303V140.711C176.243 140.541 176.159 140.414 175.989 140.373C175.947 140.373 175.862 140.373 175.82 140.414C171.804 141.685 169.606 145.962 170.874 149.984C171.635 152.355 173.453 154.176 175.82 154.939C175.989 155.023 176.159 154.939 176.2 154.769C176.243 154.727 176.243 154.685 176.243 154.6V154.007C176.243 153.88 176.116 153.711 175.989 153.626ZM180.47 140.414C180.301 140.33 180.131 140.414 180.09 140.584C180.047 140.627 180.047 140.668 180.047 140.754V141.346C180.047 141.516 180.174 141.685 180.301 141.77C183.598 142.955 185.289 146.639 184.063 149.9C183.429 151.678 182.034 153.033 180.301 153.668C180.132 153.753 180.047 153.88 180.047 154.092V154.685C180.047 154.854 180.132 154.981 180.301 155.023C180.344 155.023 180.428 155.023 180.47 154.981C184.486 153.711 186.684 149.434 185.416 145.411C184.655 142.998 182.795 141.176 180.47 140.414Z" fill="white"/>
</g>
<path d="M200.238 152.652H197V142.437H200.238C201.758 142.437 203.022 142.92 203.931 143.817C204.826 144.727 205.295 146.008 205.295 147.544C205.295 149.081 204.826 150.361 203.931 151.272C203.022 152.168 201.758 152.652 200.238 152.652ZM198.335 143.618V151.471H200.238C201.389 151.471 202.284 151.116 202.951 150.418C203.619 149.707 203.96 148.754 203.96 147.544C203.96 146.335 203.619 145.382 202.951 144.685C202.284 143.973 201.375 143.618 200.224 143.618H198.335ZM205.565 152.652L209.499 142.437H211.005L214.939 152.652H213.561L212.524 149.963H207.951L206.928 152.652H205.565ZM212.07 148.768L210.223 143.973L208.405 148.768H212.07ZM216.294 142.437H217.658V152.652H216.294V142.437Z" fill="#353539"/>
<path d="M142.781 168.876H134.665C132.844 168.876 131.368 170.355 131.368 172.179V180.309C131.368 182.133 132.844 183.612 134.665 183.612H142.781C144.602 183.612 146.078 182.133 146.078 180.309V172.179C146.078 170.355 144.602 168.876 142.781 168.876Z" stroke="#E7E7E7" stroke-width="2.84694"/>
<path d="M178.249 174.036V167.803L183.322 176.312C183.349 176.338 183.375 176.365 183.375 176.391C183.269 176.338 183.163 176.284 183.031 176.231C182.899 176.178 182.767 176.097 182.634 176.043C182.555 176.017 182.476 175.963 182.371 175.936C182.239 175.883 182.08 175.803 181.948 175.75C181.868 175.722 181.789 175.669 181.71 175.642L181.155 175.401C181.05 175.348 180.971 175.322 180.865 175.268C180.732 175.214 180.6 175.134 180.468 175.08C180.389 175.054 180.31 175 180.231 174.973L179.676 174.733C179.57 174.68 179.49 174.652 179.385 174.598C179.253 174.546 179.121 174.465 178.989 174.411C178.909 174.359 178.803 174.331 178.724 174.278L178.249 174.036Z" fill="#B8528F"/>
<path d="M183.377 176.391C182.981 176.658 182.558 176.899 182.162 177.139C180.867 177.917 179.599 178.666 178.304 179.441C178.277 179.441 178.277 179.467 178.251 179.467C178.225 179.467 178.225 179.441 178.225 179.441V174.063C178.225 174.036 178.251 174.036 178.277 174.036C178.384 174.089 178.489 174.143 178.621 174.196C178.939 174.358 179.282 174.492 179.599 174.651C179.889 174.785 180.153 174.92 180.444 175.026C180.735 175.159 180.999 175.294 181.29 175.428C181.528 175.534 181.792 175.641 182.03 175.775C182.268 175.883 182.531 175.99 182.77 176.123C182.954 176.203 183.139 176.311 183.351 176.391C183.351 176.365 183.351 176.391 183.377 176.391Z" fill="#B8528F"/>
<path d="M178.25 167.776V174.01C178.25 174.037 178.224 174.063 178.197 174.063C178.013 174.143 177.854 174.224 177.669 174.304C177.431 174.411 177.167 174.518 176.929 174.652L176.058 175.053L175.344 175.374L174.472 175.776C174.234 175.883 173.996 175.99 173.732 176.123C173.548 176.203 173.336 176.311 173.151 176.391C173.125 176.391 173.125 176.418 173.098 176.391H173.072C173.151 176.257 173.23 176.15 173.309 176.016C173.732 175.294 174.182 174.571 174.604 173.849C175.053 173.073 175.529 172.297 175.978 171.521C176.4 170.799 176.824 170.077 177.247 169.381C177.563 168.846 177.881 168.338 178.171 167.802C178.224 167.802 178.224 167.776 178.25 167.776Z" fill="#EE73BD"/>
<path d="M178.249 184.712C178.223 184.712 178.223 184.712 178.197 184.686C177.669 183.937 177.167 183.214 176.638 182.464L175.053 180.217C174.55 179.495 174.023 178.773 173.521 178.022L173.124 177.461C173.124 177.435 173.098 177.435 173.098 177.409C173.124 177.409 173.124 177.435 173.15 177.435C173.864 177.863 174.604 178.291 175.317 178.718C176.136 179.228 176.981 179.709 177.801 180.217C177.933 180.298 178.091 180.378 178.223 180.457C178.249 180.457 178.249 180.485 178.249 180.511V184.712Z" fill="#FF9BD7"/>
<path d="M173.072 176.111C173.072 176.084 173.072 176.084 173.072 176.111C173.336 175.977 173.6 175.871 173.864 175.737L174.895 175.255C175.159 175.121 175.423 175.014 175.687 174.881C176.058 174.693 176.453 174.532 176.824 174.345C177.088 174.238 177.352 174.104 177.616 173.997C177.802 173.918 177.986 173.837 178.171 173.73C178.197 173.73 178.197 173.703 178.224 173.703V179.162C178.197 179.189 178.197 179.162 178.171 179.162C178.092 179.109 178.013 179.081 177.96 179.027L173.125 176.138C173.098 176.111 173.072 176.111 173.072 176.111ZM183.297 177.102C183.297 177.128 183.297 177.128 183.271 177.154C181.738 179.349 180.206 181.516 178.673 183.71C178.515 183.951 178.356 184.165 178.197 184.406V180.151C178.541 179.937 178.884 179.724 179.228 179.537L183.271 177.128C183.271 177.102 183.297 177.102 183.297 177.102Z" fill="#CF61A3"/>
<path d="M200.579 179.291L202.724 171.11H203.931L206.09 179.291L208.263 171.11H209.613L206.815 181.325H205.479L203.306 173.372L201.147 181.325H199.812L197 171.11H198.406L200.579 179.291ZM210.975 181.325V171.11H217.637V172.305H212.325V175.449H216.827V176.644H212.325V180.13H217.637V181.325H210.975ZM226.808 171.11V172.305H223.357V181.325H221.993V172.305H218.542V171.11H226.808ZM235.006 175.449V171.11H236.37V181.325H235.006V176.644H229.538V181.325H228.175V171.11H229.538V175.449H235.006Z" fill="#353539"/>
</g>
<defs>
<clipPath id="clip0_3_2104">
<path d="M0 8C0 3.58172 3.58172 0 8 0H400C404.418 0 408 3.58172 408 8V187H0V8Z" fill="white"/>
</clipPath>
</defs>
</svg>
