<svg width="408" height="187" viewBox="0 0 408 187" fill="none" xmlns="http://www.w3.org/2000/svg">
<g clip-path="url(#clip0_3_2168)">
<path d="M0 8C0 3.58172 3.58172 0 8 0H400C404.418 0 408 3.58172 408 8V187H0V8Z" fill="#BD3C3C"/>
<path d="M400 0H8C3.58172 0 0 3.58172 0 8V179C0 183.418 3.58172 187 8 187H400C404.418 187 408 183.418 408 179V8C408 3.58172 404.418 0 400 0Z" fill="#AFE8F4"/>
<path d="M428 -8H-8V396.757H428V-8Z" fill="#AFE8F4"/>
<rect x="100.5" y="33.5" width="218" height="123" rx="6.5" fill="white" stroke="#E7E7E7"/>
<rect x="100.5" y="33.5" width="218" height="123" rx="6.5" fill="white" stroke="#E7E7E7"/>
<rect x="113" y="45" width="91" height="99" rx="7" fill="#DDF9FF"/>
<rect x="216" y="45" width="91" height="99" rx="7" fill="#DDF9FF"/>
<rect x="100.5" y="33.5" width="218" height="123" rx="6.5" fill="white" stroke="#E7E7E7"/>
<rect x="100.5" y="33.5" width="218" height="123" rx="6.5" fill="white" stroke="#E7E7E7"/>
<rect x="113" y="45" width="91" height="99" rx="7" fill="#DDF9FF"/>
<rect x="216" y="45" width="91" height="99" rx="7" fill="#DDF9FF"/>
<path d="M273.397 92.8234C271.857 92.8265 270.329 93.0929 268.879 93.6113C269.618 91.1411 269.994 88.5768 269.997 85.9985C269.997 76.6105 262.387 69 252.999 69C243.611 69 236 76.6105 236 85.9985C236 103.004 251.886 112.697 252.563 113.101C252.831 113.262 253.167 113.262 253.435 113.101C255.766 111.614 257.929 109.878 259.885 107.925C260.694 115.196 267.11 120.524 274.405 119.984C281.701 119.444 287.262 113.228 286.99 105.918C286.719 98.6069 280.712 92.8212 273.397 92.8234ZM252.999 111.363C250.46 109.681 237.7 100.503 237.7 85.9985C237.7 77.5493 244.549 70.6999 252.999 70.6999C261.448 70.6999 268.297 77.5493 268.297 85.9985C268.294 88.9156 267.781 91.8097 266.783 94.5505C262.759 96.7989 260.147 100.932 259.843 105.532C257.787 107.725 255.491 109.681 252.999 111.363ZM274.247 118.278V114.921C274.247 114.452 273.866 114.072 273.397 114.072C272.927 114.072 272.547 114.452 272.547 114.921V118.278C266.655 117.85 261.969 113.164 261.541 107.272H264.898C265.367 107.272 265.747 106.892 265.747 106.422C265.747 105.953 265.367 105.572 264.898 105.572H261.541C261.969 99.6804 266.655 94.9947 272.547 94.5666V97.923C272.547 98.3925 272.927 98.7729 273.397 98.7729C273.866 98.7729 274.247 98.3924 274.247 97.923V94.5666C280.139 94.9946 284.824 99.6804 285.252 105.572H281.896C281.427 105.572 281.046 105.953 281.046 106.422C281.046 106.892 281.427 107.272 281.896 107.272H285.252C284.824 113.164 280.139 117.85 274.247 118.278Z" fill="black"/>
<path d="M275.097 105.572H274.247V104.722C274.247 104.253 273.866 103.873 273.397 103.873C272.927 103.873 272.547 104.253 272.547 104.722V105.572H271.697C271.228 105.572 270.847 105.953 270.847 106.422C270.847 106.892 271.228 107.272 271.697 107.272H272.547V108.122C272.547 108.591 272.927 108.972 273.397 108.972C273.866 108.972 274.247 108.591 274.247 108.122V107.272H275.097C275.566 107.272 275.946 106.892 275.946 106.422C275.946 105.953 275.566 105.572 275.097 105.572Z" fill="black"/>
<path d="M263.198 93.6734V80.0746C263.198 78.197 261.676 76.6749 259.798 76.6749H246.199C244.321 76.6749 242.799 78.1969 242.799 80.0746V93.6734C242.799 95.551 244.321 97.0731 246.199 97.0731H259.798C261.675 97.073 263.198 95.551 263.198 93.6734ZM249.599 78.3747H256.398L256.363 86.8511L253.398 85.2736C253.148 85.1407 252.849 85.1407 252.599 85.2736L249.599 86.874V78.3747ZM244.499 93.6734V80.0746C244.499 79.1358 245.26 78.3747 246.199 78.3747H247.899V86.8739C247.895 87.4875 248.225 88.0544 248.762 88.3529C249.021 88.5004 249.313 88.5783 249.611 88.579C249.902 88.5799 250.187 88.5017 250.437 88.3529L252.998 86.9871L255.524 88.33C256.048 88.6449 256.702 88.6533 257.235 88.3519C257.768 88.0506 258.097 87.4861 258.098 86.874V78.3747H259.798C260.737 78.3747 261.498 79.1358 261.498 80.0746V93.6734C261.498 94.6122 260.737 95.3733 259.798 95.3733H246.199C245.26 95.3733 244.499 94.6122 244.499 93.6734Z" fill="black"/>
<path d="M249.599 91.9735H247.899V90.2737C247.899 89.8042 247.518 89.4238 247.049 89.4238C246.58 89.4238 246.199 89.8043 246.199 90.2737V92.8234C246.199 93.2929 246.58 93.6733 247.049 93.6733H249.599C250.068 93.6733 250.449 93.2928 250.449 92.8234C250.449 92.3541 250.068 91.9735 249.599 91.9735Z" fill="black"/>
<path d="M160.95 77.8882C160.95 80.589 154.917 82.7785 147.475 82.7785C140.033 82.7785 134 80.589 134 77.8882M160.95 77.8882C160.95 75.1895 154.917 73 147.475 73C140.033 73 134 75.1895 134 77.8882M160.95 77.8882V81.5549M134 77.8882V107.222C134 109.922 140.033 112.112 147.475 112.112M147.475 92.5549C147.062 92.5549 146.654 92.5486 146.25 92.536C139.382 92.3118 134 90.2166 134 87.6667M147.475 102.333C140.033 102.333 134 100.144 134 97.4451M183 93.7785C183 96.4771 176.967 98.6667 169.525 98.6667C162.083 98.6667 156.05 96.4771 156.05 93.7785M183 93.7785C183 91.0777 176.967 88.8882 169.525 88.8882C162.083 88.8882 156.05 91.0777 156.05 93.7785M183 93.7785V112.112C183 114.81 176.967 117 169.525 117C162.083 117 156.05 114.81 156.05 112.112V93.7785M183 102.945C183 105.644 176.967 107.833 169.525 107.833C162.083 107.833 156.05 105.644 156.05 102.945" stroke="#1E1F23" stroke-width="2" stroke-linecap="round" stroke-linejoin="round"/>
</g>
<defs>
<clipPath id="clip0_3_2168">
<path d="M0 8C0 3.58172 3.58172 0 8 0H400C404.418 0 408 3.58172 408 8V187H0V8Z" fill="white"/>
</clipPath>
</defs>
</svg>
