<svg width="64" height="64" viewBox="0 0 64 64" fill="none" xmlns="http://www.w3.org/2000/svg">
<g clip-path="url(#clip0_284_1565)">
<rect width="64" height="64" rx="12" fill="#FF3300"/>
<path d="M61.7465 0H2.25352C1.00894 0 0 1.04576 0 2.33577V61.6642C0 62.9542 1.00894 64 2.25352 64H61.7465C62.9911 64 64 62.9542 64 61.6642V2.33577C64 1.04576 62.9911 0 61.7465 0Z" fill="#FF3300"/>
<path d="M25.0933 32.0023L51.5151 25.7011V12H37.8139L25.0933 32.0023Z" fill="white"/>
<path d="M12 31.7624C12 33.4014 12.1998 34.9925 12.5772 36.5169L25.0944 32.0029L12.4736 27.4481C12.1665 28.8356 12 30.2787 12 31.7587V31.7624Z" fill="white"/>
<path d="M16.6548 19.0231L25.0908 32.0027L28.9795 12.1965C24.0548 12.8885 19.7147 15.3971 16.6548 19.0231Z" fill="white"/>
<path d="M25.0933 32.0015L51.5151 38.2989V52H37.8139L25.0933 32.0015Z" fill="white"/>
<path d="M16.6541 44.979L25.0901 31.9994L28.9752 51.8019C24.0504 51.11 19.7103 48.6014 16.6504 44.9754L16.6541 44.979Z" fill="white"/>
<rect width="64" height="64" fill="white"/>
<g clip-path="url(#clip1_284_1565)">
<path d="M48.7934 16.4542C48.7582 16.1982 48.5339 16.0565 48.3486 16.0409C48.1636 16.0255 44.2485 15.7353 44.2485 15.7353C44.2485 15.7353 41.5295 13.0359 41.2311 12.7371C40.9325 12.4385 40.3493 12.5293 40.1229 12.5959C40.0896 12.6057 39.5288 12.7788 38.6013 13.0658C37.693 10.4522 36.09 8.05035 33.27 8.05035C33.1921 8.05035 33.112 8.05351 33.0319 8.05807C32.2299 6.99742 31.2364 6.53662 30.3782 6.53662C23.809 6.53662 20.6706 14.7488 19.6866 18.9219C17.1339 19.7129 15.3205 20.2752 15.0889 20.348C13.6641 20.7949 13.619 20.8398 13.4319 22.1824C13.2911 23.1989 9.56299 52.0303 9.56299 52.0303L38.6134 57.4733L54.3539 54.0681C54.3539 54.0681 48.8281 16.7102 48.7934 16.4542ZM36.9957 13.5624L34.5375 14.3232C34.5384 14.15 34.5393 13.9796 34.5393 13.7932C34.5393 12.1688 34.3138 10.8609 33.9521 9.82412C35.4051 10.0065 36.3729 11.6598 36.9957 13.5624ZM32.1496 10.1462C32.5535 11.1585 32.8162 12.6112 32.8162 14.5715C32.8162 14.6718 32.8153 14.7635 32.8145 14.8563C31.2159 15.3514 29.4787 15.889 27.7378 16.4284C28.7153 12.6557 30.5476 10.8336 32.1496 10.1462ZM30.1978 8.29864C30.4813 8.29864 30.767 8.3949 31.0403 8.58304C28.935 9.57373 26.6783 12.0689 25.7254 17.0516L21.7125 18.2944C22.8287 14.4938 25.4794 8.29864 30.1978 8.29864Z" fill="#95BF46"/>
<path d="M48.3485 16.0409C48.1635 16.0255 44.2485 15.7353 44.2485 15.7353C44.2485 15.7353 41.5295 13.0359 41.231 12.7371C41.1193 12.626 40.9687 12.569 40.8113 12.5444L38.6147 57.473L54.3538 54.0682C54.3538 54.0682 48.8281 16.7102 48.7934 16.4542C48.7581 16.1982 48.5339 16.0565 48.3485 16.0409Z" fill="#5E8E3E"/>
<path d="M33.2699 24.7382L31.329 30.5115C31.329 30.5115 29.6286 29.6039 27.5441 29.6039C24.4882 29.6039 24.3345 31.5216 24.3345 32.0049C24.3345 34.6417 31.2079 35.652 31.2079 41.8283C31.2079 46.6875 28.1259 49.8165 23.9703 49.8165C18.9835 49.8165 16.4333 46.713 16.4333 46.713L17.7686 42.3014C17.7686 42.3014 20.39 44.5519 22.6019 44.5519C24.0472 44.5519 24.6352 43.4139 24.6352 42.5824C24.6352 39.1429 18.9962 38.9895 18.9962 33.3377C18.9962 28.5808 22.4104 23.9775 29.3024 23.9775C31.958 23.9775 33.2699 24.7382 33.2699 24.7382Z" fill="white"/>
</g>
</g>
<defs>
<clipPath id="clip0_284_1565">
<rect width="64" height="64" rx="12" fill="white"/>
</clipPath>
<clipPath id="clip1_284_1565">
<rect width="44.8922" height="51.2" fill="white" transform="translate(9.55396 6.40002)"/>
</clipPath>
</defs>
</svg>
