<svg width="64" height="64" viewBox="0 0 64 64" fill="none" xmlns="http://www.w3.org/2000/svg">
<rect width="64" height="64" fill="white"/>
<path d="M7.4721 14.08H56.4976C59.6004 14.08 62.1119 16.5915 62.1119 19.6943V38.408C62.1119 41.5108 59.6004 44.0223 56.4976 44.0223H38.9164L41.3296 49.9319L30.7167 44.0223H7.49656C4.39403 44.0223 1.8825 41.5108 1.8825 38.408V19.6943C1.8578 16.6162 4.36909 14.08 7.4721 14.08Z" fill="#9B5C8F"/>
<path d="M5.31464 19.1766C5.6574 18.7131 6.17142 18.4694 6.85694 18.4206C8.10565 18.3229 8.81563 18.908 8.98689 20.1762C9.74581 25.2728 10.5781 29.5891 11.4594 33.1248L16.8207 22.9562C17.3105 22.0295 17.9226 21.5418 18.6571 21.4931C19.7343 21.42 20.3951 22.1026 20.6644 23.5414C21.2766 26.7844 22.0599 29.5401 22.9901 31.881C23.6267 25.6873 24.7039 21.2248 26.2217 18.4694C26.5887 17.7865 27.1275 17.4451 27.8374 17.3961C28.4006 17.3476 28.9146 17.5182 29.3797 17.884C29.8448 18.2498 30.0897 18.7131 30.1387 19.274C30.1631 19.7129 30.0897 20.0787 29.894 20.4445C28.9391 22.2003 28.1555 25.1509 27.5191 29.2474C26.9073 33.2223 26.6868 36.3194 26.8336 38.5385C26.8828 39.1477 26.7847 39.6843 26.54 40.1478C26.246 40.6842 25.8056 40.9769 25.2424 41.0256C24.6058 41.0743 23.945 40.7819 23.3084 40.1234C21.0317 37.8067 19.22 34.344 17.8981 29.7353C16.3067 32.8565 15.1316 35.1974 14.3727 36.7581C12.9283 39.5137 11.7043 40.9281 10.676 41.0012C10.0149 41.05 9.45198 40.489 8.96242 39.3188C7.71395 36.1242 6.36739 29.9546 4.92319 20.8103C4.82509 20.1762 4.97188 19.6152 5.31464 19.1766ZM57.9249 23.005C57.0437 21.4687 55.746 20.5422 54.008 20.1762C53.5427 20.0787 53.1023 20.03 52.6859 20.03C50.3358 20.03 48.4263 21.2492 46.9329 23.6878C45.6597 25.7604 45.0234 28.0526 45.0234 30.5643C45.0234 32.442 45.4151 34.0514 46.1984 35.3926C47.0797 36.9289 48.3773 37.8554 50.1153 38.2212C50.5804 38.3189 51.0211 38.3676 51.4374 38.3676C53.8121 38.3676 55.7216 37.1484 57.1905 34.7098C58.4634 32.6126 59.1 30.3204 59.1 27.8089C59.1245 25.9069 58.7083 24.3217 57.9249 23.005ZM54.8403 29.7597C54.4976 31.369 53.8855 32.5639 52.9795 33.3685C52.2698 34.0026 51.6087 34.2707 50.9968 34.1488C50.4092 34.027 49.9194 33.515 49.5524 32.5639C49.2583 31.8079 49.1118 31.052 49.1118 30.3448C49.1118 29.7353 49.1607 29.1256 49.283 28.5648C49.5035 27.565 49.9196 26.5895 50.5804 25.6629C51.3885 24.4679 52.2453 23.9805 53.1265 24.1511C53.7142 24.2729 54.204 24.7852 54.571 25.7361C54.8648 26.492 55.0116 27.2479 55.0116 27.9551C55.0116 28.5892 54.9627 29.1989 54.8403 29.7597ZM42.5996 23.005C41.7183 21.4687 40.3962 20.5422 38.6827 20.1762C38.2176 20.0787 37.777 20.03 37.3606 20.03C35.0104 20.03 33.1009 21.2492 31.6076 23.6878C30.3346 25.7604 29.698 28.0526 29.698 30.5643C29.698 32.442 30.0897 34.0514 30.8731 35.3926C31.7543 36.9289 33.052 37.8554 34.79 38.2212C35.2553 38.3189 35.6957 38.3676 36.1121 38.3676C38.4867 38.3676 40.3962 37.1484 41.8651 34.7098C43.1383 32.6126 43.7747 30.3204 43.7747 27.8089C43.7747 25.9069 43.383 24.3217 42.5996 23.005ZM39.4905 29.7597C39.1478 31.369 38.5357 32.5639 37.6299 33.3685C36.92 34.0026 36.2589 34.2707 35.6468 34.1488C35.0594 34.027 34.5698 33.515 34.2024 32.5639C33.9088 31.8079 33.762 31.052 33.762 30.3448C33.762 29.7353 33.8109 29.1256 33.9332 28.5648C34.1537 27.565 34.5698 26.5895 35.2309 25.6629C36.0387 24.4679 36.8955 23.9805 37.7767 24.1511C38.3644 24.2729 38.8542 24.7852 39.2212 25.7361C39.5152 26.492 39.6618 27.2479 39.6618 27.9551C39.6865 28.5892 39.6129 29.1989 39.4905 29.7597Z" fill="white"/>
</svg>
