<svg width="64" height="64" viewBox="0 0 64 64" fill="none" xmlns="http://www.w3.org/2000/svg">
<rect width="64" height="64" fill="white"/>
<path d="M38.7498 32.0118C38.7507 33.9589 38.3995 35.8901 37.7131 37.7122C35.8903 38.3986 33.9587 38.7504 32.011 38.7507H31.9882C29.9826 38.7481 28.061 38.3815 26.2878 37.7131C25.601 35.8908 25.2494 33.9593 25.25 32.0118V31.9882C25.2491 30.0415 25.6 28.1106 26.2857 26.2887C28.1083 25.601 30.0404 25.2492 31.9884 25.25H32.0112C33.959 25.2491 35.8909 25.6009 37.7133 26.2885C38.3998 28.1102 38.751 30.0412 38.75 31.988V32.0116L38.7498 32.0118ZM58.625 27.5001H42.8646L54.0082 16.3556C53.1336 15.1269 52.1579 13.9734 51.0914 12.907V12.9062C50.0248 11.8409 48.8716 10.8661 47.6436 9.99184L36.4991 21.1363V5.37589C35.0169 5.12655 33.5166 5.00082 32.0135 5L31.9857 5C30.4568 5.00084 28.9594 5.13078 27.5001 5.37589V21.1363L16.3556 9.99184C15.1274 10.8659 13.9747 11.8414 12.9095 12.9081L12.9036 12.9123C11.8389 13.9773 10.8646 15.1291 9.99079 16.3556L21.1361 27.5001H5.37589C5.37589 27.5001 5 30.4602 5 31.9907V32.0093C5 33.5399 5.12973 35.0398 5.37589 36.5H21.1363L9.991 47.6444C11.7442 50.1048 13.8952 52.2558 16.3556 54.0091L27.5001 42.8637V58.625C28.9807 58.8731 30.4792 58.9986 31.9804 59.0001H32.0186C33.5198 58.9987 35.0184 58.8733 36.4989 58.625V42.8637L47.6444 54.0091C48.8722 53.1345 50.0251 52.1594 51.0914 51.0939L51.0939 51.0914C52.1589 50.0249 53.1337 48.872 54.0082 47.6444L42.8629 36.5H58.625C58.8703 35.0424 58.9984 33.5468 59.0001 32.0196V31.9804C58.9984 30.4532 58.8703 28.9577 58.625 27.5001Z" fill="#FF4A00"/>
</svg>
